#N canvas 722 235 377 369 10;
#X obj 44 88 * 44100;
#X obj 44 289 *~;
#X obj 44 129 t b f;
#X obj 44 67 tabread drum-kit-times;
#X obj 44 198 tabplay~ drum-kit;
#X msg 44 168 \$1 8820;
#X msg 77 237 1 \, 0 200;
#X obj 77 260 line~;
#X obj 44 309 throw~ drum-kit-bus;
#X obj 44 22 r play-\$1;
#X obj 44 109 i;
#X text 114 167 Just play 200ms of the sound;
#X connect 0 0 10 0;
#X connect 1 0 8 0;
#X connect 2 0 6 0;
#X connect 2 1 5 0;
#X connect 3 0 0 0;
#X connect 4 0 1 0;
#X connect 5 0 4 0;
#X connect 6 0 7 0;
#X connect 7 0 1 1;
#X connect 9 0 3 0;
#X connect 10 0 2 0;
