#N canvas 229 169 964 542 12;
#N canvas 0 22 450 300 (subpatch) 0;
#X array mag-spec-graph 1024 float 0;
#X coords 0 0.25 1023 0 200 140 1;
#X restore 39 42 graph;
#N canvas 0 22 450 300 (subpatch) 0;
#X array barkspec-graph 95 float 0;
#X coords 0 1 94 0 200 140 1;
#X restore 269 42 graph;
#N canvas 0 22 450 300 (subpatch) 0;
#X array bfcc-graph 95 float 0;
#X coords 0 1 94 -1 200 140 1;
#X restore 499 42 graph;
#N canvas 0 22 450 300 (subpatch) 0;
#X array cepstrum-graph 60 float 0;
#X coords 0 1 59 -0.6 200 140 1;
#X restore 729 42 graph;
#X obj 39 255 nbx 5 32 -1e+37 1e+37 0 0 empty brightness-graph empty
0 -8 0 32 -262144 -1 -1 0.60006 256;
#X text 37 235 Brightness;
#X obj 269 255 nbx 5 32 -1e+37 1e+37 0 0 empty centroid-graph empty
0 -8 0 32 -262144 -1 -1 2021.55 256;
#X obj 499 255 nbx 5 32 -1e+37 1e+37 0 0 empty flatness-graph empty
0 -8 0 32 -262144 -1 -1 0.0260845 256;
#X obj 729 255 nbx 5 32 -1e+37 1e+37 0 0 empty flux-graph empty 0 -8
0 32 -262144 -1 -1 0.457832 256;
#X text 267 235 Centroid;
#X text 497 235 Flatness;
#X text 727 235 Flux;
#X obj 39 345 nbx 5 32 -1e+37 1e+37 0 0 empty kurtosis-graph empty
0 -8 0 32 -262144 -1 -1 10.2795 256;
#X obj 269 345 nbx 5 32 -1e+37 1e+37 0 0 empty rolloff-graph empty
0 -8 0 32 -262144 -1 -1 3703.71 256;
#X obj 499 345 nbx 5 32 -1e+37 1e+37 0 0 empty skewness-graph empty
0 -8 0 32 -262144 -1 -1 2.34801 256;
#X obj 729 345 nbx 5 32 -1e+37 1e+37 0 0 empty spread-graph empty 0
-8 0 32 -262144 -1 -1 2061.68 256;
#X text 37 325 Kurtosis;
#X text 267 325 Rolloff;
#X text 497 325 Skewness;
#X text 727 325 Spread;
#X obj 39 435 nbx 5 32 -1e+37 1e+37 0 0 empty zero-crossing-graph empty
0 -8 0 32 -262144 -1 -1 130 256;
#X text 37 415 Zero-crossing;
#N canvas 64 28 1219 820 analyses 0;
#X obj 47 164 list prepend 0;
#X obj 47 187 s mag-spec-graph;
#X obj 297 164 list prepend 0;
#X obj 547 164 list prepend 0;
#X obj 547 187 s bfcc-graph;
#X obj 297 187 s barkspec-graph;
#X obj 797 164 list prepend 0;
#X obj 797 141 list split 1;
#X obj 47 747 s zero-crossing-graph;
#X obj 317 747 s irreg-graph;
#X obj 47 550 s kurtosis-graph;
#X obj 307 550 s rolloff-graph;
#X obj 557 550 s skewness-graph;
#X obj 767 550 s spread-graph;
#X obj 797 187 s cepstrum-graph;
#X obj 787 357 s flux-graph;
#X obj 547 357 s flatness-graph;
#X obj 297 357 s centroid-graph;
#X obj 47 357 s brightness-graph;
#X obj 976 522 adc~;
#X obj 976 545 s~ input-signal;
#X obj 47 141 magSpec~ 2048;
#X obj 47 112 r~ input-signal;
#X obj 297 112 r~ input-signal;
#X obj 547 92 r~ input-signal;
#X obj 797 92 r~ input-signal;
#X obj 47 302 r~ input-signal;
#X obj 297 302 r~ input-signal;
#X obj 547 282 r~ input-signal;
#X obj 797 282 r~ input-signal;
#X obj 47 492 r~ input-signal;
#X obj 297 492 r~ input-signal;
#X obj 547 472 r~ input-signal;
#X obj 797 472 r~ input-signal;
#X obj 47 682 r~ input-signal;
#X obj 297 682 r~ input-signal;
#X obj 297 141 barkSpec~ 2048 0.25;
#X obj 547 141 bfcc~ 2048 0.25;
#X obj 797 119 cepstrum~ 2048;
#X obj 787 331 specFlux~ 2048;
#X obj 547 331 specFlatness~ 2048;
#X obj 297 331 specCentroid~ 2048;
#X obj 47 331 specBrightness~ 2048;
#X obj 47 521 specKurtosis~ 2048;
#X obj 307 521 specRolloff~ 2048;
#X obj 557 521 specSkewness~ 2048;
#X obj 767 521 specSpread~ 2048;
#X obj 317 721 specIrregularity~ 2048;
#X obj 47 721 zeroCrossing~ 2048;
#X obj 907 602 loadbang;
#X obj 815 672 metro 23.22;
#X obj 815 696 s analysis-tick;
#X obj 778 654 tgl 15 0 empty empty empty 17 7 0 10 -262144 -1 -1 0
1;
#X obj 115 80 r analysis-tick;
#X obj 345 80 r analysis-tick;
#X obj 595 60 r analysis-tick;
#X obj 825 60 r analysis-tick;
#X obj 115 260 r analysis-tick;
#X obj 345 260 r analysis-tick;
#X obj 595 240 r analysis-tick;
#X obj 825 240 r analysis-tick;
#X obj 345 450 r analysis-tick;
#X obj 595 430 r analysis-tick;
#X obj 825 430 r analysis-tick;
#X obj 75 630 r analysis-tick;
#X obj 305 630 r analysis-tick;
#X obj 115 450 r analysis-tick;
#X msg 968 665 \; pd dsp 1 \;;
#X connect 0 0 1 0;
#X connect 2 0 5 0;
#X connect 3 0 4 0;
#X connect 6 0 14 0;
#X connect 7 1 6 0;
#X connect 19 0 20 0;
#X connect 21 0 0 0;
#X connect 22 0 21 0;
#X connect 23 0 36 0;
#X connect 24 0 37 0;
#X connect 25 0 38 0;
#X connect 26 0 42 0;
#X connect 27 0 41 0;
#X connect 28 0 40 0;
#X connect 29 0 39 0;
#X connect 30 0 43 0;
#X connect 31 0 44 0;
#X connect 32 0 45 0;
#X connect 33 0 46 0;
#X connect 34 0 48 0;
#X connect 35 0 47 0;
#X connect 36 0 2 0;
#X connect 37 0 3 0;
#X connect 38 0 7 0;
#X connect 39 0 15 0;
#X connect 40 0 16 0;
#X connect 41 0 17 0;
#X connect 42 0 18 0;
#X connect 43 0 10 0;
#X connect 44 0 11 0;
#X connect 45 0 12 0;
#X connect 46 0 13 0;
#X connect 47 0 9 0;
#X connect 48 0 8 0;
#X connect 49 0 50 0;
#X connect 49 0 67 0;
#X connect 50 0 51 0;
#X connect 52 0 50 0;
#X connect 53 0 21 0;
#X connect 54 0 36 0;
#X connect 55 0 37 0;
#X connect 56 0 38 0;
#X connect 57 0 42 0;
#X connect 58 0 41 0;
#X connect 59 0 40 0;
#X connect 60 0 39 0;
#X connect 61 0 44 0;
#X connect 62 0 45 0;
#X connect 63 0 46 0;
#X connect 64 0 48 0;
#X connect 65 0 47 0;
#X connect 66 0 43 0;
#X restore 531 430 pd analyses;
#X obj 1 -13 cnv 10 400 10 empty empty empty 20 12 0 14 -233017 -66577
0;
#X obj 1 -13 cnv 10 10 400 empty empty empty 20 12 0 14 -233017 -66577
0;
#X text 267 415 Irregularity;
#X obj 269 435 nbx 5 32 -1e+37 1e+37 0 0 empty irreg-graph empty 0
-8 0 32 -262144 -1 -1 0.305595 256;
