#N canvas 627 287 394 400 10;
#X obj 44 65 tabread timbreOrder;
#X obj 43 238 tabplay~ timbreID-set;
#X obj 43 328 *~;
#X obj 44 129 t b f;
#X obj 43 172 pack f f;
#X obj 286 157 r samplerate;
#X obj 286 178 / 1000;
#X obj 231 44 r window-size;
#X obj 231 65 t f f f;
#X obj 229 312 cos~;
#X obj 229 285 vline~;
#X msg 229 260 -0.25 \, 0.25 \$1;
#X obj 247 208 / 44.1;
#X obj 229 233 f;
#X msg 138 279 -0.25;
#X obj 138 261 r lb1;
#X obj 43 348 throw~ timbre-order-sum;
#X obj 44 22 r play-\$1;
#X obj 44 106 *;
#X connect 0 0 18 0;
#X connect 1 0 2 0;
#X connect 2 0 16 0;
#X connect 3 0 13 0;
#X connect 3 1 4 0;
#X connect 4 0 1 0;
#X connect 5 0 6 0;
#X connect 6 0 12 1;
#X connect 7 0 8 0;
#X connect 8 0 18 1;
#X connect 8 1 4 1;
#X connect 8 2 12 0;
#X connect 9 0 2 1;
#X connect 10 0 9 0;
#X connect 11 0 10 0;
#X connect 12 0 13 1;
#X connect 13 0 11 0;
#X connect 14 0 10 0;
#X connect 15 0 14 0;
#X connect 17 0 0 0;
#X connect 18 0 3 0;
