#N canvas 387 181 250 324 10;
#X obj 44 87 tabread timbreID-attacks;
#X obj 44 65 tabread timbreOrder;
#X obj 43 188 tabplay~ timbreID-set;
#X obj 44 108 * 44100;
#X msg 43 168 \$1 44100;
#X obj 43 259 *~;
#X obj 76 250 line~;
#X obj 44 129 t b f;
#X msg 76 227 1 \, 0 1000;
#X obj 44 22 r play-\$1;
#X obj 43 279 throw~ timbre-order-sum;
#X connect 0 0 3 0;
#X connect 1 0 0 0;
#X connect 2 0 5 0;
#X connect 3 0 7 0;
#X connect 4 0 2 0;
#X connect 5 0 10 0;
#X connect 6 0 5 1;
#X connect 7 0 8 0;
#X connect 7 1 4 0;
#X connect 8 0 6 0;
#X connect 9 0 1 0;
