#N canvas 261 222 972 583 10;
#X obj 73 241 list append;
#X obj -302 346 list append;
#X obj -228 325 list append;
#X obj 147 220 list append;
#X obj -149 304 list append;
#X obj -75 283 list append;
#X obj -1 262 list append;
#X obj 238 199 list append;
#X obj 312 178 list append;
#N canvas 206 49 500 584 kurt 0;
#X obj 123 501 outlet;
#X obj 123 43 inlet;
#X msg 123 149 1;
#X msg 155 149 0;
#X obj 123 271 specKurtosis~ 1024;
#X obj 175 227 r~ te-sig-in;
#X obj 123 174 metro 5.80499;
#X obj 123 372 featureAccum 57 1;
#X obj 123 207 t b b;
#X obj 208 103 f;
#X obj 238 103 + 1;
#X msg 223 76 0;
#X obj 123 83 t b b;
#X obj 208 125 select 56;
#X connect 1 0 12 0;
#X connect 2 0 6 0;
#X connect 3 0 6 0;
#X connect 4 0 7 0;
#X connect 5 0 4 0;
#X connect 6 0 8 0;
#X connect 7 0 0 0;
#X connect 8 0 4 0;
#X connect 8 1 9 0;
#X connect 9 0 10 0;
#X connect 9 0 13 0;
#X connect 10 0 9 1;
#X connect 11 0 9 1;
#X connect 12 0 2 0;
#X connect 12 1 11 0;
#X connect 13 0 3 0;
#X restore 386 136 pd kurt;
#N canvas 614 100 468 527 bfcc 0;
#X obj -2 445 outlet;
#X obj 28 181 r lb1;
#X msg 28 202 1;
#X msg 28 223 filter_avg \$1;
#X obj -36 17 inlet;
#X msg -36 123 1;
#X msg -4 123 0;
#X obj -36 143 metro 5.80499;
#X obj -36 269 bfcc~ 1024;
#X obj -129 212 r~ te-sig-in;
#X obj -36 290 list split 1;
#X obj -2 373 binWrangler 57 46;
#X obj -36 173 t b b;
#X obj 50 69 f;
#X obj 80 69 + 1;
#X msg 65 42 0;
#X obj -36 49 t b b;
#X obj 50 91 select 56;
#X connect 1 0 2 0;
#X connect 2 0 3 0;
#X connect 3 0 8 0;
#X connect 4 0 16 0;
#X connect 5 0 7 0;
#X connect 6 0 7 0;
#X connect 7 0 12 0;
#X connect 8 0 10 0;
#X connect 9 0 8 0;
#X connect 10 1 11 0;
#X connect 11 0 0 0;
#X connect 12 0 8 0;
#X connect 12 1 13 0;
#X connect 13 0 14 0;
#X connect 13 0 17 0;
#X connect 14 0 13 1;
#X connect 15 0 13 1;
#X connect 16 0 5 0;
#X connect 16 1 15 0;
#X connect 17 0 6 0;
#X restore 554 94 pd bfcc;
#X obj 386 157 list append;
#X obj 460 136 list append;
#N canvas 296 124 504 542 RMS 0;
#X obj 123 483 outlet;
#X obj 161 427 list prepend 0;
#X obj 123 23 inlet;
#X msg 123 149 1;
#X msg 155 149 0;
#X obj 123 189 metro 5.80499;
#X obj 143 271 env~ 1024 128;
#X obj 123 292 f;
#X obj 143 249 r~ te-sig-in;
#X obj 161 451 s rms-graph;
#X obj 123 332 featureAccum 57 1;
#X obj 123 211 t b b;
#X obj 230 96 f;
#X obj 260 96 + 1;
#X msg 245 69 0;
#X obj 123 45 t b b;
#X obj 230 118 select 56;
#X connect 1 0 9 0;
#X connect 2 0 15 0;
#X connect 3 0 5 0;
#X connect 4 0 5 0;
#X connect 5 0 11 0;
#X connect 6 0 7 1;
#X connect 7 0 10 0;
#X connect 8 0 6 0;
#X connect 10 0 1 0;
#X connect 10 0 0 0;
#X connect 11 0 7 0;
#X connect 11 1 12 0;
#X connect 12 0 13 0;
#X connect 12 0 16 0;
#X connect 13 0 12 1;
#X connect 14 0 12 1;
#X connect 15 0 3 0;
#X connect 15 1 14 0;
#X connect 16 0 4 0;
#X restore 617 94 pd RMS;
#X obj 554 114 list append;
#N canvas 582 271 336 500 barkSpec 0;
#X obj -26 425 outlet;
#X obj 15 178 r lb1;
#X msg 15 199 1;
#X msg 15 220 filter_avg \$1;
#X obj -26 17 inlet;
#X msg -26 123 1;
#X msg 6 123 0;
#X obj -26 143 metro 5.80499;
#X obj -26 269 barkSpec~ 1024;
#X obj -115 215 r~ te-sig-in;
#X obj -26 346 binWrangler 57 47;
#X obj -36 173 t b b;
#X obj 50 69 f;
#X obj 80 69 + 1;
#X msg 65 42 0;
#X obj -36 49 t b b;
#X obj 50 91 select 56;
#X connect 1 0 2 0;
#X connect 2 0 3 0;
#X connect 3 0 8 0;
#X connect 4 0 15 0;
#X connect 5 0 7 0;
#X connect 6 0 7 0;
#X connect 7 0 11 0;
#X connect 8 0 10 0;
#X connect 9 0 8 0;
#X connect 10 0 0 0;
#X connect 11 0 8 0;
#X connect 11 1 12 0;
#X connect 12 0 13 0;
#X connect 12 0 16 0;
#X connect 13 0 12 1;
#X connect 14 0 12 1;
#X connect 15 0 5 0;
#X connect 15 1 14 0;
#X connect 16 0 6 0;
#X restore 460 114 pd barkSpec;
#X obj 406 -97 inlet;
#X obj 406 -76 t b b b b b b b b b b b b b b;
#N canvas 206 49 500 584 skew 0;
#X obj 123 501 outlet;
#X obj 123 43 inlet;
#X msg 123 149 1;
#X msg 155 149 0;
#X obj 123 169 metro 5.80499;
#X obj 123 261 specSkewness~ 1024;
#X obj 165 209 r~ te-sig-in;
#X obj 123 372 featureAccum 57 1;
#X obj 123 204 t b b;
#X obj 209 100 f;
#X obj 239 100 + 1;
#X msg 224 73 0;
#X obj 123 80 t b b;
#X obj 209 122 select 56;
#X connect 1 0 12 0;
#X connect 2 0 4 0;
#X connect 3 0 4 0;
#X connect 4 0 8 0;
#X connect 5 0 7 0;
#X connect 6 0 5 0;
#X connect 7 0 0 0;
#X connect 8 0 5 0;
#X connect 8 1 9 0;
#X connect 9 0 10 0;
#X connect 9 0 13 0;
#X connect 10 0 9 1;
#X connect 11 0 9 1;
#X connect 12 0 2 0;
#X connect 12 1 11 0;
#X connect 13 0 3 0;
#X restore 312 157 pd skew;
#N canvas 206 49 500 584 spread 0;
#X obj 123 501 outlet;
#X obj 123 43 inlet;
#X msg 123 149 1;
#X msg 155 149 0;
#X obj 123 169 metro 5.80499;
#X obj 123 311 specSpread~ 1024;
#X obj 185 242 r~ te-sig-in;
#X obj 123 372 featureAccum 57 1;
#X obj 123 214 t b b;
#X obj 191 95 f;
#X obj 221 95 + 1;
#X msg 206 68 0;
#X obj 123 90 t b b;
#X obj 191 117 select 56;
#X connect 1 0 12 0;
#X connect 2 0 4 0;
#X connect 3 0 4 0;
#X connect 4 0 8 0;
#X connect 5 0 7 0;
#X connect 6 0 5 0;
#X connect 7 0 0 0;
#X connect 8 0 5 0;
#X connect 8 1 9 0;
#X connect 9 0 10 0;
#X connect 9 0 13 0;
#X connect 10 0 9 1;
#X connect 11 0 9 1;
#X connect 12 0 2 0;
#X connect 12 1 11 0;
#X connect 13 0 3 0;
#X restore 238 178 pd spread;
#N canvas 206 49 500 584 centroid 0;
#X obj 123 501 outlet;
#X obj 123 43 inlet;
#X msg 123 149 1;
#X msg 155 149 0;
#X obj 123 169 metro 5.80499;
#X obj 123 261 specCentroid~ 1024;
#X obj 162 219 r~ te-sig-in;
#X obj 161 427 list prepend 0;
#X obj 161 451 s centroid-graph;
#X obj 123 342 featureAccum 57 1;
#X obj 123 209 t b b;
#X obj 209 105 f;
#X obj 239 105 + 1;
#X msg 224 78 0;
#X obj 123 85 t b b;
#X obj 209 127 select 56;
#X connect 1 0 14 0;
#X connect 2 0 4 0;
#X connect 3 0 4 0;
#X connect 4 0 10 0;
#X connect 5 0 9 0;
#X connect 6 0 5 0;
#X connect 7 0 8 0;
#X connect 9 0 0 0;
#X connect 9 0 7 0;
#X connect 10 0 5 0;
#X connect 10 1 11 0;
#X connect 11 0 12 0;
#X connect 11 0 15 0;
#X connect 12 0 11 1;
#X connect 13 0 11 1;
#X connect 14 0 2 0;
#X connect 14 1 13 0;
#X connect 15 0 3 0;
#X restore 147 199 pd centroid;
#N canvas 206 49 500 584 flux 0;
#X obj 123 501 outlet;
#X obj 123 43 inlet;
#X msg 123 149 1;
#X msg 155 149 0;
#X obj 123 169 metro 5.80499;
#X obj 123 291 specFlux~ 1024 128;
#X obj 174 227 r~ te-sig-in;
#X obj 161 427 list prepend 0;
#X obj 161 451 s flux-graph;
#X obj 123 372 featureAccum 57 1;
#X obj 123 216 t b b;
#X obj 197 92 f;
#X obj 227 92 + 1;
#X msg 212 65 0;
#X obj 123 92 t b b;
#X obj 197 114 select 56;
#X connect 1 0 14 0;
#X connect 2 0 4 0;
#X connect 3 0 4 0;
#X connect 4 0 10 0;
#X connect 5 0 9 0;
#X connect 6 0 5 0;
#X connect 7 0 8 0;
#X connect 9 0 0 0;
#X connect 9 0 7 0;
#X connect 10 0 5 0;
#X connect 10 1 11 0;
#X connect 11 0 12 0;
#X connect 11 0 15 0;
#X connect 12 0 11 1;
#X connect 13 0 11 1;
#X connect 14 0 2 0;
#X connect 14 1 13 0;
#X connect 15 0 3 0;
#X restore 73 220 pd flux;
#N canvas 206 49 500 584 irreg 0;
#X obj 123 501 outlet;
#X obj 123 43 inlet;
#X msg 123 149 1;
#X msg 155 149 0;
#X obj 123 169 metro 5.80499;
#X obj 123 281 specIrregularity~ 1024;
#X obj 170 223 r~ te-sig-in;
#X obj 123 372 featureAccum 57 1;
#X obj 123 212 t b b;
#X obj 209 108 f;
#X obj 239 108 + 1;
#X msg 224 81 0;
#X obj 123 88 t b b;
#X obj 209 130 select 56;
#X connect 1 0 12 0;
#X connect 2 0 4 0;
#X connect 3 0 4 0;
#X connect 4 0 8 0;
#X connect 5 0 7 0;
#X connect 6 0 5 0;
#X connect 7 0 0 0;
#X connect 8 0 5 0;
#X connect 8 1 9 0;
#X connect 9 0 10 0;
#X connect 9 0 13 0;
#X connect 10 0 9 1;
#X connect 11 0 9 1;
#X connect 12 0 2 0;
#X connect 12 1 11 0;
#X connect 13 0 3 0;
#X restore -1 241 pd irreg;
#N canvas 206 49 500 584 flat 0;
#X obj 123 501 outlet;
#X obj 123 43 inlet;
#X obj 123 301 specFlatness~ 1024;
#X obj 167 230 r~ te-sig-in;
#X obj 123 372 featureAccum 57 1;
#X msg 123 149 1;
#X msg 155 149 0;
#X obj 123 169 metro 5.80499;
#X obj 123 212 t b b;
#X obj 209 108 f;
#X obj 239 108 + 1;
#X msg 224 81 0;
#X obj 123 88 t b b;
#X obj 209 130 select 56;
#X connect 1 0 12 0;
#X connect 2 0 4 0;
#X connect 3 0 2 0;
#X connect 4 0 0 0;
#X connect 5 0 7 0;
#X connect 6 0 7 0;
#X connect 7 0 8 0;
#X connect 8 0 2 0;
#X connect 8 1 9 0;
#X connect 9 0 10 0;
#X connect 9 0 13 0;
#X connect 10 0 9 1;
#X connect 11 0 9 1;
#X connect 12 0 5 0;
#X connect 12 1 11 0;
#X connect 13 0 6 0;
#X restore -75 262 pd flat;
#N canvas 206 49 500 584 bright 0;
#X obj 123 501 outlet;
#X obj 123 43 inlet;
#X msg 123 149 1;
#X msg 155 149 0;
#X obj 123 169 metro 5.80499;
#X obj 123 301 specBrightness~ 1024;
#X obj 173 232 r~ te-sig-in;
#X obj 123 372 featureAccum 57 1;
#X obj 123 212 t b b;
#X obj 209 108 f;
#X obj 239 108 + 1;
#X msg 224 81 0;
#X obj 123 88 t b b;
#X obj 209 130 select 56;
#X connect 1 0 12 0;
#X connect 2 0 4 0;
#X connect 3 0 4 0;
#X connect 4 0 8 0;
#X connect 5 0 7 0;
#X connect 6 0 5 0;
#X connect 7 0 0 0;
#X connect 8 0 5 0;
#X connect 8 1 9 0;
#X connect 9 0 10 0;
#X connect 9 0 13 0;
#X connect 10 0 9 1;
#X connect 11 0 9 1;
#X connect 12 0 2 0;
#X connect 12 1 11 0;
#X connect 13 0 3 0;
#X restore -149 283 pd bright;
#N canvas 206 49 500 584 rolloff 0;
#X obj 123 501 outlet;
#X obj 123 43 inlet;
#X msg 123 149 1;
#X msg 155 149 0;
#X obj 123 169 metro 5.80499;
#X obj 123 291 specRolloff~ 1024;
#X obj 169 231 r~ te-sig-in;
#X obj 123 372 featureAccum 57 1;
#X obj 123 212 t b b;
#X obj 209 108 f;
#X obj 239 108 + 1;
#X msg 224 81 0;
#X obj 123 88 t b b;
#X obj 209 130 select 56;
#X connect 1 0 12 0;
#X connect 2 0 4 0;
#X connect 3 0 4 0;
#X connect 4 0 8 0;
#X connect 5 0 7 0;
#X connect 6 0 5 0;
#X connect 7 0 0 0;
#X connect 8 0 5 0;
#X connect 8 1 9 0;
#X connect 9 0 10 0;
#X connect 9 0 13 0;
#X connect 10 0 9 1;
#X connect 11 0 9 1;
#X connect 12 0 2 0;
#X connect 12 1 11 0;
#X connect 13 0 3 0;
#X restore -228 303 pd rolloff;
#N canvas 206 49 500 584 zerocr 0;
#X obj 123 501 outlet;
#X obj 123 43 inlet;
#X msg 123 149 1;
#X msg 155 149 0;
#X obj 123 169 metro 5.80499;
#X obj 123 271 zeroCrossing~ 1024;
#X obj 170 220 r~ te-sig-in;
#X obj 123 372 featureAccum 57 1;
#X obj 123 212 t b b;
#X obj 209 108 f;
#X obj 239 108 + 1;
#X msg 224 81 0;
#X obj 123 88 t b b;
#X obj 209 130 select 56;
#X connect 1 0 12 0;
#X connect 2 0 4 0;
#X connect 3 0 4 0;
#X connect 4 0 8 0;
#X connect 5 0 7 0;
#X connect 6 0 5 0;
#X connect 7 0 0 0;
#X connect 8 0 5 0;
#X connect 8 1 9 0;
#X connect 9 0 10 0;
#X connect 9 0 13 0;
#X connect 10 0 9 1;
#X connect 11 0 9 1;
#X connect 12 0 2 0;
#X connect 12 1 11 0;
#X connect 13 0 3 0;
#X restore -302 324 pd zerocr;
#X obj -302 427 outlet;
#X obj -284 -88 inlet~;
#X obj -284 -67 s~ te-sig-in;
#N canvas 298 228 543 359 RMS-graph 0;
#N canvas 0 22 450 300 (subpatch) 0;
#X array rms-graph 57 float 0;
#X coords 0 100 56 0 400 280 1;
#X restore 62 -146 graph;
#X restore -197 21 pd RMS-graph;
#N canvas 639 93 543 359 centroid-graph 0;
#N canvas 0 22 450 300 (subpatch) 0;
#X array centroid-graph 57 float 0;
#X coords 0 15000 56 0 400 280 1;
#X restore 62 -146 graph;
#X restore -197 41 pd centroid-graph;
#N canvas 298 228 543 359 flux-graph 0;
#N canvas 0 22 450 300 (subpatch) 0;
#X array flux-graph 57 float 0;
#X coords 0 1 56 0 400 280 1;
#X restore 62 -146 graph;
#X restore -197 61 pd flux-graph;
#X connect 0 0 6 1;
#X connect 1 0 27 0;
#X connect 2 0 1 1;
#X connect 3 0 0 1;
#X connect 4 0 2 1;
#X connect 5 0 4 1;
#X connect 6 0 5 1;
#X connect 7 0 3 1;
#X connect 8 0 7 1;
#X connect 9 0 11 0;
#X connect 10 0 14 0;
#X connect 11 0 8 1;
#X connect 12 0 11 1;
#X connect 13 0 14 1;
#X connect 14 0 12 1;
#X connect 15 0 12 0;
#X connect 16 0 17 0;
#X connect 17 1 26 0;
#X connect 17 2 25 0;
#X connect 17 3 24 0;
#X connect 17 4 23 0;
#X connect 17 5 22 0;
#X connect 17 6 21 0;
#X connect 17 7 20 0;
#X connect 17 8 19 0;
#X connect 17 9 18 0;
#X connect 17 10 9 0;
#X connect 17 11 15 0;
#X connect 17 12 10 0;
#X connect 17 13 13 0;
#X connect 18 0 8 0;
#X connect 19 0 7 0;
#X connect 20 0 3 0;
#X connect 21 0 0 0;
#X connect 22 0 6 0;
#X connect 23 0 5 0;
#X connect 24 0 4 0;
#X connect 25 0 2 0;
#X connect 26 0 1 0;
#X connect 28 0 29 0;
