#N canvas 707 59 592 366 10;
#X obj 24 131 osc~;
#X obj 24 252 *~;
#X obj 24 86 pack f 20;
#X obj 24 107 line~;
#X obj 24 320 throw~ sum;
#X obj 24 54 * \$1;
#X obj 24 1 r fund;
#X obj 193 168 list split;
#X obj 193 89 t l l;
#X obj 260 119 list length;
#X obj 260 140 - 1;
#X obj 193 60 list split \$1;
#X obj 226 215 pack f 20;
#X obj 226 236 line~;
#X obj 84 49 r portamento;
#X obj 286 192 r amp-smoothing;
#X obj 418 133 loadbang;
#X obj 418 154 metro 500;
#X obj 418 175 f \$1;
#X obj 418 220 tabread loudness-curve;
#X obj 418 241 dbtorms;
#X obj 418 262 pack f 40;
#X obj 418 283 line~;
#X obj 418 196 - 1;
#X obj 24 299 *~;
#X obj 24 22 mtof;
#X obj 193 35 r barkSpec;
#X connect 0 0 1 0;
#X connect 1 0 24 0;
#X connect 2 0 3 0;
#X connect 3 0 0 0;
#X connect 5 0 2 0;
#X connect 6 0 25 0;
#X connect 7 1 12 0;
#X connect 8 0 7 0;
#X connect 8 1 9 0;
#X connect 9 0 10 0;
#X connect 10 0 7 1;
#X connect 11 0 8 0;
#X connect 12 0 13 0;
#X connect 13 0 1 1;
#X connect 14 0 2 1;
#X connect 15 0 12 1;
#X connect 16 0 17 0;
#X connect 17 0 18 0;
#X connect 18 0 23 0;
#X connect 19 0 20 0;
#X connect 20 0 21 0;
#X connect 21 0 22 0;
#X connect 22 0 24 1;
#X connect 23 0 19 0;
#X connect 24 0 4 0;
#X connect 25 0 5 0;
#X connect 26 0 11 0;
