#N canvas -1351 -48 464 476 10;
#X declare -lib Gem;
#X declare -path ./abstractions;
#X declare -lib zexy;
#X declare -lib zexy;
#X declare -lib zexy;
#N canvas 1036 148 450 300 init 0;
#X obj 7 26 loadbang;
#X msg 7 107 0;
#X obj 7 77 del 1000;
#X msg 7 140 \; pd dsp \$1;
#X msg 39 107 1;
#X text 6 182 who knows why \, but without this the subprocess doesn't
start;
#X obj 226 40 declare -lib Gem;
#X obj 226 18 declare -path ./abstractions;
#X obj 149 86 s lb1;
#X obj 7 53 t b b b b;
#X obj 101 144 s \$0-render-points;
#X msg 101 118 0;
#X connect 0 0 9 0;
#X connect 1 0 3 0;
#X connect 2 0 1 0;
#X connect 4 0 3 0;
#X connect 9 0 2 0;
#X connect 9 1 4 0;
#X connect 9 2 11 0;
#X connect 9 3 8 0;
#X connect 11 0 10 0;
#X restore 33 70 pd init;
#N canvas 449 182 572 212 lighting 0;
#X obj 30 124 world_light;
#X obj 30 69 gemhead 45;
#X obj 30 17 r render-light;
#X obj 134 125 world_light;
#X obj 134 70 gemhead 45;
#X obj 134 18 r render-light;
#X obj 134 98 rotateXYZ 45 160 0;
#X obj 260 125 world_light;
#X obj 260 53 gemhead 45;
#X obj 260 18 r render-light;
#X obj 260 98 rotateXYZ 0 220 0;
#X connect 1 0 0 0;
#X connect 2 0 1 0;
#X connect 4 0 6 0;
#X connect 5 0 4 0;
#X connect 6 0 3 0;
#X connect 8 0 10 0;
#X connect 9 0 8 0;
#X connect 10 0 7 0;
#X restore 34 200 pd lighting;
#N canvas 657 91 568 598 kinect 0;
#X obj 21 419 mrpeach/udpreceive 12345;
#X obj 21 440 mrpeach/unpackOSC;
#X obj 21 462 mrpeach/pipelist;
#X obj 23 370 mrpeach/udpsend;
#X msg 50 322 connect localhost 12346;
#X obj 23 393 tgl 15 0 empty empty empty 17 7 0 10 -262144 -1 -1 0
1;
#X obj 23 292 mrpeach/packOSC;
#X obj 23 191 tgl 15 0 empty empty empty 17 7 0 10 -262144 -1 -1 0
1;
#X obj 23 210 metro 2000;
#X msg 69 344 disconnect;
#X obj 23 134 r kinect-on;
#X obj 23 163 t f f;
#X obj 50 189 sel 1 0;
#X text 20 9 Make sure Kinect is connected an powered. Start Synapse
first then activate it in the main window by klicking the Kinect via
Synapse switch http://synapsekinect.tumblr.com/;
#X obj 23 231 t b b;
#X msg 40 253 /lefthand_trackjointpos 2;
#X msg 22 273 /head_trackjointpos 2;
#X obj 247 519 s \$0-head;
#X msg 138 216 set /righthand_trackjointpos 2;
#X obj 138 83 r lefthand;
#X obj 138 110 sel 0 1;
#X obj 21 483 mrpeach/routeOSC /righthand_pos_world /lefthand_pos_world
/head_pos_world;
#X msg 157 189 set /lefthand_trackjointpos 2;
#X msg 172 137 -5;
#X msg 205 136 5;
#X obj 172 162 s \$0-handoffset;
#X obj 21 520 s \$0-hand;
#X text 210 427 receive from synapse;
#X text 219 261 request data from synapse (needs to be requested continuously
to stay alive);
#X text 213 82 switch for lefthanders;
#X text 22 542 see hand subpatch;
#X text 247 541 see gemwin subpatch;
#X text 43 392 indicate successful connection;
#X connect 0 0 1 0;
#X connect 1 0 2 0;
#X connect 2 0 21 0;
#X connect 3 0 5 0;
#X connect 4 0 3 0;
#X connect 6 0 3 0;
#X connect 7 0 8 0;
#X connect 8 0 14 0;
#X connect 9 0 3 0;
#X connect 10 0 11 0;
#X connect 11 0 7 0;
#X connect 11 1 12 0;
#X connect 12 0 4 0;
#X connect 12 1 9 0;
#X connect 14 0 16 0;
#X connect 14 1 15 0;
#X connect 15 0 6 0;
#X connect 16 0 6 0;
#X connect 18 0 15 0;
#X connect 19 0 20 0;
#X connect 20 0 18 0;
#X connect 20 0 23 0;
#X connect 20 1 22 0;
#X connect 20 1 24 0;
#X connect 21 0 26 0;
#X connect 21 1 26 0;
#X connect 21 2 17 0;
#X connect 22 0 15 0;
#X connect 23 0 25 0;
#X connect 24 0 25 0;
#X restore 33 159 pd kinect;
#N canvas 639 301 749 668 zooming 0;
#X obj 42 286 f;
#X obj 42 308 change;
#X obj 57 263 r zoom-control-x-range;
#X obj 42 333 t b f;
#X obj 42 394 s render-plot;
#X obj 262 286 f;
#X obj 262 308 change;
#X obj 262 333 t b f;
#X obj 262 394 s render-plot;
#X obj 277 263 r zoom-control-y-range;
#X obj 42 486 f;
#X obj 42 508 change;
#X obj 42 533 t b f;
#X obj 42 594 s render-plot;
#X obj 262 486 f;
#X obj 262 508 change;
#X obj 262 533 t b f;
#X obj 262 594 s render-plot;
#X obj 57 463 r zoom-control-x-offset;
#X obj 277 463 r zoom-control-y-offset;
#X obj 39 64 r lb1;
#X obj 39 92 metro 33.333;
#X obj 482 286 f;
#X obj 482 308 change;
#X obj 482 333 t b f;
#X obj 482 394 s render-plot;
#X obj 482 486 f;
#X obj 482 508 change;
#X obj 482 533 t b f;
#X obj 482 594 s render-plot;
#X obj 497 263 r zoom-control-z-range;
#X obj 497 463 r zoom-control-z-offset;
#X obj 289 363 s \$0-y-range;
#X obj 509 363 s \$0-z-range;
#X obj 69 363 s \$0-x-range;
#X obj 69 563 s \$0-x-offset;
#X obj 289 563 s \$0-y-offset;
#X obj 509 563 s \$0-z-offset;
#X obj 39 113 s \$0-zoom-control-update;
#X obj 42 242 r \$0-zoom-control-update;
#X obj 262 242 r \$0-zoom-control-update;
#X obj 482 242 r \$0-zoom-control-update;
#X obj 482 438 r \$0-zoom-control-update;
#X obj 262 438 r \$0-zoom-control-update;
#X obj 42 438 r \$0-zoom-control-update;
#X connect 0 0 1 0;
#X connect 1 0 3 0;
#X connect 2 0 0 1;
#X connect 3 0 4 0;
#X connect 3 1 34 0;
#X connect 5 0 6 0;
#X connect 6 0 7 0;
#X connect 7 0 8 0;
#X connect 7 1 32 0;
#X connect 9 0 5 1;
#X connect 10 0 11 0;
#X connect 11 0 12 0;
#X connect 12 0 13 0;
#X connect 12 1 35 0;
#X connect 14 0 15 0;
#X connect 15 0 16 0;
#X connect 16 0 17 0;
#X connect 16 1 36 0;
#X connect 18 0 10 1;
#X connect 19 0 14 1;
#X connect 20 0 21 0;
#X connect 21 0 38 0;
#X connect 22 0 23 0;
#X connect 23 0 24 0;
#X connect 24 0 25 0;
#X connect 24 1 33 0;
#X connect 26 0 27 0;
#X connect 27 0 28 0;
#X connect 28 0 29 0;
#X connect 28 1 37 0;
#X connect 30 0 22 1;
#X connect 31 0 26 1;
#X connect 39 0 0 0;
#X connect 40 0 5 0;
#X connect 41 0 22 0;
#X connect 42 0 26 0;
#X connect 43 0 14 0;
#X connect 44 0 10 0;
#X restore 34 221 pd zooming;
#N canvas 333 357 214 181 cartesian 0;
#X obj 20 17 gemhead;
#X obj 20 59 translateXYZ 4 -4 4;
#X obj 20 80 scaleXYZ 2 2 2;
#X obj 20 101 cartesianspace;
#X obj 20 37 rotateXYZ 0 45 0;
#X obj 97 13 r \$0-angle;
#X connect 0 0 4 0;
#X connect 1 0 2 0;
#X connect 2 0 3 0;
#X connect 4 0 1 0;
#X connect 5 0 4 2;
#X restore 34 242 pd cartesian;
#N canvas 0 114 686 259 sends 0;
#X obj 28 222 stdout;
#X obj 27 50 r \$0-tID;
#X obj 27 74 list prepend tID;
#X obj 134 50 r \$0-trig-sound;
#X obj 134 74 list prepend trig-sound;
#X obj 28 196 list trim;
#X obj 281 49 r \$0-x-range;
#X obj 281 73 list prepend x-range;
#X obj 412 49 r \$0-y-range;
#X obj 412 73 list prepend y-range;
#X obj 544 51 r \$0-z-range;
#X obj 544 75 list prepend z-range;
#X obj 185 180 r \$0-framerate-set;
#X obj 185 204 list prepend framerate-set;
#X text 23 13 this contains the local sends that transmit to the main
Pd instance;
#X connect 1 0 2 0;
#X connect 2 0 5 0;
#X connect 3 0 4 0;
#X connect 4 0 5 0;
#X connect 5 0 0 0;
#X connect 6 0 7 0;
#X connect 7 0 5 0;
#X connect 8 0 9 0;
#X connect 9 0 5 0;
#X connect 10 0 11 0;
#X connect 11 0 5 0;
#X connect 12 0 13 0;
#X connect 13 0 5 0;
#X restore 33 91 pd sends;
#X obj 2 -6 cnv 10 10 400 empty empty empty 20 12 0 14 -233017 -66577
0;
#X obj 12 -6 cnv 10 400 10 empty empty empty 20 12 0 14 -233017 -66577
0;
#X text 29 29 this file gets opened by timbre-space-kinect-pdtilde.pd
it is the subprocess to run the plot of grains with Gem;
#N canvas 539 90 811 446 load_tID_data_into_tables 0;
#X msg 31 250 feature_list \$1;
#X obj 31 274 s \$0-tID;
#X obj 31 40 inlet;
#X obj 31 132 until;
#X obj 60 175 + 1;
#X msg 69 132 0;
#X obj 31 87 f;
#X obj 31 175 f;
#X obj 46 64 r num-frames-total;
#X text 28 17 retrieve data from tID;
#X obj 474 35 r coord-RGB;
#X obj 222 256 tabwrite coord-x;
#X obj 256 231 tabwrite coord-y;
#X obj 291 209 tabwrite coord-z;
#X floatatom 58 88 5 0 0 0 - - -;
#X floatatom 49 220 5 0 0 0 - - -;
#X obj 474 112 unpack f f f;
#X obj 253 107 f;
#X obj 282 107 + 1;
#X obj 96 175 s \$0-countreset;
#X obj 31 108 t f b;
#X obj 69 152 t f f;
#X obj 268 85 r \$0-countreset;
#X obj 474 178 tabwrite red;
#X obj 579 96 f;
#X obj 608 96 + 1;
#X obj 594 75 r \$0-countreset;
#X obj 508 157 tabwrite green;
#X obj 474 56 t a b;
#X obj 543 136 tabwrite blue;
#X obj 579 115 t f f f;
#X text 221 15 store it into tables;
#N canvas 147 145 1069 306 coord-x 0;
#N canvas 0 22 450 278 (subpatch) 0;
#X array coord-x 10000 float 2;
#X coords 0 4 10000 -4 1000 200 1 0 0;
#X restore 22 41 graph;
#X restore 326 255 pd coord-x;
#N canvas 310 75 1036 255 coord-y 0;
#N canvas 0 22 450 278 (subpatch) 0;
#X array coord-y 10000 float 2;
#X coords 0 4 10000 -4 1000 200 1 0 0;
#X restore -2 28 graph;
#X restore 359 231 pd coord-y;
#N canvas 31 72 1057 250 coord-z 0;
#N canvas 0 22 450 278 (subpatch) 0;
#X array coord-z 10000 float 2;
#X coords 0 4 10000 -4 1000 200 1 0 0;
#X restore 17 22 graph;
#X restore 394 208 pd coord-z;
#N canvas 0 22 1064 261 red 0;
#N canvas 0 22 450 278 (subpatch) 0;
#X array red 10000 float 2;
#X coords 0 0 10000 1 1000 200 1 0 0;
#X restore 11 26 graph;
#X restore 554 178 pd red;
#N canvas 330 130 1045 270 green 0;
#N canvas 0 22 450 278 (subpatch) 0;
#X array green 10000 float 2;
#X coords 0 0 10000 1 1000 200 1 0 0;
#X restore 19 34 graph;
#X restore 600 157 pd green;
#N canvas 0 62 1054 270 blue 0;
#N canvas 0 22 450 278 (subpatch) 0;
#X array blue 10000 float 2;
#X coords 0 0 10000 1 1000 200 1 0 0;
#X restore 27 34 graph;
#X restore 629 136 pd blue;
#X obj 222 37 r coord-XYZ;
#X obj 222 83 t a b;
#X obj 222 173 unpack f f f;
#X obj 258 139 t f f f;
#X connect 0 0 1 0;
#X connect 2 0 6 0;
#X connect 3 0 7 0;
#X connect 4 0 7 1;
#X connect 5 0 21 0;
#X connect 6 0 20 0;
#X connect 7 0 4 0;
#X connect 7 0 0 0;
#X connect 8 0 6 1;
#X connect 8 0 14 0;
#X connect 10 0 28 0;
#X connect 15 0 0 0;
#X connect 16 0 23 0;
#X connect 16 1 27 0;
#X connect 16 2 29 0;
#X connect 17 0 18 0;
#X connect 17 0 41 0;
#X connect 18 0 17 1;
#X connect 20 0 3 0;
#X connect 20 1 5 0;
#X connect 21 0 7 1;
#X connect 21 1 19 0;
#X connect 22 0 17 1;
#X connect 24 0 25 0;
#X connect 24 0 30 0;
#X connect 25 0 24 1;
#X connect 26 0 24 1;
#X connect 28 0 16 0;
#X connect 28 1 24 0;
#X connect 30 0 23 1;
#X connect 30 1 27 1;
#X connect 30 2 29 1;
#X connect 38 0 39 0;
#X connect 39 0 40 0;
#X connect 39 1 17 0;
#X connect 40 0 11 0;
#X connect 40 1 12 0;
#X connect 40 2 13 0;
#X connect 41 0 11 1;
#X connect 41 1 12 1;
#X connect 41 2 13 1;
#X restore 35 295 pd load_tID_data_into_tables;
#X obj 35 274 r render-plot;
#N canvas 847 110 748 825 gemwin 1;
#X obj 439 357 r \$0-gemwin-settings;
#X obj 440 108 s \$0-gemwin-settings;
#X obj 440 59 tgl 15 0 empty empty empty 17 7 0 10 -262144 -1 -1 0
1;
#X msg 440 87 fullscreen \$1;
#X obj 440 192 s \$0-gemwin-settings;
#X obj 440 152 tgl 15 0 empty empty empty 17 7 0 10 -262144 -1 -1 0
1;
#X msg 440 171 border \$1;
#X obj 63 102 s \$0-gemwin-settings;
#X obj 439 258 s \$0-gemwin-settings;
#X msg 439 236 print;
#X msg 29 191 create \, 1;
#X obj 439 607 gemwin;
#X obj 439 380 t a a;
#X obj 466 403 route create destroy;
#X obj 466 425 t b;
#X msg 466 447 1;
#X msg 524 447 0;
#X msg 466 500 set \$1;
#X obj 466 522 s render-on-set;
#X obj 524 425 t b b;
#X obj 29 277 s \$0-gemwin-settings;
#X msg 551 469 \; kinect-on-set 0 \;;
#X obj 13 395 unpack f f f;
#X obj 13 488 / 40;
#X obj 47 488 / 40;
#X obj 82 488 / 60;
#X obj 13 590 pack f f f;
#X obj 14 694 r lb1;
#X msg 477 59 2;
#X msg 47 245 0 \, destroy;
#X obj 47 514 - 5;
#X obj 13 330 r \$0-head;
#X text 92 736 default: -1 1 -1 1 1 20;
#X msg 14 721 view 0 0 20 \, perspec -1 1 -1 1 1.1 50;
#X msg 466 573 frame \$1;
#X obj 82 461 smooth 0.3;
#X obj 47 440 smooth 0.3;
#X obj 13 419 smooth 0.3;
#X obj 12 15 loadbang;
#X obj 172 462 r headdistance;
#X obj 47 223 closebang;
#X obj 12 36 t b b b b;
#X obj 14 761 s \$0-gemwin-settings;
#X obj 12 306 s lb1;
#X obj 13 638 s \$0-gemwin-settings;
#X obj 466 552 r framerate;
#X obj 46 159 s \$0-framerate-set;
#X msg 46 136 25;
#N canvas 1120 156 311 529 mousemove 0;
#X obj 120 2 gemmouse;
#X obj 120 73 pack;
#X obj 120 95 spigot;
#X obj 120 116 unpack;
#X obj 120 241 t f f;
#X obj 17 3 gemkeyname;
#X obj 17 51 route 1;
#X obj 120 218 +;
#X obj 120 266 * -1;
#X obj 177 282 t f f;
#X obj 177 219 +;
#X obj 177 307 * -1;
#X obj 17 134 t f f f;
#X text 42 111 reset;
#N canvas 1072 230 231 337 coordinates 0;
#X obj 21 51 inlet;
#X obj 21 309 outlet;
#X obj 148 53 atan;
#X msg 148 32 1;
#X obj 148 75 / 45;
#X obj 148 11 loadbang;
#X text 22 28 r phi theta;
#X obj 73 120 *;
#X obj 127 119 *;
#X obj 73 169 cos;
#X obj 100 169 sin;
#X obj 73 144 t f f;
#X obj 127 169 cos;
#X obj 154 170 sin;
#X obj 127 144 t f f;
#X obj 73 196 *;
#X obj 100 196 *;
#X obj 21 242 *;
#X obj 49 242 *;
#X obj 78 242 *;
#X obj 21 196 t f f f;
#X obj 21 286 pack f f f;
#X obj 21 77 unpack f f f;
#X connect 0 0 22 0;
#X connect 2 0 4 0;
#X connect 3 0 2 0;
#X connect 4 0 8 1;
#X connect 4 0 7 1;
#X connect 5 0 3 0;
#X connect 7 0 11 0;
#X connect 8 0 14 0;
#X connect 9 0 15 0;
#X connect 10 0 16 0;
#X connect 11 0 9 0;
#X connect 11 1 10 0;
#X connect 12 0 15 1;
#X connect 12 0 16 1;
#X connect 13 0 19 1;
#X connect 14 0 12 0;
#X connect 14 1 13 0;
#X connect 15 0 17 1;
#X connect 16 0 18 1;
#X connect 17 0 21 0;
#X connect 18 0 21 1;
#X connect 19 0 21 2;
#X connect 20 0 17 0;
#X connect 20 1 18 0;
#X connect 20 2 19 0;
#X connect 21 0 1 0;
#X connect 22 0 20 0;
#X connect 22 1 7 0;
#X connect 22 2 8 0;
#X restore 120 431 pd coordinates;
#X obj 120 294 t b f;
#X obj 161 31 t f f;
#X obj 161 52 -;
#X obj 120 30 t f f;
#X obj 120 51 -;
#X obj 177 136 * 0.5;
#X obj 120 138 * 0.5;
#X obj 177 254 clip -90 90;
#X obj 120 476 s \$0-gemwin-settings;
#X msg 120 453 view \$2 \$3 \$1 0 0 0 0 1 0;
#X msg 17 112 0;
#X obj 21 217 r headdistance;
#X obj 21 322 + 2;
#X obj 21 299 * 26;
#X obj 120 410 pack f f f;
#X obj 120 388 f 2;
#X obj 17 26 pack f s;
#X obj 17 75 route r;
#X obj 30 237 r kinect-on;
#X obj 21 278 spigot 1;
#X obj 30 257 == 0;
#X connect 0 0 18 0;
#X connect 0 1 16 0;
#X connect 0 2 2 1;
#X connect 1 0 2 0;
#X connect 2 0 3 0;
#X connect 3 0 21 0;
#X connect 3 1 20 0;
#X connect 4 0 8 0;
#X connect 4 1 7 1;
#X connect 5 0 31 0;
#X connect 5 1 31 1;
#X connect 6 0 32 0;
#X connect 7 0 4 0;
#X connect 8 0 15 0;
#X connect 9 0 11 0;
#X connect 9 1 10 1;
#X connect 10 0 22 0;
#X connect 11 0 29 2;
#X connect 12 0 7 0;
#X connect 12 1 7 1;
#X connect 12 1 10 0;
#X connect 12 2 10 1;
#X connect 14 0 24 0;
#X connect 15 0 30 0;
#X connect 15 1 29 1;
#X connect 16 0 17 1;
#X connect 16 1 17 0;
#X connect 17 0 1 1;
#X connect 18 0 19 1;
#X connect 18 1 19 0;
#X connect 19 0 1 0;
#X connect 20 0 10 0;
#X connect 21 0 7 0;
#X connect 22 0 9 0;
#X connect 24 0 23 0;
#X connect 25 0 12 0;
#X connect 26 0 34 0;
#X connect 27 0 30 0;
#X connect 28 0 27 0;
#X connect 29 0 14 0;
#X connect 30 0 29 0;
#X connect 31 0 6 0;
#X connect 32 0 25 0;
#X connect 33 0 35 0;
#X connect 34 0 28 0;
#X connect 35 0 34 1;
#X restore 439 12 pd mousemove;
#X text 525 14 press r to reset viewport;
#X msg 269 742 view -13.5598 5.68031 13.5598 0 0 0 0 1 0 \, perspec
-1 1 -1 1 1.1 50;
#X msg 166 585 view -13 -1 13 45 0;
#X obj 81 548 + 13;
#X obj 172 484 * 30;
#X obj 172 505 - 15;
#X msg 13 615 view \$1 \$2 \$3;
#X obj 46 351 r kinect-on;
#X obj 13 375 spigot;
#X msg 63 66 reset \, title timbreSpace \, offset 600 0 \, lighting
1 \, dimen 800 600 \, color 0 0 0 \, FSAA 4;
#X connect 0 0 12 0;
#X connect 2 0 3 0;
#X connect 3 0 1 0;
#X connect 5 0 6 0;
#X connect 6 0 4 0;
#X connect 9 0 8 0;
#X connect 10 0 20 0;
#X connect 12 0 11 0;
#X connect 12 1 13 0;
#X connect 13 0 14 0;
#X connect 13 1 19 0;
#X connect 14 0 15 0;
#X connect 15 0 17 0;
#X connect 16 0 17 0;
#X connect 17 0 18 0;
#X connect 19 0 16 0;
#X connect 19 1 21 0;
#X connect 22 0 37 0;
#X connect 22 1 36 0;
#X connect 22 2 35 0;
#X connect 23 0 26 0;
#X connect 24 0 30 0;
#X connect 25 0 52 0;
#X connect 26 0 55 0;
#X connect 27 0 50 0;
#X connect 28 0 3 0;
#X connect 29 0 20 0;
#X connect 30 0 26 1;
#X connect 31 0 57 0;
#X connect 33 0 42 0;
#X connect 34 0 11 0;
#X connect 35 0 25 0;
#X connect 36 0 24 0;
#X connect 37 0 23 0;
#X connect 38 0 41 0;
#X connect 39 0 53 0;
#X connect 40 0 29 0;
#X connect 41 0 43 0;
#X connect 41 1 10 0;
#X connect 41 2 47 0;
#X connect 41 3 58 0;
#X connect 45 0 34 0;
#X connect 47 0 46 0;
#X connect 50 0 42 0;
#X connect 51 0 44 0;
#X connect 52 0 26 2;
#X connect 53 0 54 0;
#X connect 54 0 52 1;
#X connect 55 0 44 0;
#X connect 56 0 57 1;
#X connect 57 0 22 0;
#X connect 58 0 7 0;
#X restore 33 138 pd gemwin;
#N canvas 1154 498 395 457 OSD 0;
#X obj 30 21 gemhead -50;
#X obj 30 385 text3d drag to change viewport;
#X obj 256 313 loadbang;
#X msg 53 341 font vera.ttf \, justify left base;
#X msg 256 341 4.32;
#X obj 167 75 r num-frames-total;
#X obj 30 195 color 1 1 1;
#X obj 167 95 t f f;
#X msg 51 173 1 1 1;
#X msg 93 172 1 0 0;
#X obj 52 126 > 10000;
#X obj 51 150 sel 0 1;
#X obj 210 181 r framerate;
#X obj 210 205 t b f;
#X obj 30 53 translateXYZ -5.7 -4.26 -1;
#X msg 284 204 \$1;
#X obj 193 256 pack f f f;
#X msg 73 291 text fps: \$2 Units: \$1 frame#: \$3;
#X obj 284 228 t b f;
#X obj 284 180 r \$0-trig-sound;
#X connect 0 0 14 0;
#X connect 2 0 3 0;
#X connect 2 0 4 0;
#X connect 3 0 1 0;
#X connect 4 0 1 1;
#X connect 5 0 7 0;
#X connect 6 0 1 0;
#X connect 7 0 10 0;
#X connect 7 1 16 0;
#X connect 8 0 6 1;
#X connect 9 0 6 1;
#X connect 10 0 11 0;
#X connect 11 0 8 0;
#X connect 11 1 9 0;
#X connect 12 0 13 0;
#X connect 13 0 16 0;
#X connect 13 1 16 1;
#X connect 14 0 6 0;
#X connect 15 0 18 0;
#X connect 16 0 17 0;
#X connect 17 0 1 0;
#X connect 18 0 16 0;
#X connect 18 1 16 2;
#X connect 19 0 15 0;
#X restore 32 114 pd OSD;
#X obj 38 413 s \$0-angle;
#X msg 38 356 45;
#X msg 56 382 0;
#N canvas 700 32 352 643 hand 0;
#X obj 24 354 translateXYZ;
#X obj 61 482 r mouse-radius;
#X obj 24 34 gemhead 70;
#X obj 24 381 alpha;
#N canvas 797 577 348 377 coord-nearest 0;
#X obj 31 124 inlet;
#X obj 89 126 inlet;
#X obj 16 65 metro 33.33;
#X obj 73 176 f;
#X obj 17 177 f;
#X obj 17 221 pack f f f;
#X obj 144 126 inlet;
#X obj 128 176 f;
#X obj 17 85 t b b b;
#X obj 17 244 s \$0-coord-nearest;
#X obj 16 47 tgl 15 0 empty empty empty 17 7 0 10 -262144 -1 -1 1 1
;
#X obj 16 26 loadbang;
#X floatatom 82 41 5 0 0 0 - - -;
#X msg 106 14 33.33;
#X connect 0 0 4 1;
#X connect 1 0 3 1;
#X connect 2 0 8 0;
#X connect 3 0 5 1;
#X connect 4 0 5 0;
#X connect 5 0 9 0;
#X connect 6 0 7 1;
#X connect 7 0 5 2;
#X connect 8 0 4 0;
#X connect 8 1 3 0;
#X connect 8 2 7 0;
#X connect 10 0 2 0;
#X connect 11 0 10 0;
#X connect 12 0 2 1;
#X connect 13 0 12 0;
#X restore 105 354 pd coord-nearest;
#X obj 61 429 r point-size;
#X obj 24 505 sphere 0.1 20;
#X obj 24 406 color 1 1 1 0.5;
#X obj 81 91 r kinect-on;
#X obj 24 579 light;
#X msg 51 558 0.8 0.8 0.8;
#X obj 51 536 r lb1;
#X obj 24 454 sphere 0.1 10;
#X obj 47 68 r \$0-hand;
#X text 130 579 shines light on the units;
#X text 135 505 outer halo (trigger area);
#X text 135 455 point (center of trigger area);
#N canvas 0 22 577 419 bars-on-grid 0;
#X obj 59 41 inlet;
#X obj 262 43 inlet;
#X obj 482 43 inlet;
#X obj 20 -44 gemhead;
#X obj 20 176 translateXYZ 0 -1 -6;
#X obj 20 196 color 1 0 0.5;
#X obj 21 286 rotateXYZ 90 0 0;
#X obj 20 263 color 0 0.5 1;
#X obj 20 238 translateXYZ 0 -6 6;
#X obj 21 309 rectangle 0.04 6;
#X obj 20 216 rectangle 0.04 6;
#X obj 20 -24 rotateXYZ 0 45 0;
#X obj 82 -44 r \$0-angle;
#X obj 59 155 clip -6 6;
#X obj 187 -43 gemhead;
#X obj 186 277 rotateXYZ 90 90 0;
#X obj 187 210 color 1 0 0.5;
#X obj 186 254 translateXYZ 6 0 6;
#X obj 187 188 translateXYZ 0 0 -6;
#X obj 186 317 rectangle 0.04 6;
#X obj 186 230 rectangle 6 0.04;
#X obj 187 -18 rotateXYZ 0 45 0;
#X obj 249 -43 r \$0-angle;
#X obj 186 297 color 0.5 1 0;
#X obj 262 166 clip -7 5;
#X obj 371 -40 gemhead;
#X obj 371 213 color 0 0.5 1;
#X obj 371 191 translateXYZ 0 -7 0;
#X obj 371 233 rectangle 6 0.04;
#X obj 371 -16 rotateXYZ 0 45 0;
#X obj 433 -42 r \$0-angle;
#X obj 371 302 color 0.5 1 0;
#X obj 371 281 rotateXYZ 90 90 0;
#X obj 371 324 rectangle 6 0.04;
#X obj 371 258 translateXYZ 6 6 0;
#X obj 482 168 clip -6 6;
#X connect 0 0 13 0;
#X connect 1 0 24 0;
#X connect 2 0 35 0;
#X connect 3 0 11 0;
#X connect 4 0 5 0;
#X connect 5 0 10 0;
#X connect 6 0 9 0;
#X connect 7 0 6 0;
#X connect 8 0 7 0;
#X connect 10 0 8 0;
#X connect 11 0 4 0;
#X connect 12 0 11 2;
#X connect 13 0 4 1;
#X connect 14 0 21 0;
#X connect 15 0 23 0;
#X connect 16 0 20 0;
#X connect 17 0 15 0;
#X connect 18 0 16 0;
#X connect 20 0 17 0;
#X connect 21 0 18 0;
#X connect 22 0 21 2;
#X connect 23 0 19 0;
#X connect 24 0 18 2;
#X connect 25 0 29 0;
#X connect 26 0 28 0;
#X connect 27 0 26 0;
#X connect 28 0 34 0;
#X connect 29 0 27 0;
#X connect 30 0 29 2;
#X connect 31 0 33 0;
#X connect 32 0 31 0;
#X connect 34 0 32 0;
#X connect 35 0 27 3;
#X restore 218 354 pd bars-on-grid;
#X obj 47 279 t f f f;
#X obj 99 280 t f f f;
#X obj 152 280 t f f f;
#X obj 201 70 r manualmode;
#X obj 201 137 unpack f f f;
#N canvas 112 377 439 576 rotation 0;
#X obj 235 65 inlet;
#X obj 281 65 inlet;
#X obj 329 65 inlet;
#X obj 177 400 outlet;
#X obj 225 400 outlet;
#X obj 273 400 outlet;
#X floatatom 101 172 5 0 0 0 - - -;
#X floatatom 135 172 5 0 0 0 - - -;
#X floatatom 169 172 5 0 0 0 - - -;
#X obj 77 264 gemlist_info;
#X floatatom 153 348 5 0 0 0 - - -;
#X floatatom 186 348 5 0 0 0 - - -;
#X floatatom 220 348 5 0 0 0 - - -;
#X obj 146 315 unpack f f f;
#X text 152 300 position;
#X floatatom 100 63 5 0 0 0 - - -;
#X floatatom 134 63 5 0 0 0 - - -;
#X floatatom 171 63 5 0 0 0 - - -;
#X obj 84 104 rotateXYZ;
#X floatatom 255 119 5 0 0 0 - - -;
#X obj 76 8 gemhead;
#X floatatom 125 13 5 0 0 0 - - -;
#X floatatom 159 13 5 0 0 0 - - -;
#X floatatom 196 13 5 0 0 0 - - -;
#X obj 85 223 rotateXYZ;
#X floatatom 296 119 5 0 0 0 - - -;
#X floatatom 339 119 5 0 0 0 - - -;
#X obj 77 147 translateXYZ 0 0 0;
#X obj 208 280 print newpos;
#X text 247 185 0 -2.38419e-07 -13.0551;
#X obj 76 35 translateXYZ 0 2.38419e-07 13.0551;
#X text 87 451 ???????????;
#X connect 0 0 19 0;
#X connect 0 0 27 1;
#X connect 1 0 25 0;
#X connect 1 0 27 2;
#X connect 2 0 26 0;
#X connect 2 0 27 3;
#X connect 6 0 24 1;
#X connect 7 0 24 2;
#X connect 8 0 24 3;
#X connect 9 4 13 0;
#X connect 13 0 10 0;
#X connect 13 0 3 0;
#X connect 13 1 11 0;
#X connect 13 1 4 0;
#X connect 13 2 12 0;
#X connect 13 2 5 0;
#X connect 15 0 18 1;
#X connect 16 0 18 2;
#X connect 17 0 18 3;
#X connect 20 0 30 0;
#X connect 21 0 30 1;
#X connect 22 0 30 2;
#X connect 23 0 30 3;
#X connect 27 0 9 0;
#X connect 30 0 27 0;
#X restore 264 245 pd rotation;
#X text 268 228 unfinished!;
#X obj 47 112 spigot;
#N canvas 1088 93 372 439 smoothing_and_offset 0;
#X obj 10 19 inlet;
#X obj 10 49 unpack f f f;
#X obj 11 254 outlet;
#X obj 135 258 outlet;
#X obj 206 258 outlet;
#X obj 134 99 smooth 0.4;
#X obj 10 94 smooth 0.4;
#X obj 205 98 smooth 0.4;
#X obj 10 124 / 40;
#X obj 134 129 / 40;
#X obj 206 229 - 16;
#X obj 135 232 + 3;
#X obj 11 226 + -5;
#X obj 205 125 / 40;
#X obj 227 201 r handdistance;
#X obj 32 198 r \$0-handoffset;
#X connect 0 0 1 0;
#X connect 1 0 6 0;
#X connect 1 1 5 0;
#X connect 1 2 7 0;
#X connect 5 0 9 0;
#X connect 6 0 8 0;
#X connect 7 0 13 0;
#X connect 8 0 12 0;
#X connect 9 0 11 0;
#X connect 10 0 4 0;
#X connect 11 0 3 0;
#X connect 12 0 2 0;
#X connect 13 0 10 0;
#X connect 14 0 10 1;
#X connect 15 0 12 1;
#X restore 47 137 pd smoothing_and_offset;
#X connect 0 0 3 0;
#X connect 1 0 6 1;
#X connect 2 0 0 0;
#X connect 3 0 7 0;
#X connect 5 0 12 1;
#X connect 6 0 9 0;
#X connect 7 0 12 0;
#X connect 8 0 25 1;
#X connect 10 0 9 1;
#X connect 11 0 10 0;
#X connect 12 0 6 0;
#X connect 13 0 25 0;
#X connect 18 0 0 1;
#X connect 18 1 4 0;
#X connect 18 2 17 0;
#X connect 19 0 0 2;
#X connect 19 1 4 1;
#X connect 19 2 17 1;
#X connect 20 0 0 3;
#X connect 20 1 4 2;
#X connect 20 2 17 2;
#X connect 21 0 22 0;
#X connect 22 0 18 0;
#X connect 22 1 19 0;
#X connect 22 2 20 0;
#X connect 25 0 26 0;
#X connect 26 0 18 0;
#X connect 26 1 19 0;
#X connect 26 2 20 0;
#X restore 33 180 pd hand;
#X obj 83 352 loadbang;
#X text 92 387 45° looks nicer \, but doesn't work correctly;
#X text 5 -10 DON't close me here!;
#X text 129 -10 Use the toggle GEM-render in the main patch instead.
;
#N canvas 0 22 239 612 cloud-rendering 0;
#X obj 23 410 gemlist;
#X obj 23 431 separator;
#N canvas 0 22 351 253 coords 0;
#X obj 21 207 outlet;
#X obj 122 203 outlet;
#X obj 219 200 outlet;
#X obj 21 26 r \$0-index;
#X obj 21 178 tabread coord-x;
#X obj 122 178 tabread coord-y;
#X obj 221 179 tabread coord-z;
#X obj 21 51 t f f f;
#X connect 3 0 7 0;
#X connect 4 0 0 0;
#X connect 5 0 1 0;
#X connect 6 0 2 0;
#X connect 7 0 4 0;
#X connect 7 1 5 0;
#X connect 7 2 6 0;
#X restore 46 452 pd coords;
#X obj 23 231 t f b;
#X obj 23 258 until;
#X obj 52 299 + 1;
#X msg 38 278 0;
#N canvas 391 22 241 288 reset-rendering 0;
#X obj 34 20 r render-plot;
#X msg 34 125 1;
#X obj 34 213 outlet;
#X obj 34 41 t b b;
#X msg 61 70 \; coord-add-spigot 1 \;;
#X obj 56 174 r \$0-render-points;
#X connect 0 0 3 0;
#X connect 1 0 2 0;
#X connect 3 0 1 0;
#X connect 3 1 4 0;
#X connect 5 0 2 0;
#X restore 23 20 pd reset-rendering;
#X obj 63 537 r point-size;
#X obj 23 42 gemhead 50;
#X obj 23 210 f;
#X obj 23 299 f;
#N canvas 426 112 385 718 coord-storage 0;
#X obj 204 16 inlet;
#X obj 81 417 spigot;
#X msg 204 186 0;
#X obj 237 142 - 1;
#X msg 233 284 clear;
#X obj 213 355 r mouse-radius;
#X obj 206 214 r coord-add-spigot;
#X obj 233 261 select 1;
#X obj 206 235 t f f;
#X obj 186 376 < 0.1;
#X obj 81 545 spigot;
#X msg 120 521 0;
#X msg 160 521 1;
#X obj 160 480 select 0;
#X obj 229 474 change;
#X obj 229 495 t b;
#X obj 81 444 t f f;
#X obj 81 566 t f b;
#X obj 204 165 select;
#X obj 81 280 spigot;
#X obj 81 188 f;
#X obj 237 121 r num-frames-total;
#X obj 81 341 tID/nearestPoint 3;
#X obj 81 209 pack f f f;
#X obj 75 659 s \$0-trig-sound;
#X obj 18 512 pack f f;
#X obj 211 595 == 0;
#X obj 211 555 r continuous;
#X obj 186 320 r \$0-coord-nearest;
#X obj 204 37 t f b;
#X obj 96 40 r \$0-index;
#X obj 96 100 tabread coord-x;
#X obj 96 63 t f f f;
#X obj 109 166 tabread coord-y;
#X obj 138 187 tabread coord-z;
#X obj 75 628 spigot 0;
#X obj 139 628 spigot 1;
#X connect 0 0 29 0;
#X connect 1 0 16 0;
#X connect 1 0 25 0;
#X connect 2 0 19 1;
#X connect 3 0 18 1;
#X connect 4 0 22 0;
#X connect 5 0 9 1;
#X connect 6 0 8 0;
#X connect 7 0 4 0;
#X connect 8 0 19 1;
#X connect 8 1 7 0;
#X connect 9 0 1 1;
#X connect 9 0 13 0;
#X connect 10 0 17 0;
#X connect 11 0 10 1;
#X connect 12 0 10 1;
#X connect 13 0 12 0;
#X connect 14 0 15 0;
#X connect 15 0 12 0;
#X connect 16 0 10 0;
#X connect 16 1 14 0;
#X connect 17 0 36 0;
#X connect 17 1 11 0;
#X connect 18 0 2 0;
#X connect 19 0 22 0;
#X connect 20 0 23 0;
#X connect 21 0 3 0;
#X connect 22 0 1 0;
#X connect 22 1 9 0;
#X connect 22 1 25 1;
#X connect 23 0 19 0;
#X connect 25 0 35 0;
#X connect 26 0 36 1;
#X connect 27 0 26 0;
#X connect 27 0 35 1;
#X connect 28 0 22 1;
#X connect 29 0 18 0;
#X connect 29 1 20 0;
#X connect 30 0 32 0;
#X connect 31 0 20 1;
#X connect 32 0 31 0;
#X connect 32 1 33 0;
#X connect 32 2 34 0;
#X connect 33 0 23 1;
#X connect 34 0 23 2;
#X connect 35 0 24 0;
#X connect 36 0 24 0;
#X restore 78 384 pd coord-storage;
#X obj 38 188 r num-frames-total;
#X obj 23 83 t a a;
#X obj 23 104 route gem_state;
#X obj 23 125 route float;
#X obj 23 167 t b;
#X obj 23 473 translateXYZ;
#X obj 78 358 s \$0-index;
#X obj 23 329 t b f f;
#X obj 23 559 sphere 0.07 10;
#X obj 23 63 rotateXYZ 0 45 0;
#X obj 23 515 colorRGB;
#N canvas 32 314 658 314 colors 0;
#X obj 21 26 r \$0-index;
#X obj 25 159 tabread red;
#X obj 100 160 tabread green;
#X obj 188 162 tabread blue;
#X obj 25 186 outlet;
#X obj 100 189 outlet;
#X obj 188 190 outlet;
#X obj 21 57 t f f f;
#X connect 0 0 7 0;
#X connect 1 0 4 0;
#X connect 2 0 5 0;
#X connect 3 0 6 0;
#X connect 7 0 1 0;
#X connect 7 1 2 0;
#X connect 7 2 3 0;
#X restore 35 493 pd colors;
#X obj 142 34 r \$0-angle;
#X connect 0 0 1 0;
#X connect 1 0 18 0;
#X connect 2 0 18 1;
#X connect 2 1 18 2;
#X connect 2 2 18 3;
#X connect 3 0 4 0;
#X connect 3 1 6 0;
#X connect 4 0 11 0;
#X connect 5 0 11 1;
#X connect 6 0 11 1;
#X connect 7 0 9 0;
#X connect 8 0 21 1;
#X connect 9 0 22 0;
#X connect 10 0 3 0;
#X connect 11 0 5 0;
#X connect 11 0 20 0;
#X connect 13 0 10 1;
#X connect 14 0 15 0;
#X connect 14 1 0 1;
#X connect 15 0 16 0;
#X connect 16 1 17 0;
#X connect 17 0 10 0;
#X connect 18 0 23 0;
#X connect 20 0 0 0;
#X connect 20 1 12 0;
#X connect 20 2 19 0;
#X connect 22 0 14 0;
#X connect 23 0 21 0;
#X connect 24 0 23 1;
#X connect 24 1 23 2;
#X connect 24 2 23 3;
#X connect 25 0 22 2;
#X restore 36 317 pd cloud-rendering;
#X connect 10 0 9 0;
#X connect 14 0 13 0;
#X connect 15 0 13 0;
#X connect 17 0 15 0;
