#N canvas -1427 -213 476 624 10;
#X declare -lib Gem;
#X declare -path ./abstractions;
#X declare -lib zexy;
#X declare -lib zexy;
#X declare -lib zexy;
#N canvas 1036 148 450 300 init 0;
#X obj 7 26 loadbang;
#X msg 7 107 0;
#X obj 7 77 del 1000;
#X msg 7 140 \; pd dsp \$1;
#X msg 39 107 1;
#X text 6 182 who knows why \, but without this the subprocess doesn't
start;
#X obj 226 40 declare -lib Gem;
#X obj 226 18 declare -path ./abstractions;
#X obj 149 86 s lb1;
#X obj 7 53 t b b b b;
#X obj 101 144 s \$0-render-points;
#X msg 101 118 0;
#X connect 0 0 9 0;
#X connect 1 0 3 0;
#X connect 2 0 1 0;
#X connect 4 0 3 0;
#X connect 9 0 2 0;
#X connect 9 1 4 0;
#X connect 9 2 11 0;
#X connect 9 3 8 0;
#X connect 11 0 10 0;
#X restore 259 60 pd init;
#X obj 31 430 gemlist;
#X obj 31 451 separator;
#N canvas 0 22 502 270 coords 0;
#X obj 18 207 outlet;
#X obj 119 203 outlet;
#X obj 337 201 outlet;
#X obj 216 199 outlet;
#X obj 21 26 r \$0-index;
#X obj 18 178 tabread coord-x;
#X obj 119 178 tabread coord-y;
#X obj 218 178 tabread coord-z;
#X obj 337 177 pack f f f;
#X obj 21 51 t f f f f f f;
#X obj 240 132 tabread red;
#X obj 318 134 tabread green;
#X obj 408 130 tabread blue;
#X connect 4 0 9 0;
#X connect 5 0 0 0;
#X connect 6 0 1 0;
#X connect 7 0 3 0;
#X connect 8 0 2 0;
#X connect 9 0 5 0;
#X connect 9 1 6 0;
#X connect 9 2 7 0;
#X connect 9 3 10 0;
#X connect 9 4 11 0;
#X connect 9 5 12 0;
#X connect 10 0 8 0;
#X connect 11 0 8 1;
#X connect 12 0 8 2;
#X restore 93 452 pd coords;
#X obj 31 251 t f b;
#X obj 31 278 until;
#X obj 60 319 + 1;
#X msg 46 298 0;
#X obj 31 514 color;
#N canvas 391 22 241 288 reset-rendering 0;
#X obj 34 20 r render-plot;
#X msg 34 125 1;
#X obj 34 213 outlet;
#X obj 34 41 t b b;
#X msg 61 70 \; coord-add-spigot 1 \;;
#X obj 56 174 r \$0-render-points;
#X connect 0 0 3 0;
#X connect 1 0 2 0;
#X connect 3 0 1 0;
#X connect 3 1 4 0;
#X connect 5 0 2 0;
#X restore 31 59 pd reset-rendering;
#X obj 68 562 r point-size;
#X obj 31 81 gemhead 50;
#N canvas 0 22 303 172 lighting 0;
#X obj 113 122 world_light;
#X obj 113 67 gemhead 45;
#X obj 113 15 r render-light;
#X connect 1 0 0 0;
#X connect 2 0 1 0;
#X restore 259 170 pd lighting;
#X obj 31 230 f;
#X obj 31 319 f;
#N canvas 0 22 385 718 coord-storage 0;
#X obj 204 16 inlet;
#X obj 81 417 spigot;
#X msg 204 186 0;
#X obj 237 142 - 1;
#X msg 233 284 clear;
#X obj 213 355 r mouse-radius;
#X obj 206 214 r coord-add-spigot;
#X obj 233 261 select 1;
#X obj 206 235 t f f;
#X obj 186 376 < 0.1;
#X obj 81 545 spigot;
#X msg 120 521 0;
#X msg 160 521 1;
#X obj 160 480 select 0;
#X obj 229 474 change;
#X obj 229 495 t b;
#X obj 81 444 t f f;
#X obj 81 566 t f b;
#X obj 204 165 select;
#X obj 81 280 spigot;
#X obj 81 188 f;
#X obj 237 121 r num-frames-total;
#X obj 81 341 tID/nearestPoint 3;
#X obj 81 209 pack f f f;
#X obj 75 659 s \$0-trig-sound;
#X obj 18 512 pack f f;
#X obj 75 628 spigot 1;
#X obj 139 628 spigot 0;
#X obj 211 595 == 0;
#X obj 211 555 r continuous;
#X obj 186 320 r \$0-coord-nearest;
#X obj 204 37 t f b;
#X obj 96 40 r \$0-index;
#X obj 96 100 tabread coord-x;
#X obj 96 63 t f f f;
#X obj 109 166 tabread coord-y;
#X obj 138 187 tabread coord-z;
#X connect 0 0 31 0;
#X connect 1 0 16 0;
#X connect 1 0 25 0;
#X connect 2 0 19 1;
#X connect 3 0 18 1;
#X connect 4 0 22 0;
#X connect 5 0 9 1;
#X connect 6 0 8 0;
#X connect 7 0 4 0;
#X connect 8 0 19 1;
#X connect 8 1 7 0;
#X connect 9 0 1 1;
#X connect 9 0 13 0;
#X connect 10 0 17 0;
#X connect 11 0 10 1;
#X connect 12 0 10 1;
#X connect 13 0 12 0;
#X connect 14 0 15 0;
#X connect 15 0 12 0;
#X connect 16 0 10 0;
#X connect 16 1 14 0;
#X connect 17 0 27 0;
#X connect 17 1 11 0;
#X connect 18 0 2 0;
#X connect 19 0 22 0;
#X connect 20 0 23 0;
#X connect 21 0 3 0;
#X connect 22 0 1 0;
#X connect 22 1 9 0;
#X connect 22 1 25 1;
#X connect 23 0 19 0;
#X connect 25 0 26 0;
#X connect 26 0 24 0;
#X connect 27 0 24 0;
#X connect 28 0 27 1;
#X connect 29 0 26 1;
#X connect 29 0 28 0;
#X connect 30 0 22 1;
#X connect 31 0 18 0;
#X connect 31 1 20 0;
#X connect 32 0 34 0;
#X connect 33 0 20 1;
#X connect 34 0 33 0;
#X connect 34 1 35 0;
#X connect 34 2 36 0;
#X connect 35 0 23 1;
#X connect 36 0 23 2;
#X restore 81 430 pd coord-storage;
#X obj 46 208 r num-frames-total;
#X obj 31 103 t a a;
#X obj 31 124 route gem_state;
#X obj 31 145 route float;
#X obj 31 187 t b;
#N canvas 211 264 657 694 kinect 0;
#X obj 24 359 translateXYZ;
#X obj 61 538 r mouse-radius;
#X obj 38 38 r lb1;
#X msg 38 59 0;
#X obj 24 87 gemhead 70;
#X obj 24 108 alpha;
#N canvas 857 540 311 321 coord-nearest 0;
#X obj 31 91 inlet;
#X obj 89 93 inlet;
#X obj 16 32 metro 33.33;
#X obj 73 143 f;
#X obj 17 144 f;
#X obj 17 188 pack f f f;
#X obj 144 93 inlet;
#X obj 128 143 f;
#X obj 17 52 t b b b;
#X obj 16 12 r kinect-on;
#X obj 17 211 s \$0-coord-nearest;
#X connect 0 0 4 1;
#X connect 1 0 3 1;
#X connect 2 0 8 0;
#X connect 3 0 5 1;
#X connect 4 0 5 0;
#X connect 5 0 10 0;
#X connect 6 0 7 1;
#X connect 7 0 5 2;
#X connect 8 0 4 0;
#X connect 8 1 3 0;
#X connect 8 2 7 0;
#X connect 9 0 2 0;
#X restore 107 360 pd coord-nearest;
#X obj 24 473 sphere 0.1 20;
#X obj 61 448 r point-size;
#X obj 24 561 sphere 0.1 20;
#X obj 24 505 color 1 1 1 0.2;
#X obj 24 138 color 1 1 1 0.5;
#X obj 151 137 mrpeach/udpreceive 12345;
#X obj 151 158 mrpeach/unpackOSC;
#X obj 151 180 mrpeach/pipelist;
#X obj 212 546 mrpeach/udpsend;
#X msg 239 498 connect localhost 12346;
#X obj 212 569 tgl 15 0 empty empty empty 17 7 0 10 -262144 -1 -1 0
1;
#X obj 212 468 mrpeach/packOSC;
#X obj 212 367 tgl 15 0 empty empty empty 17 7 0 10 -262144 -1 -1 0
1;
#X obj 212 386 metro 2000;
#X obj 45 270 / 40;
#X obj 88 282 / 40;
#X obj 123 282 / 60;
#X msg 258 520 disconnect;
#X obj 24 12 r kinect-on;
#X obj 212 310 r kinect-on;
#X obj 212 339 t f f;
#X obj 239 365 sel 1 0;
#X text 214 76 Make sure Kinect is connected an powered. Start Synapse
first then activate it in the main window by klicking the Kinect via
Synapse switch http://synapsekinect.tumblr.com/;
#X obj 212 407 t b b;
#X msg 239 429 /righthand_trackjointpos 2;
#X msg 211 449 /head_trackjointpos 2;
#X obj 151 201 mrpeach/routeOSC /righthand_pos_world /head_pos_world
;
#X obj 123 304 - 16;
#X obj 307 224 s \$0-head;
#N canvas 704 169 250 167 smoothing 0;
#X obj 10 19 inlet;
#X obj 10 49 unpack f f f;
#X obj 10 119 outlet;
#X obj 80 119 outlet;
#X obj 151 119 outlet;
#X obj 80 95 smooth 0.4;
#X obj 10 94 smooth 0.4;
#X obj 151 94 smooth 0.4;
#X connect 0 0 1 0;
#X connect 1 0 6 0;
#X connect 1 1 5 0;
#X connect 1 2 7 0;
#X connect 5 0 3 0;
#X connect 6 0 2 0;
#X connect 7 0 4 0;
#X restore 147 228 pd smoothing;
#X obj 24 614 light;
#X msg 69 596 0.8 0.8 0.8;
#X obj 123 570 r lb1;
#X obj 156 283 r handdistance;
#X obj 45 307 - 5;
#X obj 86 304 + 3;
#X connect 0 0 7 0;
#X connect 1 0 9 1;
#X connect 2 0 3 0;
#X connect 3 0 4 0;
#X connect 4 0 5 0;
#X connect 5 0 11 0;
#X connect 7 0 10 0;
#X connect 8 0 7 1;
#X connect 9 0 37 0;
#X connect 10 0 9 0;
#X connect 11 0 0 0;
#X connect 12 0 13 0;
#X connect 13 0 14 0;
#X connect 14 0 33 0;
#X connect 15 0 17 0;
#X connect 16 0 15 0;
#X connect 18 0 15 0;
#X connect 19 0 20 0;
#X connect 20 0 30 0;
#X connect 21 0 41 0;
#X connect 22 0 42 0;
#X connect 23 0 34 0;
#X connect 24 0 15 0;
#X connect 25 0 4 0;
#X connect 26 0 27 0;
#X connect 27 0 19 0;
#X connect 27 1 28 0;
#X connect 28 0 16 0;
#X connect 28 1 24 0;
#X connect 30 0 32 0;
#X connect 30 1 31 0;
#X connect 31 0 18 0;
#X connect 32 0 18 0;
#X connect 33 0 36 0;
#X connect 33 1 35 0;
#X connect 34 0 0 3;
#X connect 34 0 6 2;
#X connect 36 0 21 0;
#X connect 36 1 22 0;
#X connect 36 2 23 0;
#X connect 38 0 37 1;
#X connect 39 0 38 0;
#X connect 40 0 34 1;
#X connect 41 0 0 1;
#X connect 41 0 6 0;
#X connect 42 0 0 2;
#X connect 42 0 6 1;
#X restore 259 149 pd kinect;
#X obj 31 538 alpha;
#N canvas 639 301 749 668 zooming 0;
#X obj 42 286 f;
#X obj 42 308 change;
#X obj 57 263 r zoom-control-x-range;
#X obj 42 333 t b f;
#X obj 42 394 s render-plot;
#X obj 262 286 f;
#X obj 262 308 change;
#X obj 262 333 t b f;
#X obj 262 394 s render-plot;
#X obj 277 263 r zoom-control-y-range;
#X obj 42 486 f;
#X obj 42 508 change;
#X obj 42 533 t b f;
#X obj 42 594 s render-plot;
#X obj 262 486 f;
#X obj 262 508 change;
#X obj 262 533 t b f;
#X obj 262 594 s render-plot;
#X obj 57 463 r zoom-control-x-offset;
#X obj 277 463 r zoom-control-y-offset;
#X obj 39 64 r lb1;
#X obj 39 92 metro 33.333;
#X obj 482 286 f;
#X obj 482 308 change;
#X obj 482 333 t b f;
#X obj 482 394 s render-plot;
#X obj 482 486 f;
#X obj 482 508 change;
#X obj 482 533 t b f;
#X obj 482 594 s render-plot;
#X obj 497 263 r zoom-control-z-range;
#X obj 497 463 r zoom-control-z-offset;
#X obj 289 363 s \$0-y-range;
#X obj 509 363 s \$0-z-range;
#X obj 69 363 s \$0-x-range;
#X obj 69 563 s \$0-x-offset;
#X obj 289 563 s \$0-y-offset;
#X obj 509 563 s \$0-z-offset;
#X obj 39 113 s \$0-zoom-control-update;
#X obj 42 242 r \$0-zoom-control-update;
#X obj 262 242 r \$0-zoom-control-update;
#X obj 482 242 r \$0-zoom-control-update;
#X obj 482 438 r \$0-zoom-control-update;
#X obj 262 438 r \$0-zoom-control-update;
#X obj 42 438 r \$0-zoom-control-update;
#X connect 0 0 1 0;
#X connect 1 0 3 0;
#X connect 2 0 0 1;
#X connect 3 0 4 0;
#X connect 3 1 34 0;
#X connect 5 0 6 0;
#X connect 6 0 7 0;
#X connect 7 0 8 0;
#X connect 7 1 32 0;
#X connect 9 0 5 1;
#X connect 10 0 11 0;
#X connect 11 0 12 0;
#X connect 12 0 13 0;
#X connect 12 1 35 0;
#X connect 14 0 15 0;
#X connect 15 0 16 0;
#X connect 16 0 17 0;
#X connect 16 1 36 0;
#X connect 18 0 10 1;
#X connect 19 0 14 1;
#X connect 20 0 21 0;
#X connect 21 0 38 0;
#X connect 22 0 23 0;
#X connect 23 0 24 0;
#X connect 24 0 25 0;
#X connect 24 1 33 0;
#X connect 26 0 27 0;
#X connect 27 0 28 0;
#X connect 28 0 29 0;
#X connect 28 1 37 0;
#X connect 30 0 22 1;
#X connect 31 0 26 1;
#X connect 39 0 0 0;
#X connect 40 0 5 0;
#X connect 41 0 22 0;
#X connect 42 0 26 0;
#X connect 43 0 14 0;
#X connect 44 0 10 0;
#X restore 259 191 pd zooming;
#N canvas 0 22 214 181 cartesian 0;
#X obj 40 45 gemhead;
#X obj 40 87 translateXYZ 4 -4 4;
#X obj 40 65 rotateXYZ 20 136 0;
#X obj 40 108 scaleXYZ 2 2 2;
#X obj 40 129 cartesianspace;
#X connect 0 0 2 0;
#X connect 1 0 3 0;
#X connect 2 0 1 0;
#X connect 3 0 4 0;
#X restore 259 212 pd cartesian;
#N canvas 0 114 686 259 sends 0;
#X obj 28 222 stdout;
#X obj 27 50 r \$0-tID;
#X obj 27 74 list prepend tID;
#X obj 134 50 r \$0-trig-sound;
#X obj 134 74 list prepend trig-sound;
#X obj 28 196 list trim;
#X obj 281 49 r \$0-x-range;
#X obj 281 73 list prepend x-range;
#X obj 412 49 r \$0-y-range;
#X obj 412 73 list prepend y-range;
#X obj 544 51 r \$0-z-range;
#X obj 544 75 list prepend z-range;
#X obj 185 180 r \$0-framerate-set;
#X obj 185 204 list prepend framerate-set;
#X text 23 13 this contains the local sends that transmit to the main
Pd instance;
#X connect 1 0 2 0;
#X connect 2 0 5 0;
#X connect 3 0 4 0;
#X connect 4 0 5 0;
#X connect 5 0 0 0;
#X connect 6 0 7 0;
#X connect 7 0 5 0;
#X connect 8 0 9 0;
#X connect 9 0 5 0;
#X connect 10 0 11 0;
#X connect 11 0 5 0;
#X connect 12 0 13 0;
#X connect 13 0 5 0;
#X restore 259 81 pd sends;
#X obj 2 -4 cnv 10 10 400 empty empty empty 20 12 0 14 -233017 -66577
0;
#X obj 12 -4 cnv 10 400 10 empty empty empty 20 12 0 14 -233017 -66577
0;
#X text 29 11 this file gets opened by timbre-space-kinect-pdtilde.pd
it is the subprocess to run the plot of grains with Gem;
#X obj 31 486 translateXYZ;
#N canvas 539 90 811 446 load_tID_data_into_tables 0;
#X msg 31 250 feature_list \$1;
#X obj 31 274 s \$0-tID;
#X obj 31 40 inlet;
#X obj 31 132 until;
#X obj 60 175 + 1;
#X msg 69 132 0;
#X obj 31 87 f;
#X obj 31 175 f;
#X obj 46 64 r num-frames-total;
#X text 28 17 retrieve data from tID;
#X obj 474 35 r coord-RGB;
#X obj 222 256 tabwrite coord-x;
#X obj 256 231 tabwrite coord-y;
#X obj 291 209 tabwrite coord-z;
#X floatatom 58 88 5 0 0 0 - - -;
#X floatatom 49 220 5 0 0 0 - - -;
#X obj 474 112 unpack f f f;
#X obj 253 107 f;
#X obj 282 107 + 1;
#X obj 96 175 s \$0-countreset;
#X obj 31 108 t f b;
#X obj 69 152 t f f;
#X obj 268 85 r \$0-countreset;
#X obj 474 178 tabwrite red;
#X obj 579 96 f;
#X obj 608 96 + 1;
#X obj 594 75 r \$0-countreset;
#X obj 508 157 tabwrite green;
#X obj 474 56 t a b;
#X obj 543 136 tabwrite blue;
#X obj 579 115 t f f f;
#X text 221 15 store it into tables;
#N canvas 0 22 855 292 coord-x 0;
#N canvas 0 22 450 278 (subpatch) 0;
#X array coord-x 8000 float 2;
#X coords 0 4 7999 -4 800 200 1 0 0;
#X restore 22 41 graph;
#X restore 326 255 pd coord-x;
#N canvas 310 75 834 251 coord-y 0;
#N canvas 0 22 450 278 (subpatch) 0;
#X array coord-y 8000 float 2;
#X coords 0 4 7999 -4 800 200 1 0 0;
#X restore -2 28 graph;
#X restore 359 231 pd coord-y;
#N canvas 31 72 837 240 coord-z 0;
#N canvas 0 22 450 278 (subpatch) 0;
#X array coord-z 8000 float 2;
#X coords 0 4 8000 -4 800 200 1 0 0;
#X restore 17 22 graph;
#X restore 394 208 pd coord-z;
#N canvas 0 22 840 256 red 0;
#N canvas 0 22 450 278 (subpatch) 0;
#X array red 8000 float 2;
#X coords 0 0 7999 1 800 200 1 0 0;
#X restore 11 26 graph;
#X restore 554 178 pd red;
#N canvas 330 130 874 279 green 0;
#N canvas 0 22 450 278 (subpatch) 0;
#X array green 8000 float 2;
#X coords 0 0 7999 1 800 200 1 0 0;
#X restore 19 34 graph;
#X restore 600 157 pd green;
#N canvas 0 62 857 268 blue 0;
#N canvas 0 22 450 278 (subpatch) 0;
#X array blue 8000 float 2;
#X coords 0 0 8000 1 800 200 1 0 0;
#X restore 27 34 graph;
#X restore 629 136 pd blue;
#X obj 222 37 r coord-XYZ;
#X obj 222 83 t a b;
#X obj 222 173 unpack f f f;
#X obj 258 139 t f f f;
#X connect 0 0 1 0;
#X connect 2 0 6 0;
#X connect 3 0 7 0;
#X connect 4 0 7 1;
#X connect 5 0 21 0;
#X connect 6 0 20 0;
#X connect 7 0 4 0;
#X connect 7 0 0 0;
#X connect 8 0 6 1;
#X connect 8 0 14 0;
#X connect 10 0 28 0;
#X connect 15 0 0 0;
#X connect 16 0 23 0;
#X connect 16 1 27 0;
#X connect 16 2 29 0;
#X connect 17 0 18 0;
#X connect 17 0 41 0;
#X connect 18 0 17 1;
#X connect 20 0 3 0;
#X connect 20 1 5 0;
#X connect 21 0 7 1;
#X connect 21 1 19 0;
#X connect 22 0 17 1;
#X connect 24 0 25 0;
#X connect 24 0 30 0;
#X connect 25 0 24 1;
#X connect 26 0 24 1;
#X connect 28 0 16 0;
#X connect 28 1 24 0;
#X connect 30 0 23 1;
#X connect 30 1 27 1;
#X connect 30 2 29 1;
#X connect 38 0 39 0;
#X connect 39 0 40 0;
#X connect 39 1 17 0;
#X connect 40 0 11 0;
#X connect 40 1 12 0;
#X connect 40 2 13 0;
#X connect 41 0 11 1;
#X connect 41 1 12 1;
#X connect 41 2 13 1;
#X restore 260 285 pd load_tID_data_into_tables;
#X obj 260 265 bng 15 250 50 0 empty empty empty 17 7 0 10 -262144
-1 -1;
#X obj 390 67 nbx 5 14 -1e+37 1e+37 0 0 empty framerate framerate 0
-8 0 10 -262144 -1 -1 25 256;
#X obj 92 395 s \$0-index;
#X obj 31 349 t b f f;
#X obj 260 244 r render-plot;
#X text 162 396 ask for an index of the tables;
#X obj 31 584 sphere 0.05 8;
#N canvas 44 70 706 721 gemwin 0;
#X obj 439 357 r \$0-gemwin-settings;
#X obj 440 108 s \$0-gemwin-settings;
#X obj 440 59 tgl 15 0 empty empty empty 17 7 0 10 -262144 -1 -1 0
1;
#X msg 440 87 fullscreen \$1;
#X obj 440 192 s \$0-gemwin-settings;
#X obj 440 152 tgl 15 0 empty empty empty 17 7 0 10 -262144 -1 -1 0
1;
#X msg 440 171 border \$1;
#X obj 63 102 s \$0-gemwin-settings;
#X obj 439 258 s \$0-gemwin-settings;
#X msg 439 237 print;
#X msg 29 227 create \, 1;
#X obj 439 607 gemwin;
#X obj 439 380 t a a;
#X obj 466 403 route create destroy;
#X obj 466 425 t b;
#X msg 466 447 1;
#X msg 524 447 0;
#X msg 466 500 set \$1;
#X obj 466 522 s render-on-set;
#X obj 524 425 t b b;
#X obj 29 313 s \$0-gemwin-settings;
#X msg 551 469 \; kinect-on-set 0 \;;
#X obj 12 395 unpack f f f;
#X obj 12 489 / 40;
#X obj 46 488 / 40;
#X obj 81 488 / 60;
#X msg 12 566 view \$1 \$2 \$3;
#X obj 12 541 pack f f f;
#X obj 12 623 r lb1;
#X msg 477 59 2;
#X msg 47 281 0 \, destroy;
#X obj 46 514 - 5;
#X obj 81 514 + 8;
#X obj 12 372 r \$0-head;
#X text 90 665 default: -1 1 -1 1 1 20;
#X msg 12 644 view 0 0 20 \, perspec -1 1 -1 1 1.1 50;
#X msg 466 573 frame \$1;
#X obj 81 461 smooth 0.3;
#X obj 46 440 smooth 0.3;
#X obj 12 419 smooth 0.3;
#X obj 12 15 loadbang;
#X obj 116 488 r headdistance;
#X obj 47 259 closebang;
#X obj 12 36 t b b b b;
#X obj 12 690 s \$0-gemwin-settings;
#X obj 12 342 s lb1;
#X obj 12 589 s \$0-gemwin-settings;
#X obj 466 552 r framerate;
#X obj 46 195 s \$0-framerate-set;
#X msg 46 172 25;
#X msg 63 66 reset \, title timbreSpace \, offset 600 0 \, lighting
1 \, dimen 800 600 color 0 0 0 \, FSAA 2;
#N canvas 677 154 362 426 mousemove 0;
#X obj 136 17 gemmouse;
#X obj 136 88 pack;
#X obj 136 110 spigot;
#X obj 136 131 unpack;
#X obj 136 196 t f f;
#X obj 36 16 gemkeyname;
#X obj 36 39 pack 0 s;
#X obj 36 62 route 1;
#X obj 136 173 +;
#X obj 136 221 * -1;
#X obj 193 237 t f f;
#X obj 193 174 +;
#X obj 193 262 * -1;
#X obj 36 129 t f f f;
#X text 61 106 reset;
#N canvas 1072 230 231 337 coordinates 0;
#X obj 21 51 inlet;
#X obj 21 309 outlet;
#X obj 148 53 atan;
#X msg 148 32 1;
#X obj 148 75 / 45;
#X obj 148 11 loadbang;
#X text 22 28 r phi theta;
#X obj 73 120 *;
#X obj 127 119 *;
#X obj 73 169 cos;
#X obj 100 169 sin;
#X obj 73 144 t f f;
#X obj 127 169 cos;
#X obj 154 170 sin;
#X obj 127 144 t f f;
#X obj 73 196 *;
#X obj 100 196 *;
#X obj 21 242 *;
#X obj 49 242 *;
#X obj 78 242 *;
#X obj 21 196 t f f f;
#X obj 21 286 pack f f f;
#X obj 21 77 unpack f f f;
#X obj 21 263 + 20;
#X connect 0 0 22 0;
#X connect 2 0 4 0;
#X connect 3 0 2 0;
#X connect 4 0 8 1;
#X connect 4 0 7 1;
#X connect 5 0 3 0;
#X connect 7 0 11 0;
#X connect 8 0 14 0;
#X connect 9 0 15 0;
#X connect 10 0 16 0;
#X connect 11 0 9 0;
#X connect 11 1 10 0;
#X connect 12 0 15 1;
#X connect 12 0 16 1;
#X connect 13 0 19 1;
#X connect 14 0 12 0;
#X connect 14 1 13 0;
#X connect 15 0 17 1;
#X connect 16 0 18 1;
#X connect 17 0 23 0;
#X connect 18 0 21 1;
#X connect 19 0 21 2;
#X connect 20 0 17 0;
#X connect 20 1 18 0;
#X connect 20 2 19 0;
#X connect 21 0 1 0;
#X connect 22 0 20 0;
#X connect 22 1 7 0;
#X connect 22 2 8 0;
#X connect 23 0 21 0;
#X restore 136 310 pd coordinates;
#X obj 136 249 t b f;
#X obj 136 289 pack 4 0 0;
#X obj 177 46 t f f;
#X obj 177 67 -;
#X obj 136 45 t f f;
#X obj 136 66 -;
#X obj 193 151 * 0.5;
#X obj 136 153 * 0.5;
#X obj 193 209 clip -90 90;
#X obj 136 355 s \$0-gemwin-settings;
#X obj 36 84 route r;
#X msg 136 332 view \$2 \$3 \$1 0 0 0 0 1 0;
#X msg 36 107 0;
#X obj 88 385 print view;
#X msg 25 290 view 0 0 20;
#X msg 160 384 view 0.296738 -1.30227 23.7704;
#X connect 0 0 20 0;
#X connect 0 1 18 0;
#X connect 0 2 2 1;
#X connect 1 0 2 0;
#X connect 2 0 3 0;
#X connect 3 0 23 0;
#X connect 3 1 22 0;
#X connect 4 0 9 0;
#X connect 4 1 8 1;
#X connect 5 0 6 0;
#X connect 5 1 6 1;
#X connect 6 0 7 0;
#X connect 7 0 26 0;
#X connect 8 0 4 0;
#X connect 9 0 16 0;
#X connect 10 0 12 0;
#X connect 10 1 11 1;
#X connect 11 0 24 0;
#X connect 12 0 17 2;
#X connect 13 0 8 0;
#X connect 13 1 8 1;
#X connect 13 1 11 0;
#X connect 13 2 11 1;
#X connect 15 0 27 0;
#X connect 16 0 17 0;
#X connect 16 1 17 1;
#X connect 17 0 15 0;
#X connect 18 0 19 1;
#X connect 18 1 19 0;
#X connect 19 0 1 1;
#X connect 20 0 21 1;
#X connect 20 1 21 0;
#X connect 21 0 1 0;
#X connect 22 0 11 0;
#X connect 23 0 8 0;
#X connect 24 0 10 0;
#X connect 26 0 28 0;
#X connect 27 0 25 0;
#X connect 27 0 29 0;
#X connect 28 0 13 0;
#X connect 30 0 25 0;
#X connect 31 0 25 0;
#X restore 439 12 pd mousemove;
#X text 525 14 press r to reset viewport;
#X connect 0 0 12 0;
#X connect 2 0 3 0;
#X connect 3 0 1 0;
#X connect 5 0 6 0;
#X connect 6 0 4 0;
#X connect 9 0 8 0;
#X connect 10 0 20 0;
#X connect 12 0 11 0;
#X connect 12 1 13 0;
#X connect 13 0 14 0;
#X connect 13 1 19 0;
#X connect 14 0 15 0;
#X connect 15 0 17 0;
#X connect 16 0 17 0;
#X connect 17 0 18 0;
#X connect 19 0 16 0;
#X connect 19 1 21 0;
#X connect 22 0 39 0;
#X connect 22 1 38 0;
#X connect 22 2 37 0;
#X connect 23 0 27 0;
#X connect 24 0 31 0;
#X connect 25 0 32 0;
#X connect 26 0 46 0;
#X connect 27 0 26 0;
#X connect 28 0 35 0;
#X connect 29 0 3 0;
#X connect 30 0 20 0;
#X connect 31 0 27 1;
#X connect 32 0 27 2;
#X connect 33 0 22 0;
#X connect 35 0 44 0;
#X connect 36 0 11 0;
#X connect 37 0 25 0;
#X connect 38 0 24 0;
#X connect 39 0 23 0;
#X connect 40 0 43 0;
#X connect 41 0 32 1;
#X connect 42 0 30 0;
#X connect 43 0 45 0;
#X connect 43 1 10 0;
#X connect 43 2 49 0;
#X connect 43 3 50 0;
#X connect 47 0 36 0;
#X connect 49 0 48 0;
#X connect 50 0 7 0;
#X restore 259 128 pd gemwin;
#X connect 1 0 2 0;
#X connect 2 0 29 0;
#X connect 3 0 29 1;
#X connect 3 1 29 2;
#X connect 3 2 29 3;
#X connect 3 3 8 1;
#X connect 4 0 5 0;
#X connect 4 1 7 0;
#X connect 5 0 14 0;
#X connect 6 0 14 1;
#X connect 7 0 14 1;
#X connect 8 0 22 0;
#X connect 9 0 11 0;
#X connect 10 0 37 1;
#X connect 11 0 17 0;
#X connect 13 0 4 0;
#X connect 14 0 6 0;
#X connect 14 0 34 0;
#X connect 16 0 13 1;
#X connect 17 0 18 0;
#X connect 17 1 1 1;
#X connect 18 0 19 0;
#X connect 19 1 20 0;
#X connect 20 0 13 0;
#X connect 22 0 37 0;
#X connect 29 0 8 0;
#X connect 31 0 30 0;
#X connect 34 0 1 0;
#X connect 34 1 15 0;
#X connect 34 2 33 0;
#X connect 35 0 31 0;
