#N canvas 754 186 532 616 10;
#X declare -lib Gem;
#X declare -path ./abstractions;
#X msg 24 53 create \, 1;
#X msg 36 75 0 \, destroy;
#X text 114 71 Gem window;
#X obj 24 97 gemwin 50;
#N canvas 0 22 450 300 init 0;
#X obj 7 26 loadbang;
#X msg 7 107 0;
#X obj 7 77 del 1000;
#X msg 7 140 \; pd dsp \$1;
#X msg 39 107 1;
#X obj 7 53 t b b;
#X text 6 182 who knows why \, but without this the subprocess doesn't
start;
#X obj 226 40 declare -lib Gem;
#X obj 226 18 declare -path ./abstractions;
#X connect 0 0 5 0;
#X connect 1 0 3 0;
#X connect 2 0 1 0;
#X connect 4 0 3 0;
#X connect 5 0 2 0;
#X connect 5 1 4 0;
#X restore 440 19 pd init;
#X obj 1 51 cnv 15 20 20 empty empty 2 6 10 0 14 -261234 -66577 0;
#X text 35 4 this file gets opened by timbre-space-kinect-pdtilde.pd
;
#X obj 27 499 gemlist;
#X obj 27 562 translateXYZ;
#X obj 27 520 separator;
#N canvas 754 488 220 381 coords 0;
#X obj 59 280 r coord-x;
#X obj 76 207 r coord-y;
#X obj 44 325 outlet;
#X obj 61 253 outlet;
#X obj 95 108 outlet;
#X obj 78 181 outlet;
#X obj 44 36 inlet;
#X obj 95 84 list;
#X obj 93 136 r coord-z;
#X obj 78 160 f;
#X obj 44 304 f;
#X obj 61 232 f;
#X obj 44 57 t b b b b;
#X obj 116 57 r \$0-coord-RGB;
#X connect 0 0 10 1;
#X connect 1 0 11 1;
#X connect 6 0 12 0;
#X connect 7 0 4 0;
#X connect 8 0 9 1;
#X connect 9 0 5 0;
#X connect 10 0 2 0;
#X connect 11 0 3 0;
#X connect 12 0 10 0;
#X connect 12 1 11 0;
#X connect 12 2 9 0;
#X connect 12 3 7 0;
#X connect 13 0 7 1;
#X restore 99 520 pd coords;
#X obj 27 320 t f b;
#X obj 27 347 until;
#X obj 56 388 + 1;
#X msg 42 367 0;
#X obj 27 583 color;
#N canvas 715 51 353 360 reset-rendering 0;
#X obj 34 20 r render-plot;
#X msg 34 201 1;
#X obj 34 289 outlet;
#X obj 90 242 r render-points;
#X obj 34 41 t b b;
#X msg 131 159 \; coord-add-spigot 1 \;;
#X connect 0 0 4 0;
#X connect 1 0 2 0;
#X connect 3 0 2 0;
#X connect 4 0 1 0;
#X connect 4 1 5 0;
#X restore 27 128 pd reset-rendering;
#X obj 126 583 r point-size;
#X obj 126 604 t b f;
#X obj 126 650 s render-plot;
#X obj 27 150 gemhead 50;
#X msg 269 492 feature_list \$1;
#X obj 269 512 s \$0-tID;
#N canvas 0 22 303 172 lighting 0;
#X obj 113 122 world_light;
#X obj 113 67 gemhead 45;
#X obj 113 15 r render-light;
#X connect 1 0 0 0;
#X connect 2 0 1 0;
#X restore 255 237 pd lighting;
#X obj 27 299 f;
#X obj 27 388 f;
#N canvas 668 154 347 718 coord-storage 0;
#X obj 34 17 inlet;
#X obj 109 166 r coord-y;
#X obj 96 145 r coord-x;
#X obj 81 417 spigot;
#X msg 34 209 0;
#X obj 67 79 - 1;
#X msg 191 291 clear;
#X obj 213 355 r mouse-radius;
#X obj 186 320 r coord-nearest;
#X obj 164 221 r coord-add-spigot;
#X obj 191 268 select 1;
#X obj 164 242 t f f;
#X obj 186 376 < 0.1;
#X obj 81 545 spigot;
#X msg 120 521 0;
#X msg 160 521 1;
#X obj 160 480 select 0;
#X obj 229 474 change;
#X obj 229 495 t b;
#X obj 81 444 t f f;
#X obj 81 566 t f b;
#X obj 34 188 select;
#X obj 81 280 spigot;
#X obj 81 188 f;
#X obj 34 38 t f b b;
#X obj 67 58 r num-frames-total;
#X obj 81 341 tID/nearestPoint 3;
#X obj 81 209 pack f f f;
#X obj 138 187 r coord-z;
#X obj 75 659 s \$0-trig-sound;
#X obj 18 512 pack f f;
#X obj 209 556 r \$0-continuous;
#X obj 75 631 spigot 1;
#X obj 137 629 spigot 0;
#X obj 208 596 == 0;
#X connect 0 0 24 0;
#X connect 1 0 27 1;
#X connect 2 0 23 1;
#X connect 3 0 19 0;
#X connect 3 0 30 0;
#X connect 4 0 22 1;
#X connect 5 0 21 1;
#X connect 6 0 26 0;
#X connect 7 0 12 1;
#X connect 8 0 26 1;
#X connect 9 0 11 0;
#X connect 10 0 6 0;
#X connect 11 0 22 1;
#X connect 11 1 10 0;
#X connect 12 0 3 1;
#X connect 12 0 16 0;
#X connect 13 0 20 0;
#X connect 14 0 13 1;
#X connect 15 0 13 1;
#X connect 16 0 15 0;
#X connect 17 0 18 0;
#X connect 18 0 15 0;
#X connect 19 0 13 0;
#X connect 19 1 17 0;
#X connect 20 0 33 0;
#X connect 20 1 14 0;
#X connect 21 0 4 0;
#X connect 22 0 26 0;
#X connect 23 0 27 0;
#X connect 24 0 21 0;
#X connect 24 1 23 0;
#X connect 25 0 5 0;
#X connect 26 0 3 0;
#X connect 26 1 12 0;
#X connect 26 1 30 1;
#X connect 27 0 22 0;
#X connect 28 0 27 2;
#X connect 30 0 32 0;
#X connect 31 0 32 1;
#X connect 31 0 34 0;
#X connect 32 0 29 0;
#X connect 33 0 29 0;
#X connect 34 0 33 1;
#X restore 206 546 pd coord-storage;
#X obj 42 277 r num-frames-total;
#X obj 27 649 sphere 0.03 50;
#X obj 27 172 t a a;
#X obj 27 193 route gem_state;
#X obj 27 214 route float;
#X obj 27 256 t b;
#N canvas 0 22 957 732 gemwin-settings 0;
#X msg 23 326 frame \$1;
#X floatatom 23 305 5 0 0 0 - - -;
#X obj 550 366 r \$0-gemwin-settings;
#X obj 23 347 s \$0-gemwin-settings;
#X obj 172 372 s \$0-gemwin-settings;
#X obj 216 311 s \$0-gemwin-settings;
#X obj 307 264 s \$0-gemwin-settings;
#X msg 307 243 lighting \$1;
#X obj 307 224 tgl 15 0 empty empty empty 17 7 0 10 -262144 -1 -1 0
1;
#X obj 599 179 s \$0-gemwin-settings;
#X obj 599 139 tgl 15 0 empty empty empty 17 7 0 10 -262144 -1 -1 0
1;
#X msg 599 158 fullscreen \$1;
#X obj 599 263 s \$0-gemwin-settings;
#X obj 599 223 tgl 15 0 empty empty empty 17 7 0 10 -262144 -1 -1 0
1;
#X msg 599 242 border \$1;
#X obj 351 206 s \$0-gemwin-settings;
#X msg 351 183 offset 600 0;
#X msg 475 68 reset;
#X obj 475 93 s \$0-gemwin-settings;
#X obj 341 146 s \$0-gemwin-settings;
#X msg 341 123 title timbreSpace;
#X obj 103 51 t b b b b b b b b;
#X obj 539 313 s \$0-gemwin-settings;
#X msg 539 292 print;
#X obj 374 461 select 1 0;
#X msg 374 493 create \, 1;
#X obj 550 568 gemwin;
#X obj 550 407 t a a;
#X obj 582 435 route create destroy;
#X obj 582 457 t b;
#X msg 582 479 1;
#X msg 640 479 0;
#X msg 614 523 set \$1;
#X obj 374 440 r render-on;
#X obj 614 545 s render-on-set;
#X obj 640 457 t b b;
#X obj 374 538 s \$0-gemwin-settings;
#X obj 103 30 r lb1;
#X msg 216 290 dimen 800 600;
#X msg 23 277 30;
#X msg 172 341 color 0 0 0 \, FSAA 4;
#X msg 676 485 \; kinect-on-set 0 \;;
#X obj 118 424 unpack f f f;
#X obj 119 518 / 40;
#X obj 153 517 / 40;
#X obj 188 517 / 60;
#X msg 124 595 view \$1 \$2 \$3;
#X obj 119 570 pack f f f;
#X obj 51 585 r lb1;
#X msg 636 130 2;
#X msg 449 494 0 \, destroy;
#X obj 151 540 - 5;
#X obj 189 539 + 8;
#X obj 118 401 r \$0-head;
#X obj 225 514 r \$0-headdistance;
#X text 198 639 default: -1 1 -1 1 1 20;
#X msg 121 618 view 0 0 20 \, perspec -1 1 -1 1 1.1 50;
#X obj 619 585 r \$0-framerate;
#X msg 618 611 frame \$1;
#X obj 187 485 smooth 0.3;
#X obj 152 463 smooth 0.3;
#X obj 121 448 smooth 0.3;
#X connect 0 0 3 0;
#X connect 1 0 0 0;
#X connect 2 0 27 0;
#X connect 7 0 6 0;
#X connect 8 0 7 0;
#X connect 10 0 11 0;
#X connect 11 0 9 0;
#X connect 13 0 14 0;
#X connect 14 0 12 0;
#X connect 16 0 15 0;
#X connect 17 0 18 0;
#X connect 20 0 19 0;
#X connect 21 0 39 0;
#X connect 21 1 40 0;
#X connect 21 2 38 0;
#X connect 21 3 8 0;
#X connect 21 4 16 0;
#X connect 21 5 20 0;
#X connect 21 7 17 0;
#X connect 23 0 22 0;
#X connect 24 0 25 0;
#X connect 24 1 50 0;
#X connect 25 0 36 0;
#X connect 27 0 26 0;
#X connect 27 1 28 0;
#X connect 28 0 29 0;
#X connect 28 1 35 0;
#X connect 29 0 30 0;
#X connect 30 0 32 0;
#X connect 31 0 32 0;
#X connect 32 0 34 0;
#X connect 33 0 24 0;
#X connect 35 0 31 0;
#X connect 35 1 41 0;
#X connect 37 0 21 0;
#X connect 38 0 5 0;
#X connect 39 0 1 0;
#X connect 40 0 4 0;
#X connect 42 0 61 0;
#X connect 42 1 60 0;
#X connect 42 2 59 0;
#X connect 43 0 47 0;
#X connect 44 0 51 0;
#X connect 45 0 52 0;
#X connect 46 0 26 0;
#X connect 47 0 46 0;
#X connect 48 0 56 0;
#X connect 49 0 11 0;
#X connect 50 0 36 0;
#X connect 51 0 47 1;
#X connect 52 0 47 2;
#X connect 53 0 42 0;
#X connect 54 0 52 1;
#X connect 56 0 26 0;
#X connect 57 0 58 0;
#X connect 58 0 26 0;
#X connect 59 0 45 0;
#X connect 60 0 44 0;
#X connect 61 0 43 0;
#X restore 255 197 pd gemwin-settings;
#X obj 27 418 t b b f f;
#N canvas 103 289 657 694 kinect 0;
#X obj 24 359 translateXYZ;
#X obj 61 538 r mouse-radius;
#X obj 38 38 r lb1;
#X msg 38 59 0;
#X obj 24 87 gemhead 70;
#X obj 24 108 alpha;
#N canvas 857 540 311 321 coord-nearest 0;
#X obj 31 91 inlet;
#X obj 89 93 inlet;
#X obj 17 211 s coord-nearest;
#X obj 16 32 metro 33.33;
#X obj 73 143 f;
#X obj 17 144 f;
#X obj 17 188 pack f f f;
#X obj 144 93 inlet;
#X obj 128 143 f;
#X obj 17 52 t b b b;
#X obj 16 12 r kinect-on;
#X connect 0 0 5 1;
#X connect 1 0 4 1;
#X connect 3 0 9 0;
#X connect 4 0 6 1;
#X connect 5 0 6 0;
#X connect 6 0 2 0;
#X connect 7 0 8 1;
#X connect 8 0 6 2;
#X connect 9 0 5 0;
#X connect 9 1 4 0;
#X connect 9 2 8 0;
#X connect 10 0 3 0;
#X restore 107 360 pd coord-nearest;
#X obj 24 473 sphere 0.1 20;
#X obj 61 448 r point-size;
#X obj 24 561 sphere 0.1 20;
#X obj 24 505 color 1 1 1 0.2;
#X obj 24 138 color 1 1 1 0.5;
#X obj 151 137 mrpeach/udpreceive 12345;
#X obj 151 158 mrpeach/unpackOSC;
#X obj 151 180 mrpeach/pipelist;
#X obj 212 546 mrpeach/udpsend;
#X msg 239 498 connect localhost 12346;
#X obj 212 569 tgl 15 0 empty empty empty 17 7 0 10 -262144 -1 -1 0
1;
#X obj 212 468 mrpeach/packOSC;
#X obj 212 367 tgl 15 0 empty empty empty 17 7 0 10 -262144 -1 -1 0
1;
#X obj 212 386 metro 2000;
#X obj 54 283 / 40;
#X obj 88 282 / 40;
#X obj 123 282 / 60;
#X msg 258 520 disconnect;
#X obj 24 12 r kinect-on;
#X obj 212 310 r kinect-on;
#X obj 212 339 t f f;
#X obj 239 365 sel 1 0;
#X text 214 76 Make sure Kinect is connected an powered. Start Synapse
first then activate it in the main window by klicking the Kinect via
Synapse switch http://synapsekinect.tumblr.com/;
#X obj 212 407 t b b;
#X msg 239 429 /righthand_trackjointpos 2;
#X msg 211 449 /head_trackjointpos 2;
#X obj 151 201 mrpeach/routeOSC /righthand_pos_world /head_pos_world
;
#X obj 123 304 - 16;
#X obj 307 224 s \$0-head;
#X obj 156 283 r \$0-handdistance;
#N canvas 704 169 250 167 smoothing 0;
#X obj 10 19 inlet;
#X obj 10 49 unpack f f f;
#X obj 10 119 outlet;
#X obj 80 119 outlet;
#X obj 151 119 outlet;
#X obj 80 95 smooth 0.4;
#X obj 10 94 smooth 0.4;
#X obj 151 94 smooth 0.4;
#X connect 0 0 1 0;
#X connect 1 0 6 0;
#X connect 1 1 5 0;
#X connect 1 2 7 0;
#X connect 5 0 3 0;
#X connect 6 0 2 0;
#X connect 7 0 4 0;
#X restore 147 228 pd smoothing;
#X obj 24 614 light;
#X msg 69 596 0.8 0.8 0.8;
#X obj 123 570 r lb1;
#X connect 0 0 7 0;
#X connect 1 0 9 1;
#X connect 2 0 3 0;
#X connect 3 0 4 0;
#X connect 4 0 5 0;
#X connect 5 0 11 0;
#X connect 7 0 10 0;
#X connect 8 0 7 1;
#X connect 9 0 38 0;
#X connect 10 0 9 0;
#X connect 11 0 0 0;
#X connect 12 0 13 0;
#X connect 13 0 14 0;
#X connect 14 0 33 0;
#X connect 15 0 17 0;
#X connect 16 0 15 0;
#X connect 18 0 15 0;
#X connect 19 0 20 0;
#X connect 20 0 30 0;
#X connect 21 0 0 1;
#X connect 21 0 6 0;
#X connect 22 0 0 2;
#X connect 22 0 6 1;
#X connect 23 0 34 0;
#X connect 24 0 15 0;
#X connect 25 0 4 0;
#X connect 26 0 27 0;
#X connect 27 0 19 0;
#X connect 27 1 28 0;
#X connect 28 0 16 0;
#X connect 28 1 24 0;
#X connect 30 0 32 0;
#X connect 30 1 31 0;
#X connect 31 0 18 0;
#X connect 32 0 18 0;
#X connect 33 0 37 0;
#X connect 33 1 35 0;
#X connect 34 0 0 3;
#X connect 34 0 6 2;
#X connect 36 0 34 1;
#X connect 37 0 21 0;
#X connect 37 1 22 0;
#X connect 37 2 23 0;
#X connect 39 0 38 1;
#X connect 40 0 39 0;
#X restore 255 217 pd kinect;
#X obj 27 607 alpha;
#N canvas 140 22 749 668 zooming 0;
#X obj 42 286 f;
#X obj 42 308 change;
#X obj 72 286 r zoom-control-x-range;
#X obj 42 252 r zoom-control-update;
#X obj 94 101 s zoom-control-update;
#X obj 42 333 t b f;
#X obj 42 394 s render-plot;
#X obj 80 363 s x-range;
#X obj 262 286 f;
#X obj 262 308 change;
#X obj 262 252 r zoom-control-update;
#X obj 262 333 t b f;
#X obj 262 394 s render-plot;
#X obj 292 286 r zoom-control-y-range;
#X obj 300 363 s y-range;
#X obj 42 486 f;
#X obj 42 508 change;
#X obj 42 452 r zoom-control-update;
#X obj 42 533 t b f;
#X obj 42 594 s render-plot;
#X obj 262 486 f;
#X obj 262 508 change;
#X obj 262 452 r zoom-control-update;
#X obj 262 533 t b f;
#X obj 262 594 s render-plot;
#X obj 72 486 r zoom-control-x-offset;
#X obj 292 486 r zoom-control-y-offset;
#X obj 300 563 s y-offset;
#X obj 80 563 s x-offset;
#X obj 424 42 r reset-axes;
#X obj 94 51 r lb1;
#X obj 94 79 metro 33.333;
#X obj 482 286 f;
#X obj 482 308 change;
#X obj 482 252 r zoom-control-update;
#X obj 482 333 t b f;
#X obj 482 394 s render-plot;
#X obj 482 486 f;
#X obj 482 508 change;
#X obj 482 452 r zoom-control-update;
#X obj 482 533 t b f;
#X obj 482 594 s render-plot;
#X obj 512 286 r zoom-control-z-range;
#X obj 520 363 s z-range;
#X obj 512 486 r zoom-control-z-offset;
#X obj 520 563 s z-offset;
#X msg 424 64 \; zoom-control-x-range-set 10.1333 \; zoom-control-y-range-set
7.6 \; zoom-control-z-range-set 7.6 \; zoom-control-x-offset-set 0
\; zoom-control-y-offset-set 0 \; zoom-control-z-offset-set 0 \;;
#X connect 0 0 1 0;
#X connect 1 0 5 0;
#X connect 2 0 0 1;
#X connect 3 0 0 0;
#X connect 5 0 6 0;
#X connect 5 1 7 0;
#X connect 8 0 9 0;
#X connect 9 0 11 0;
#X connect 10 0 8 0;
#X connect 11 0 12 0;
#X connect 11 1 14 0;
#X connect 13 0 8 1;
#X connect 15 0 16 0;
#X connect 16 0 18 0;
#X connect 17 0 15 0;
#X connect 18 0 19 0;
#X connect 18 1 28 0;
#X connect 20 0 21 0;
#X connect 21 0 23 0;
#X connect 22 0 20 0;
#X connect 23 0 24 0;
#X connect 23 1 27 0;
#X connect 25 0 15 1;
#X connect 26 0 20 1;
#X connect 29 0 46 0;
#X connect 30 0 31 0;
#X connect 31 0 4 0;
#X connect 32 0 33 0;
#X connect 33 0 35 0;
#X connect 34 0 32 0;
#X connect 35 0 36 0;
#X connect 35 1 43 0;
#X connect 37 0 38 0;
#X connect 38 0 40 0;
#X connect 39 0 37 0;
#X connect 40 0 41 0;
#X connect 40 1 45 0;
#X connect 42 0 32 1;
#X connect 44 0 37 1;
#X restore 255 258 pd zooming;
#N canvas 0 22 213 421 cartesian 0;
#X obj 40 45 gemhead;
#X obj 40 248 translateXYZ 4 -4 4;
#X obj 40 156 rotateXYZ 20 136 0;
#X obj 40 334 scaleXYZ 2 2 2;
#X obj 40 22 r \$0-cartesian;
#X obj 40 355 cartesianspace;
#X connect 0 0 2 0;
#X connect 1 0 3 0;
#X connect 2 0 1 0;
#X connect 3 0 5 0;
#X connect 4 0 0 0;
#X restore 255 279 pd cartesian;
#X connect 0 0 3 0;
#X connect 1 0 3 0;
#X connect 7 0 9 0;
#X connect 8 0 15 0;
#X connect 9 0 8 0;
#X connect 10 0 8 1;
#X connect 10 1 8 2;
#X connect 10 2 8 3;
#X connect 10 3 15 1;
#X connect 11 0 12 0;
#X connect 11 1 14 0;
#X connect 12 0 25 0;
#X connect 13 0 25 1;
#X connect 14 0 25 1;
#X connect 15 0 36 0;
#X connect 16 0 20 0;
#X connect 17 0 18 0;
#X connect 18 0 19 0;
#X connect 18 1 28 1;
#X connect 20 0 29 0;
#X connect 21 0 22 0;
#X connect 24 0 11 0;
#X connect 25 0 13 0;
#X connect 25 0 34 0;
#X connect 27 0 24 1;
#X connect 29 0 30 0;
#X connect 29 1 7 1;
#X connect 30 0 31 0;
#X connect 31 1 32 0;
#X connect 32 0 24 0;
#X connect 34 0 7 0;
#X connect 34 1 10 0;
#X connect 34 2 26 0;
#X connect 34 3 21 0;
#X connect 36 0 28 0;
