#N canvas 573 350 639 450 10;
#X declare -path ./abstractions;
#X declare -lib Gem;
#X declare -lib hcs;
#X obj 39 268 hsl 128 15 40 100 0 0 master-volume master-volume-set
master-volume 8 8 0 12 -262144 -1 -1 10583 1;
#N canvas 656 204 830 602 players 0;
#X obj 356 207 dac~;
#X obj 356 183 *~;
#X obj 427 101 r master-volume;
#X obj 427 192 dbtorms;
#X obj 427 213 pack f 40;
#X obj 427 234 line~;
#X obj 427 123 moses 41;
#X obj 427 145 t b;
#X msg 427 167 0;
#X obj 356 52 catch~ grain-bus;
#N canvas 404 295 572 486 set-sample-and-grain 0;
#X obj 54 75 t f f;
#X obj 281 216 tabread frame-locations;
#X obj 54 35 r trig-sound;
#X obj 54 396 outlet;
#X obj 54 366 pack f f;
#X obj 303 256 s current-playback-sample;
#X obj 75 205 s current-playback-frame;
#X obj 54 247 tabread frame-start-samp;
#X connect 0 0 6 0;
#X connect 0 0 7 0;
#X connect 0 1 1 0;
#X connect 1 0 4 1;
#X connect 1 0 5 0;
#X connect 2 0 0 0;
#X connect 4 0 3 0;
#X connect 7 0 4 0;
#X restore 72 57 pd set-sample-and-grain;
#X obj 72 88 t b l;
#X obj 72 151 list append;
#X msg 72 173 \; play-\$1 \$2 \$3 \;;
#X obj 565 338 grain-player-unit 24;
#X obj 45 338 grain-player-unit 0;
#X obj 215 358 grain-player-unit 9;
#X obj 45 358 grain-player-unit 1;
#X obj 45 378 grain-player-unit 2;
#X obj 45 398 grain-player-unit 3;
#X obj 45 418 grain-player-unit 4;
#X obj 45 438 grain-player-unit 5;
#X obj 45 458 grain-player-unit 6;
#X obj 45 478 grain-player-unit 7;
#X obj 215 338 grain-player-unit 8;
#X obj 215 378 grain-player-unit 10;
#X obj 215 398 grain-player-unit 11;
#X obj 215 418 grain-player-unit 12;
#X obj 215 438 grain-player-unit 13;
#X obj 215 458 grain-player-unit 14;
#X obj 215 478 grain-player-unit 15;
#X obj 395 338 grain-player-unit 16;
#X obj 395 358 grain-player-unit 17;
#X obj 395 378 grain-player-unit 18;
#X obj 395 398 grain-player-unit 19;
#X obj 395 418 grain-player-unit 20;
#X obj 395 438 grain-player-unit 21;
#X obj 395 458 grain-player-unit 22;
#X obj 395 478 grain-player-unit 23;
#X obj 565 358 grain-player-unit 25;
#X obj 565 378 grain-player-unit 26;
#X obj 565 398 grain-player-unit 27;
#X obj 565 418 grain-player-unit 28;
#X obj 565 438 grain-player-unit 29;
#X obj 565 458 grain-player-unit 30;
#X obj 565 478 grain-player-unit 31;
#N canvas 34 66 483 290 modding 0;
#X obj 103 36 inlet;
#X obj 180 41 r num-player-voices;
#X obj 103 242 outlet;
#X obj 133 105 + 1;
#X obj 103 105 f;
#X obj 159 105 % 31;
#X connect 0 0 4 0;
#X connect 1 0 5 1;
#X connect 3 0 5 0;
#X connect 4 0 3 0;
#X connect 4 0 2 0;
#X connect 5 0 4 1;
#X restore 72 121 pd modding;
#X connect 1 0 0 1;
#X connect 1 0 0 0;
#X connect 2 0 6 0;
#X connect 3 0 4 0;
#X connect 4 0 5 0;
#X connect 5 0 1 1;
#X connect 6 0 7 0;
#X connect 6 1 3 0;
#X connect 7 0 8 0;
#X connect 8 0 3 0;
#X connect 9 0 1 0;
#X connect 10 0 11 0;
#X connect 11 0 46 0;
#X connect 11 1 12 1;
#X connect 12 0 13 0;
#X connect 46 0 12 0;
#X restore 36 83 pd players;
#X obj 36 168 bng 15 250 50 0 render-plot empty Plot 17 7 0 12 -203904
-1 -1;
#X obj 36 188 bng 15 250 50 0 reset-axes empty Reset 17 7 0 12 -204786
-1 -1;
#N canvas 182 111 404 745 gem 0;
#X obj 34 526 gemlist;
#X obj 34 589 translateXYZ;
#X obj 34 547 separator;
#N canvas 116 174 484 381 coords 0;
#X obj 62 250 r coord-x;
#X obj 161 190 r coord-y;
#X obj 44 298 outlet;
#X obj 143 238 outlet;
#X obj 320 148 outlet;
#X obj 196 155 outlet;
#X obj 44 9 inlet;
#X obj 320 107 list;
#X obj 214 110 r coord-z;
#X obj 196 134 f;
#X obj 44 277 f;
#X obj 143 217 f;
#X obj 341 70 r coord-RGB;
#X obj 44 30 t b b b b;
#X connect 0 0 10 1;
#X connect 1 0 11 1;
#X connect 6 0 13 0;
#X connect 7 0 4 0;
#X connect 8 0 9 1;
#X connect 9 0 5 0;
#X connect 10 0 2 0;
#X connect 11 0 3 0;
#X connect 12 0 7 1;
#X connect 13 0 10 0;
#X connect 13 1 11 0;
#X connect 13 2 9 0;
#X connect 13 3 7 0;
#X restore 106 547 pd coords;
#X obj 18 347 t f b;
#X obj 18 374 until;
#X obj 47 415 + 1;
#X msg 33 394 0;
#N canvas 81 86 472 580 mouseover 0;
#X obj 62 411 translateXYZ;
#X obj 80 457 r lb1;
#X obj 162 479 r mouse-radius;
#X obj 62 510 circle 0.1;
#X obj 76 90 r lb1;
#X msg 76 111 0;
#X obj 62 139 gemhead 70;
#X obj 62 160 alpha;
#X msg 80 479 draw fill;
#X obj 62 190 color 0 1 0 0.2;
#X obj 85 228 gemmouse 1 1;
#N canvas 364 207 223 257 draw-prep-x 0;
#X obj 85 58 inlet;
#X obj 85 169 outlet;
#X obj 85 108 * 10.6667;
#X obj 85 129 - 5.33333;
#X connect 0 0 2 0;
#X connect 2 0 3 0;
#X connect 3 0 1 0;
#X restore 85 314 pd draw-prep-x;
#N canvas 364 207 223 257 draw-prep-y 0;
#X obj 37 30 inlet;
#X obj 37 161 outlet;
#X obj 37 67 swap 1;
#X obj 37 89 -;
#X obj 37 110 * 8;
#X obj 37 131 - 4;
#X connect 0 0 2 0;
#X connect 2 0 3 0;
#X connect 2 1 3 1;
#X connect 3 0 4 0;
#X connect 4 0 5 0;
#X connect 5 0 1 0;
#X restore 185 314 pd draw-prep-y;
#X obj 62 22 r mouseover-on;
#N canvas 591 149 311 321 coord-nearest 0;
#X obj 80 136 inlet;
#X obj 183 136 inlet;
#X obj 62 226 pack f f;
#X obj 62 91 t b b;
#X obj 62 268 s coord-nearest;
#X obj 62 70 metro 33.33;
#X obj 62 8 r mouseover-on;
#X obj 166 186 f;
#X obj 62 182 f;
#X connect 0 0 8 1;
#X connect 1 0 7 1;
#X connect 2 0 4 0;
#X connect 3 0 8 0;
#X connect 3 1 7 0;
#X connect 5 0 3 0;
#X connect 6 0 5 0;
#X connect 7 0 2 1;
#X connect 8 0 2 0;
#X restore 187 388 pd coord-nearest;
#X connect 0 0 3 0;
#X connect 1 0 8 0;
#X connect 2 0 3 1;
#X connect 4 0 5 0;
#X connect 5 0 6 0;
#X connect 6 0 7 0;
#X connect 7 0 9 0;
#X connect 8 0 3 0;
#X connect 9 0 0 0;
#X connect 10 0 11 0;
#X connect 10 1 12 0;
#X connect 11 0 0 1;
#X connect 11 0 14 0;
#X connect 12 0 0 2;
#X connect 12 0 14 1;
#X connect 13 0 6 0;
#X restore 246 201 pd mouseover;
#X obj 34 610 color;
#N canvas 715 51 353 360 reset-rendering 0;
#X obj 34 20 r render-plot;
#X msg 34 201 1;
#X obj 34 289 outlet;
#X obj 90 242 r render-points;
#X obj 34 41 t b b;
#X msg 131 159 \; coord-add-spigot 1 \;;
#X connect 0 0 4 0;
#X connect 1 0 2 0;
#X connect 3 0 2 0;
#X connect 4 0 1 0;
#X connect 4 1 5 0;
#X restore 46 17 pd reset-rendering;
#X obj 121 611 r point-size;
#X obj 121 632 t b f;
#X obj 121 653 s render-plot;
#X obj 46 39 gemhead 50;
#X obj 46 171 rotateXYZ;
#X obj 63 111 r rotate-x;
#X obj 80 131 r rotate-y;
#X obj 97 151 r rotate-z;
#X obj 46 90 ortho;
#N canvas 54 64 499 555 snapshot 0;
#X obj 221 35 inlet;
#X obj 236 135 - 1;
#X obj 221 90 spigot;
#X obj 94 445 pix_texture;
#X obj 94 123 gemhead 60;
#X msg 119 316 snap;
#X obj 182 234 t b b;
#X msg 182 286 0;
#X obj 182 307 s render-points-set;
#X obj 94 144 t a b;
#X obj 221 161 select;
#N canvas 0 22 331 285 once 0;
#X obj 37 37 inlet;
#X obj 37 109 spigot 1;
#X obj 37 131 t b b;
#X obj 37 213 outlet;
#X msg 132 80 0;
#X msg 172 80 1;
#X obj 172 37 inlet;
#X connect 0 0 1 0;
#X connect 1 0 2 0;
#X connect 2 0 3 0;
#X connect 2 1 4 0;
#X connect 4 0 1 1;
#X connect 5 0 1 1;
#X connect 6 0 5 0;
#X restore 182 206 pd once;
#X obj 236 114 r num-frames-total;
#X obj 94 35 r render-snapshot;
#X msg 283 411 file \$1 1;
#X obj 283 432 t b a;
#X obj 283 390 savepanel;
#X obj 283 351 r save-plot;
#X obj 248 470 pix_write 0 0 800 600;
#X obj 94 354 pix_snap 0 0 800 600;
#X obj 94 479 rectangle 5.33333 4;
#X connect 0 0 2 0;
#X connect 1 0 10 1;
#X connect 2 0 10 0;
#X connect 3 0 20 0;
#X connect 4 0 9 0;
#X connect 5 0 19 0;
#X connect 6 0 7 0;
#X connect 6 1 5 0;
#X connect 7 0 8 0;
#X connect 9 0 19 0;
#X connect 9 1 11 0;
#X connect 10 0 11 1;
#X connect 11 0 6 0;
#X connect 12 0 1 0;
#X connect 13 0 4 0;
#X connect 13 0 2 1;
#X connect 14 0 15 0;
#X connect 15 0 18 0;
#X connect 15 1 18 0;
#X connect 16 0 14 0;
#X connect 17 0 16 0;
#X connect 19 0 3 0;
#X connect 19 0 18 0;
#X restore 18 703 pd snapshot;
#X msg 123 478 feature_list \$1;
#X obj 123 498 s \$0-tID;
#N canvas 710 130 303 172 lighting 0;
#X obj 113 122 world_light;
#X obj 113 67 gemhead 45;
#X obj 113 15 r render-light;
#X connect 1 0 0 0;
#X connect 2 0 1 0;
#X restore 246 221 pd lighting;
#X obj 18 326 f;
#X obj 18 415 f;
#N canvas 378 49 876 668 zooming 0;
#X obj 42 286 f;
#X obj 42 308 change;
#X obj 72 286 r zoom-control-x-range;
#X obj 42 252 r zoom-control-update;
#X obj 94 101 s zoom-control-update;
#X obj 42 333 t b f;
#X obj 42 394 s render-plot;
#X obj 80 363 s x-range;
#X obj 262 286 f;
#X obj 262 308 change;
#X obj 262 252 r zoom-control-update;
#X obj 262 333 t b f;
#X obj 262 394 s render-plot;
#X obj 292 286 r zoom-control-y-range;
#X obj 300 363 s y-range;
#X obj 42 486 f;
#X obj 42 508 change;
#X obj 42 452 r zoom-control-update;
#X obj 42 533 t b f;
#X obj 42 594 s render-plot;
#X obj 262 486 f;
#X obj 262 508 change;
#X obj 262 452 r zoom-control-update;
#X obj 262 533 t b f;
#X obj 262 594 s render-plot;
#X obj 72 486 r zoom-control-x-offset;
#X obj 292 486 r zoom-control-y-offset;
#X obj 300 563 s y-offset;
#X obj 80 563 s x-offset;
#X obj 424 42 r reset-axes;
#X obj 94 51 r lb1;
#X obj 94 79 metro 33.333;
#X obj 482 286 f;
#X obj 482 308 change;
#X obj 482 252 r zoom-control-update;
#X obj 482 333 t b f;
#X obj 482 394 s render-plot;
#X obj 482 486 f;
#X obj 482 508 change;
#X obj 482 452 r zoom-control-update;
#X obj 482 533 t b f;
#X obj 482 594 s render-plot;
#X obj 512 286 r zoom-control-z-range;
#X obj 520 363 s z-range;
#X obj 512 486 r zoom-control-z-offset;
#X obj 520 563 s z-offset;
#X msg 424 64 \; zoom-control-x-range-set 10.1333 \; zoom-control-y-range-set
7.6 \; zoom-control-z-range-set 7.6 \; zoom-control-x-offset-set 0
\; zoom-control-y-offset-set 0 \; zoom-control-z-offset-set 0 \;;
#X connect 0 0 1 0;
#X connect 1 0 5 0;
#X connect 2 0 0 1;
#X connect 3 0 0 0;
#X connect 5 0 6 0;
#X connect 5 1 7 0;
#X connect 8 0 9 0;
#X connect 9 0 11 0;
#X connect 10 0 8 0;
#X connect 11 0 12 0;
#X connect 11 1 14 0;
#X connect 13 0 8 1;
#X connect 15 0 16 0;
#X connect 16 0 18 0;
#X connect 17 0 15 0;
#X connect 18 0 19 0;
#X connect 18 1 28 0;
#X connect 20 0 21 0;
#X connect 21 0 23 0;
#X connect 22 0 20 0;
#X connect 23 0 24 0;
#X connect 23 1 27 0;
#X connect 25 0 15 1;
#X connect 26 0 20 1;
#X connect 29 0 46 0;
#X connect 30 0 31 0;
#X connect 31 0 4 0;
#X connect 32 0 33 0;
#X connect 33 0 35 0;
#X connect 34 0 32 0;
#X connect 35 0 36 0;
#X connect 35 1 43 0;
#X connect 37 0 38 0;
#X connect 38 0 40 0;
#X connect 39 0 37 0;
#X connect 40 0 41 0;
#X connect 40 1 45 0;
#X connect 42 0 32 1;
#X connect 44 0 37 1;
#X restore 246 241 pd zooming;
#X obj 59 63 r ortho-switch;
#N canvas 311 81 581 644 coord-storage 0;
#X obj 138 46 inlet;
#X obj 202 163 r coord-y;
#X obj 172 134 r coord-x;
#X obj 157 201 pack f f;
#X obj 157 409 spigot;
#X msg 57 201 0;
#X obj 50 140 - 1;
#X msg 275 275 clear;
#X obj 252 359 r mouse-radius;
#X obj 238 312 r coord-nearest;
#X obj 248 205 r coord-add-spigot;
#X obj 275 252 select 1;
#X obj 248 226 t f f;
#X obj 196 388 < 0.1;
#X obj 157 537 spigot;
#X msg 196 513 0;
#X msg 236 513 1;
#X obj 236 472 select 0;
#X obj 305 466 change;
#X obj 305 487 t b;
#X obj 157 430 t f f;
#X obj 157 558 t f b;
#X obj 57 180 select;
#X obj 157 272 spigot;
#X obj 157 180 f;
#X obj 157 579 s trig-sound;
#X obj 138 67 t f b b;
#X obj 50 119 r num-frames-total;
#X obj 157 333 tID/nearestPoint 2;
#X connect 0 0 26 0;
#X connect 1 0 3 1;
#X connect 2 0 24 1;
#X connect 3 0 23 0;
#X connect 4 0 20 0;
#X connect 5 0 23 1;
#X connect 6 0 22 1;
#X connect 7 0 28 0;
#X connect 8 0 13 1;
#X connect 9 0 28 1;
#X connect 10 0 12 0;
#X connect 11 0 7 0;
#X connect 12 0 23 1;
#X connect 12 1 11 0;
#X connect 13 0 4 1;
#X connect 13 0 17 0;
#X connect 14 0 21 0;
#X connect 15 0 14 1;
#X connect 16 0 14 1;
#X connect 17 0 16 0;
#X connect 18 0 19 0;
#X connect 19 0 16 0;
#X connect 20 0 14 0;
#X connect 20 1 18 0;
#X connect 21 0 25 0;
#X connect 21 1 15 0;
#X connect 22 0 5 0;
#X connect 23 0 28 0;
#X connect 24 0 3 0;
#X connect 26 0 22 0;
#X connect 26 1 24 0;
#X connect 27 0 6 0;
#X connect 28 0 4 0;
#X connect 28 1 13 0;
#X restore 114 521 pd coord-storage;
#X obj 18 445 t f b b f f;
#X obj 33 306 r num-frames-total;
#X obj 34 676 sphere 0.03 50;
#X obj 46 199 t a a;
#X obj 46 220 route gem_state;
#X obj 46 241 route float;
#X obj 18 283 t b;
#N canvas 416 291 761 647 gemwin-settings 0;
#X msg 28 189 frame \$1;
#X floatatom 28 168 5 0 0 0 - - -;
#X obj 442 322 r \$0-gemwin-settings;
#X obj 28 210 s \$0-gemwin-settings;
#X obj 429 84 s \$0-gemwin-settings;
#X obj 429 44 tgl 15 0 empty empty empty 17 7 0 10 -262144 -1 -1 0
1;
#X msg 429 63 fullscreen \$1;
#X obj 429 168 s \$0-gemwin-settings;
#X obj 429 128 tgl 15 0 empty empty empty 17 7 0 10 -262144 -1 -1 0
1;
#X msg 429 147 border \$1;
#X obj 55 114 s \$0-gemwin-settings;
#X obj 431 269 s \$0-gemwin-settings;
#X msg 431 248 print;
#X obj 27 265 select 1 0;
#X msg 27 297 create \, 1;
#X msg 102 298 destroy;
#X obj 442 566 gemwin;
#X obj 442 363 t a a;
#X obj 474 391 route create destroy;
#X obj 474 413 t b;
#X msg 474 435 1;
#X msg 532 435 0;
#X msg 506 479 set \$1;
#X obj 27 244 r render-on;
#X obj 506 501 s render-on-set;
#X obj 532 413 t b b;
#X msg 568 441 \; mouseover-on-set 0 \;;
#X obj 27 342 s \$0-gemwin-settings;
#X obj 28 24 r lb1;
#X msg 28 140 30;
#X msg 55 74 reset \, title timbreSpace \, offset 600 0 \, dimen 800
600 \, color 0 0 0 \, lighting 1;
#X obj 28 45 t b b;
#X connect 0 0 3 0;
#X connect 1 0 0 0;
#X connect 2 0 17 0;
#X connect 5 0 6 0;
#X connect 6 0 4 0;
#X connect 8 0 9 0;
#X connect 9 0 7 0;
#X connect 12 0 11 0;
#X connect 13 0 14 0;
#X connect 13 1 15 0;
#X connect 14 0 27 0;
#X connect 15 0 27 0;
#X connect 17 0 16 0;
#X connect 17 1 18 0;
#X connect 18 0 19 0;
#X connect 18 1 25 0;
#X connect 19 0 20 0;
#X connect 20 0 22 0;
#X connect 21 0 22 0;
#X connect 22 0 24 0;
#X connect 23 0 13 0;
#X connect 25 0 21 0;
#X connect 25 1 26 0;
#X connect 28 0 31 0;
#X connect 29 0 1 0;
#X connect 30 0 10 0;
#X connect 31 0 29 0;
#X connect 31 1 30 0;
#X restore 246 181 pd gemwin-settings;
#X msg 161 64 compat 0;
#X obj 161 44 r lb1;
#X connect 0 0 2 0;
#X connect 1 0 9 0;
#X connect 2 0 1 0;
#X connect 3 0 1 1;
#X connect 3 1 1 2;
#X connect 3 2 1 3;
#X connect 3 3 9 1;
#X connect 4 0 5 0;
#X connect 4 1 7 0;
#X connect 5 0 25 0;
#X connect 6 0 25 1;
#X connect 7 0 25 1;
#X connect 9 0 31 0;
#X connect 10 0 14 0;
#X connect 11 0 12 0;
#X connect 12 0 13 0;
#X connect 12 1 31 1;
#X connect 14 0 19 0;
#X connect 15 0 32 0;
#X connect 16 0 15 1;
#X connect 17 0 15 2;
#X connect 18 0 15 3;
#X connect 19 0 15 0;
#X connect 21 0 22 0;
#X connect 24 0 4 0;
#X connect 25 0 6 0;
#X connect 25 0 29 0;
#X connect 27 0 19 0;
#X connect 29 0 20 0;
#X connect 29 1 0 0;
#X connect 29 2 3 0;
#X connect 29 3 28 0;
#X connect 29 4 21 0;
#X connect 30 0 24 1;
#X connect 32 0 33 0;
#X connect 32 1 0 1;
#X connect 33 0 34 0;
#X connect 34 1 35 0;
#X connect 35 0 24 0;
#X connect 37 0 19 0;
#X connect 38 0 37 0;
#X restore 36 103 pd gem;
#X obj 39 313 hsl 128 15 0.05 1 0 0 mouse-radius mouse-radius-set mouse-radius
8 8 0 12 -262144 -1 -1 12700 1;
#X obj 36 208 tgl 15 0 mouseover-on mouseover-on-set Mouseover 17 7
0 12 -262144 -1 -1 0 1;
#X obj 39 336 hsl 128 15 0.03 0.25 0 0 point-size empty point-size
8 8 0 12 -262144 -1 -1 0 1;
#N canvas 30 87 507 474 rotate 0;
#X obj 43 94 tgl 15 0 render-points render-points-set Points 17 7 0
10 -262144 -1 -1 0 1;
#X obj 43 64 tgl 15 0 render-light render-light-set Light 17 7 0 10
-262144 -1 -1 1 1;
#X obj 43 124 tgl 15 0 render-snapshot render-snapshot-set Snapshot
17 7 0 10 -262144 -1 -1 1 1;
#X obj 171 71 hsl 128 15 0 360 0 0 rotate-x empty Rotate-X -2 -8 0
12 -262144 -1 -1 0 1;
#X obj 171 111 hsl 128 15 0 360 0 0 rotate-y empty Rotate-Y -2 -8 0
12 -262144 -1 -1 0 1;
#X obj 171 151 hsl 128 15 0 360 0 0 rotate-z empty Rotate-Z -2 -8 0
12 -262144 -1 -1 0 1;
#X text 43 384 Note: mouse-overs won't work properly on a rotated space.
;
#X text 43 243 This is here to allow rotation of the space \, but it's
disabled by default since rendering hundreds of points takes up too
much CPU. Instead \, the patch automatically takes a snapshot of the
points \, stops rendering them \, then displays the static snapshot.
So rotations won't be visible in snapshot mode.;
#X text 43 333 To rotate along X \, Y \, or Z \, uncheck the Snapshot
toggle and check the Light & Points toggles. Then play around with
the sliders.;
#X obj 168 23 tgl 15 0 ortho-switch ortho-switch-set Orthographic 17
7 0 12 -262144 -1 -1 1 1;
#X floatatom 168 201 5 0 0 1 offset-z zoom-control-z-offset-set zoom-control-z-offset
;
#X floatatom 168 181 5 0 0 1 zoom-z zoom-control-z-range-set zoom-control-z-range
;
#X restore 36 369 pd rotate 3D space;
#N canvas 298 233 791 335 timbreID 0;
#X msg 416 165 clear;
#X obj 82 85 r \$0-tID;
#X msg 359 96 read \$1;
#X obj 359 53 r load-timid;
#X obj 359 210 s \$0-tID;
#X obj 127 191 s feature-list;
#X floatatom 82 174 5 0 0 0 - - -;
#X obj 359 118 t a b;
#X obj 82 152 tID/timbreID;
#X connect 0 0 4 0;
#X connect 1 0 8 0;
#X connect 2 0 7 0;
#X connect 3 0 2 0;
#X connect 7 0 4 0;
#X connect 7 1 0 0;
#X connect 8 0 6 0;
#X connect 8 4 5 0;
#X restore 36 63 pd timbreID;
#N canvas 245 296 577 484 set-dimensions 0;
#X obj 40 183 hradio 15 1 1 20 R-mapping R-mapping-set empty 0 -8 0
10 -258113 -1 -1 13;
#X obj 40 203 hradio 15 1 1 20 G-mapping G-mapping-set empty 0 -8 0
10 -4034 -1 -1 14;
#X obj 40 223 hradio 15 1 1 20 B-mapping B-mapping-set empty 0 -8 0
10 -4032 -1 -1 15;
#X obj 40 59 hradio 15 1 0 20 x-mapping x-mapping-set X -16 8 0 12
-262144 -1 -1 12;
#X obj 40 79 hradio 15 1 0 20 y-mapping y-mapping-set Y -16 8 0 12
-262144 -1 -1 3;
#X obj 40 99 hradio 15 1 1 20 z-mapping z-mapping-set Z -16 8 0 12
-262144 -1 -1 9;
#X text 44 161 R G B mapping switches;
#X obj 40 129 bng 15 250 50 0 render-plot empty Plot 17 7 0 14 -203904
-1 -1;
#N canvas 231 248 1092 518 feature-names 0;
#X obj 455 157 list split 1;
#X obj 455 35 t b f;
#X obj 455 87 list;
#X obj 476 63 r feature-name-list;
#X obj 455 116 list split;
#X obj 616 250 s feature-name-list;
#X obj 616 180 r lb1;
#X obj 265 157 list split 1;
#X obj 265 35 t b f;
#X obj 265 189 s y-feature-name;
#X obj 265 14 r y-mapping;
#X obj 265 87 list;
#X obj 286 63 r feature-name-list;
#X obj 265 116 list split;
#X obj 75 157 list split 1;
#X obj 75 35 t b f;
#X obj 75 87 list;
#X obj 96 63 r feature-name-list;
#X obj 75 116 list split;
#X obj 75 189 s x-feature-name;
#X obj 75 14 r x-mapping;
#X obj 455 14 r z-mapping;
#X obj 455 189 s z-feature-name;
#X obj 455 407 list split 1;
#X obj 455 285 t b f;
#X obj 455 337 list;
#X obj 476 313 r feature-name-list;
#X obj 455 366 list split;
#X obj 265 407 list split 1;
#X obj 265 285 t b f;
#X obj 265 337 list;
#X obj 286 313 r feature-name-list;
#X obj 265 366 list split;
#X obj 75 407 list split 1;
#X obj 75 285 t b f;
#X obj 75 337 list;
#X obj 96 313 r feature-name-list;
#X obj 75 366 list split;
#X obj 75 439 s R-feature-name;
#X obj 265 439 s G-feature-name;
#X obj 455 439 s B-feature-name;
#X obj 455 264 r B-mapping;
#X obj 265 264 r G-mapping;
#X obj 75 264 r R-mapping;
#X msg 616 202 Sample-number Frame-number Brightness Centroid Flatness
Flux Irregularity Kurtosis Skewness Spread Zero-Crossing Pitch Amplitude
BFCC1 BFCC2 BFCC3 BFCC4 BFCC5 BFCC6 BFCC7;
#X connect 0 0 22 0;
#X connect 1 0 2 0;
#X connect 1 1 4 1;
#X connect 2 0 4 0;
#X connect 3 0 2 1;
#X connect 4 1 0 0;
#X connect 6 0 44 0;
#X connect 7 0 9 0;
#X connect 8 0 11 0;
#X connect 8 1 13 1;
#X connect 10 0 8 0;
#X connect 11 0 13 0;
#X connect 12 0 11 1;
#X connect 13 1 7 0;
#X connect 14 0 19 0;
#X connect 15 0 16 0;
#X connect 15 1 18 1;
#X connect 16 0 18 0;
#X connect 17 0 16 1;
#X connect 18 1 14 0;
#X connect 20 0 15 0;
#X connect 21 0 1 0;
#X connect 23 0 40 0;
#X connect 24 0 25 0;
#X connect 24 1 27 1;
#X connect 25 0 27 0;
#X connect 26 0 25 1;
#X connect 27 1 23 0;
#X connect 28 0 39 0;
#X connect 29 0 30 0;
#X connect 29 1 32 1;
#X connect 30 0 32 0;
#X connect 31 0 30 1;
#X connect 32 1 28 0;
#X connect 33 0 38 0;
#X connect 34 0 35 0;
#X connect 34 1 37 1;
#X connect 35 0 37 0;
#X connect 36 0 35 1;
#X connect 37 1 33 0;
#X connect 41 0 24 0;
#X connect 42 0 29 0;
#X connect 43 0 34 0;
#X connect 44 0 5 0;
#X restore 387 338 pd feature-names;
#X symbolatom 369 59 15 0 0 0 - x-feature-name -;
#X symbolatom 369 79 15 0 0 0 - y-feature-name -;
#X symbolatom 369 99 15 0 0 0 - z-feature-name -;
#X symbolatom 368 183 15 0 0 0 - R-feature-name -;
#X symbolatom 368 203 15 0 0 0 - G-feature-name -;
#X symbolatom 368 223 15 0 0 0 - B-feature-name -;
#X text 44 31 X Y Z mapping switches;
#N canvas 361 98 685 573 feature-parsing 0;
#X obj 129 284 list split 1;
#X obj 186 244 r z-mapping;
#X obj -15 33 r feature-list;
#X obj 129 264 list split;
#X obj 79 374 list split 1;
#X obj 79 354 list split;
#X obj 136 334 r y-mapping;
#X obj 29 464 list split 1;
#X obj 29 444 list split;
#X obj 86 424 r x-mapping;
#X obj 411 202 list split 1;
#X obj 411 182 list split;
#X obj 361 292 list split 1;
#X obj 361 272 list split;
#X obj 311 382 list split 1;
#X obj 311 362 list split;
#X obj 368 342 r R-mapping;
#X obj 418 252 r G-mapping;
#X obj 468 162 r B-mapping;
#X obj -15 55 t l l;
#X obj -15 104 t l l l;
#X obj 254 110 t l l l;
#X obj 311 402 pack f f f;
#X obj 311 424 s coord-RGB;
#N canvas 0 22 313 342 scale-z 0;
#X obj 36 30 inlet;
#X obj 68 175 / 2;
#X obj 54 87 t f f;
#X obj 36 138 *;
#X obj 36 203 -;
#X obj 36 252 -;
#X obj 54 66 r z-range;
#X obj 54 228 r z-offset;
#X obj 36 274 s coord-z;
#X connect 0 0 3 0;
#X connect 1 0 4 1;
#X connect 2 0 3 1;
#X connect 2 1 1 0;
#X connect 3 0 4 0;
#X connect 4 0 5 0;
#X connect 5 0 8 0;
#X connect 6 0 2 0;
#X connect 7 0 5 1;
#X restore 129 304 pd scale-z;
#N canvas 0 22 313 342 scale-x 0;
#X obj 36 30 inlet;
#X obj 68 175 / 2;
#X obj 54 87 t f f;
#X obj 36 138 *;
#X obj 36 203 -;
#X obj 36 252 -;
#X obj 36 274 s coord-x;
#X obj 54 228 r x-offset;
#X obj 54 66 r x-range;
#X connect 0 0 3 0;
#X connect 1 0 4 1;
#X connect 2 0 3 1;
#X connect 2 1 1 0;
#X connect 3 0 4 0;
#X connect 4 0 5 0;
#X connect 5 0 6 0;
#X connect 7 0 5 1;
#X connect 8 0 2 0;
#X restore 29 485 pd scale-x;
#N canvas 0 22 313 342 scale-y 0;
#X obj 36 30 inlet;
#X obj 54 66 r y-range;
#X obj 54 228 r y-offset;
#X obj 36 274 s coord-y;
#X obj 68 175 / 2;
#X obj 54 87 t f f;
#X obj 36 138 *;
#X obj 36 203 -;
#X obj 36 252 -;
#X connect 0 0 6 0;
#X connect 1 0 5 0;
#X connect 2 0 8 1;
#X connect 4 0 7 1;
#X connect 5 0 6 1;
#X connect 5 1 4 0;
#X connect 6 0 7 0;
#X connect 7 0 8 0;
#X connect 8 0 3 0;
#X restore 79 394 pd scale-y;
#X connect 0 0 24 0;
#X connect 1 0 3 1;
#X connect 2 0 19 0;
#X connect 3 1 0 0;
#X connect 4 0 26 0;
#X connect 5 1 4 0;
#X connect 6 0 5 1;
#X connect 7 0 25 0;
#X connect 8 1 7 0;
#X connect 9 0 8 1;
#X connect 10 0 22 2;
#X connect 11 1 10 0;
#X connect 12 0 22 1;
#X connect 13 1 12 0;
#X connect 14 0 22 0;
#X connect 15 1 14 0;
#X connect 16 0 15 1;
#X connect 17 0 13 1;
#X connect 18 0 11 1;
#X connect 19 0 20 0;
#X connect 19 1 21 0;
#X connect 20 0 8 0;
#X connect 20 1 5 0;
#X connect 20 2 3 0;
#X connect 21 0 15 0;
#X connect 21 1 13 0;
#X connect 21 2 11 0;
#X connect 22 0 23 0;
#X restore 387 318 pd feature-parsing;
#X text 37 277 Features used here are:;
#X text 37 307 0: sample number;
#X text 37 327 1: frame number;
#X text 37 347 2: brightness;
#X text 37 367 3: centroid;
#X text 37 387 4: flatness;
#X text 37 407 5: flux;
#X text 37 427 6: irregularity;
#X text 197 307 7: kurtosis;
#X text 197 327 8: skewness;
#X text 197 347 9: spread;
#X text 197 367 10: zero crossing;
#X text 197 387 11: pitch;
#X text 197 407 12: amplitude;
#X text 197 427 13-58: BFCCs 1-46 (we dropped BFCC 0);
#X obj -9 1 cnv 10 400 10 empty empty empty 20 12 0 14 -233017 -66577
0;
#X obj -9 1 cnv 10 10 400 empty empty empty 20 12 0 14 -233017 -66577
0;
#X restore 194 134 pd set-dimensions;
#X obj 194 88 hradio 15 1 1 20 x-mapping-set x-mapping-set-set X -16
8 0 12 -262144 -1 -1 12;
#X obj 194 108 hradio 15 1 1 20 y-mapping-set y-mapping-set-set Y -16
8 0 12 -262144 -1 -1 3;
#X symbolatom 507 88 15 0 0 0 - x-feature-name -;
#X symbolatom 507 108 15 0 0 0 - y-feature-name -;
#X obj 1 1 cnv 10 400 10 empty empty empty 20 12 0 14 -233017 -66577
0;
#X obj 1 1 cnv 10 10 400 empty empty empty 20 12 0 14 -233017 -66577
0;
#X floatatom 355 344 5 0 0 1 offset-x zoom-control-x-offset-set zoom-control-x-offset
;
#X floatatom 355 364 5 0 0 1 offset-y zoom-control-y-offset-set zoom-control-y-offset
;
#X floatatom 246 344 5 0 0 1 zoom-x zoom-control-x-range-set zoom-control-x-range
;
#X floatatom 246 364 5 0 0 1 zoom-y zoom-control-y-range-set zoom-control-y-range
;
#N canvas 707 92 538 589 init 1;
#X obj 43 34 loadbang;
#X msg 43 344 \; pd dsp 1 \;;
#X obj 244 115 s lb1;
#X obj 226 141 s lb2;
#X obj 208 170 s lb3;
#X obj 43 55 t b b b b b b;
#X obj 43 411 declare -path ./abstractions;
#X obj 45 436 declare -lib Gem;
#X obj 46 461 declare -lib hcs;
#X msg 253 281 \; db-thresh 0 \; x-mapping-set-set 12 \; y-mapping-set-set
3 \; z-mapping-set 9 \; R-mapping-set 13 \; G-mapping-set 14 \; B-mapping-set
15 \; ortho-switch-set 1 \; render-snapshot-set 1 \; render-light-set
1 \; render-points 0 \; reset-axes bang \; samplerate 44100 \; num-player-voices
32 \; mouse-radius-set 0.25 \; max-sample-length 1.411e+07 \; master-volume-set
90 \;;
#X connect 0 0 5 0;
#X connect 5 0 1 0;
#X connect 5 1 9 0;
#X connect 5 3 4 0;
#X connect 5 4 3 0;
#X connect 5 5 2 0;
#X restore 36 43 pd init;
#X obj 183 36 cnv 15 256 30 empty empty empty 20 12 0 14 -261234 -66577
0;
#N canvas 188 134 836 729 analysis 1;
#X obj 31 118 s window-size;
#X obj 93 558 bng 15 250 50 0 empty empty empty 17 7 0 10 -258113 -1
-1;
#X obj 30 496 bng 15 250 50 0 empty empty empty 17 7 0 10 -4034 -1
-1;
#N canvas 363 120 835 602 analysis 0;
#X obj 604 224 cnv 15 200 30 empty empty empty 20 12 0 14 -261234 -66577
0;
#X text 614 230 Write analysis file;
#X obj 604 281 inlet;
#N canvas 176 224 833 330 multiple 0;
#X text 381 -84 Features used here are:;
#X obj 66 -142 inlet;
#N canvas 153 113 865 644 feature-0-2 0;
#X obj 201 56 inlet;
#X obj 189 560 outlet;
#X obj 491 315 list append;
#X obj 189 459 list append;
#X obj 320 274 f;
#X obj 350 274 + 1;
#X msg 335 239 0;
#X obj 335 217 r reset-instance-count;
#X obj 491 80 r samplerate;
#X msg 491 101 samplerate \$1;
#X obj 591 80 r current-analysis-sample;
#X msg 591 101 set tID-sample-\$1;
#X obj 320 365 list append;
#X obj 84 402 f;
#X obj 99 379 r current-analysis-sample;
#X obj 201 106 t b b a;
#X obj 583 247 inlet;
#X obj 491 154 tID/specBrightness tID-sample-0 1200;
#X connect 0 0 15 0;
#X connect 2 0 12 1;
#X connect 3 0 1 0;
#X connect 4 0 5 0;
#X connect 4 0 12 0;
#X connect 5 0 4 1;
#X connect 6 0 4 1;
#X connect 7 0 6 0;
#X connect 8 0 9 0;
#X connect 9 0 17 0;
#X connect 10 0 11 0;
#X connect 11 0 17 0;
#X connect 12 0 3 1;
#X connect 13 0 3 0;
#X connect 14 0 13 1;
#X connect 15 0 13 0;
#X connect 15 1 4 0;
#X connect 15 2 17 0;
#X connect 16 0 2 1;
#X connect 17 0 2 0;
#X restore 53 93 pd feature-0-2;
#N canvas 0 22 1159 470 features-3-6 0;
#X obj 66 48 inlet;
#X obj 584 263 list append;
#X obj 46 363 list append;
#X obj 400 293 list append;
#X obj 775 164 r samplerate;
#X msg 775 185 samplerate \$1;
#X obj 230 323 list append;
#X obj 875 164 r current-analysis-sample;
#X msg 875 185 set tID-sample-\$1;
#X obj 66 78 t a a a a;
#X obj 46 385 outlet;
#X obj 647 233 inlet;
#X obj 46 202 tID/specCentroid tID-sample-0;
#X obj 230 202 tID/specFlatness tID-sample-0;
#X obj 408 202 tID/specFlux tID-sample-0 256;
#X obj 595 202 tID/specIrregularity tID-sample-0;
#X connect 0 0 9 0;
#X connect 1 0 3 1;
#X connect 2 0 10 0;
#X connect 3 0 6 1;
#X connect 4 0 5 0;
#X connect 5 0 12 0;
#X connect 5 0 14 0;
#X connect 5 0 15 0;
#X connect 6 0 2 1;
#X connect 7 0 8 0;
#X connect 8 0 12 0;
#X connect 8 0 13 0;
#X connect 8 0 14 0;
#X connect 8 0 15 0;
#X connect 9 0 12 0;
#X connect 9 1 13 0;
#X connect 9 2 14 0;
#X connect 9 3 15 0;
#X connect 11 0 1 1;
#X connect 12 0 2 0;
#X connect 13 0 6 0;
#X connect 14 0 3 0;
#X connect 15 0 1 0;
#X restore 99 35 pd features-3-6;
#X obj 53 130 outlet;
#X text 381 -54 0: sample number;
#X text 381 -34 1: frame number;
#X text 381 -14 2: brightness;
#X text 381 6 3: centroid;
#X text 381 26 4: flatness;
#X text 381 46 5: flux;
#X text 381 66 6: irregularity;
#X text 541 -54 7: kurtosis;
#X text 541 -34 8: skewness;
#X text 541 -14 9: spread;
#X text 541 6 10: zero crossing;
#X text 541 26 11: pitch;
#X text 541 46 12: amplitude;
#X text 541 66 13-58: BFCCs 1-46 (we dropped BFCC 0);
#X obj 66 -121 t a a a a;
#N canvas 0 22 978 430 features-7-9 0;
#X obj 56 301 list append;
#X obj 226 43 t a a a;
#X obj 56 323 outlet;
#X obj 226 23 inlet;
#X obj 531 238 inlet;
#X obj 246 261 list append;
#X obj 426 221 list append;
#X obj 646 162 r samplerate;
#X msg 646 183 samplerate \$1;
#X obj 756 162 r current-analysis-sample;
#X msg 756 183 set tID-sample-\$1;
#X obj 56 200 tID/specKurtosis tID-sample-0;
#X obj 246 200 tID/specSkewness tID-sample-0;
#X obj 426 200 tID/specSpread tID-sample-0;
#X connect 0 0 2 0;
#X connect 1 0 11 0;
#X connect 1 1 12 0;
#X connect 1 2 13 0;
#X connect 3 0 1 0;
#X connect 4 0 6 1;
#X connect 5 0 0 1;
#X connect 6 0 5 1;
#X connect 7 0 8 0;
#X connect 8 0 11 0;
#X connect 8 0 12 0;
#X connect 8 0 13 0;
#X connect 9 0 10 0;
#X connect 10 0 11 0;
#X connect 10 0 12 0;
#X connect 10 0 13 0;
#X connect 11 0 0 0;
#X connect 12 0 5 0;
#X connect 13 0 6 0;
#X restore 160 -6 pd features-7-9;
#N canvas 31 52 1019 569 features-10-58 0;
#X obj 422 -26 inlet;
#X obj 673 221 list split 1;
#X obj 267 361 list append;
#X obj 457 311 list append;
#X obj 580 271 list append;
#X obj 267 401 outlet;
#X obj 732 121 r samplerate;
#X msg 732 142 samplerate \$1;
#X obj 832 121 r current-analysis-sample;
#X msg 832 142 set tID-sample-\$1;
#N canvas 654 79 591 435 sigmund-pitch-env 0;
#X obj 76 272 moses 21;
#X obj 76 293 t b;
#X msg 76 313 20;
#X obj 76 241 sigmund~ -t pitch env;
#X obj 42 104 list split 1;
#X obj 76 172 list append;
#X obj 165 83 r current-analysis-sample;
#X obj 165 135 pack f f;
#X obj 210 111 r samplerate;
#X obj 76 359 outlet;
#X obj 199 319 outlet;
#X obj 42 37 inlet;
#X msg 76 198 list tID-sample-\$3 \$2 \$1 \$4 0;
#X connect 0 0 1 0;
#X connect 0 1 9 0;
#X connect 1 0 2 0;
#X connect 2 0 9 0;
#X connect 3 0 0 0;
#X connect 3 1 10 0;
#X connect 4 1 5 0;
#X connect 5 0 12 0;
#X connect 6 0 7 0;
#X connect 7 0 5 1;
#X connect 8 0 7 1;
#X connect 11 0 4 0;
#X connect 12 0 3 0;
#X restore 457 232 pd sigmund-pitch-env;
#X obj 136 164 r current-analysis-sample;
#X msg 136 185 set tID-sample-\$1;
#X obj 422 20 t a a a;
#X obj 267 300 tID/zeroCrossing tID-sample-0;
#X obj 673 200 tID/bfcc tID-sample-0 0.5;
#X connect 0 0 13 0;
#X connect 1 1 4 1;
#X connect 2 0 5 0;
#X connect 3 0 2 1;
#X connect 4 0 3 1;
#X connect 6 0 7 0;
#X connect 7 0 15 0;
#X connect 8 0 9 0;
#X connect 9 0 15 0;
#X connect 10 0 3 0;
#X connect 10 1 4 0;
#X connect 11 0 12 0;
#X connect 12 0 14 0;
#X connect 13 0 14 0;
#X connect 13 1 10 0;
#X connect 13 2 15 0;
#X connect 14 0 2 0;
#X connect 15 0 1 0;
#X restore 220 -58 pd features-10-58;
#X connect 1 0 19 0;
#X connect 2 0 4 0;
#X connect 3 0 2 1;
#X connect 19 0 2 0;
#X connect 19 1 3 0;
#X connect 19 2 20 0;
#X connect 19 3 21 0;
#X connect 20 0 3 1;
#X connect 21 0 20 1;
#X restore 114 255 pd multiple analyses;
#X obj 254 344 s \$0-tID;
#X obj 114 424 outlet;
#X msg 97 459 normalize 1;
#X obj 97 480 s \$0-tID;
#X obj 43 46 inlet;
#X text 190 458 Normalize the analysis feature database when finished.
;
#X obj 604 376 s \$0-tID;
#X text 197 106 First \, clear timbreID's memory and reset the instance
counter;
#X obj 152 349 list length;
#X obj 131 374 f;
#X obj 131 396 s feature-length;
#N canvas 617 113 460 587 prep-analysis-message 0;
#X obj 102 27 inlet;
#X obj 102 197 f;
#X obj 142 197 + 1;
#X msg 173 167 0;
#X obj 102 327 until;
#X obj 102 384 f;
#X obj 102 143 until;
#X obj 123 59 r num-samples;
#X obj 102 86 f;
#X msg 102 524 analyze \$1 \$2;
#X obj 102 497 pack f f;
#X obj 102 113 t f b;
#X obj 102 220 t f f;
#X obj 219 460 r window-size;
#X obj 215 312 s current-analysis-sample;
#X obj 102 546 outlet;
#X obj 102 257 tabread sample-frames;
#X obj 142 384 + 1;
#X obj 102 426 tabread frame-start-samp;
#X connect 0 0 8 0;
#X connect 1 0 2 0;
#X connect 1 0 12 0;
#X connect 2 0 1 1;
#X connect 3 0 1 1;
#X connect 3 0 5 1;
#X connect 4 0 5 0;
#X connect 5 0 17 0;
#X connect 5 0 18 0;
#X connect 6 0 1 0;
#X connect 7 0 8 1;
#X connect 8 0 11 0;
#X connect 9 0 15 0;
#X connect 10 0 9 0;
#X connect 11 0 6 0;
#X connect 11 1 3 0;
#X connect 12 0 16 0;
#X connect 12 1 14 0;
#X connect 13 0 10 1;
#X connect 16 0 4 0;
#X connect 17 0 5 1;
#X connect 18 0 10 0;
#X restore 114 220 pd prep-analysis-message;
#X obj 140 180 s \$0-tID;
#X msg 140 159 clear;
#X obj 197 142 s reset-instance-count;
#X obj 114 304 t b b l l;
#N canvas 307 105 429 550 store-max-min 0;
#X obj 37 29 inlet;
#X obj 277 146 s \$0-tID;
#X msg 277 125 min_values;
#X obj 240 181 r feature-list;
#X obj 219 201 list;
#X obj 219 223 list prepend 0;
#X obj 219 245 s min-values;
#X obj 157 296 s \$0-tID;
#X obj 120 331 r feature-list;
#X obj 99 351 list;
#X obj 99 373 list prepend 0;
#X msg 157 275 max_values;
#X obj 99 395 s max-values;
#X obj 37 52 t b b b b b;
#X obj 37 444 s update-bfcc-max-min;
#X connect 0 0 13 0;
#X connect 2 0 1 0;
#X connect 3 0 4 1;
#X connect 4 0 5 0;
#X connect 5 0 6 0;
#X connect 8 0 9 1;
#X connect 9 0 10 0;
#X connect 10 0 12 0;
#X connect 11 0 7 0;
#X connect 13 0 14 0;
#X connect 13 1 9 0;
#X connect 13 2 11 0;
#X connect 13 3 4 0;
#X connect 13 4 2 0;
#X restore 43 522 pd store-max-min;
#X obj 43 67 t b b b b b;
#X obj 328 31 inlet;
#X obj 328 53 openpanel;
#X obj 448 130 s load-timid;
#X obj 604 313 savepanel;
#X obj 328 75 t b b b b b a;
#X msg 414 175 feature_list 0;
#X obj 414 197 s \$0-tID;
#X obj 419 226 r feature-list;
#X obj 419 247 list length;
#X obj 401 274 f;
#X msg 604 335 write \$1;
#X obj 401 295 s feature-length;
#X connect 2 0 25 0;
#X connect 3 0 19 0;
#X connect 6 0 7 0;
#X connect 8 0 21 0;
#X connect 12 0 13 1;
#X connect 13 0 14 0;
#X connect 15 0 3 0;
#X connect 17 0 16 0;
#X connect 19 0 5 0;
#X connect 19 1 13 0;
#X connect 19 2 12 0;
#X connect 19 3 4 0;
#X connect 21 0 20 0;
#X connect 21 1 6 0;
#X connect 21 2 15 0;
#X connect 21 3 17 0;
#X connect 21 4 18 0;
#X connect 22 0 23 0;
#X connect 23 0 26 0;
#X connect 25 0 32 0;
#X connect 26 0 20 0;
#X connect 26 1 6 0;
#X connect 26 2 31 0;
#X connect 26 3 27 0;
#X connect 26 4 18 0;
#X connect 26 5 24 0;
#X connect 27 0 28 0;
#X connect 29 0 30 0;
#X connect 30 0 31 1;
#X connect 31 0 33 0;
#X connect 32 0 10 0;
#X restore 30 583 pd analysis;
#X obj 30 609 bng 15 250 50 0 empty empty Done 17 7 0 12 -262144 -1
-1;
#X obj 61 534 bng 15 250 50 0 empty empty empty 17 7 0 12 -4034 -1
-1;
#X text 55 507 ...OR...;
#N canvas 628 126 444 409 tID-samples 0;
#N canvas 296 22 908 679 load-samples 0;
#X obj 278 199 f;
#X obj 308 199 + 1;
#X msg 296 170 0;
#X obj 674 393 / 5;
#X obj 674 417 i;
#X obj 574 474 pack f f f;
#X obj 607 401 % 5;
#X obj 278 506 soundfiler;
#X obj 674 441 * 50;
#X obj 607 425 * 150;
#X obj 213 137 t b a;
#X obj 159 291 f;
#X obj 159 317 + 1;
#X msg 574 504 \; pd-sample-bank obj \$2 \$3 table tID-sample-\$1;
#X obj 213 108 folder_list;
#X obj 179 36 symbol;
#X obj 179 16 r sample-directory;
#N canvas 10 85 450 300 store-sample-names 0;
#X obj 74 44 inlet;
#X obj 184 44 inlet;
#X obj 119 163 list prepend;
#X obj 207 163 t l;
#X obj 98 191 list;
#X obj 98 213 s sample-name-list;
#X obj 118 106 split_path;
#X obj 188 136 r sample-load-reset;
#X connect 0 0 4 0;
#X connect 1 0 6 0;
#X connect 2 0 3 0;
#X connect 2 0 4 1;
#X connect 3 0 2 1;
#X connect 4 0 5 0;
#X connect 6 1 2 0;
#X connect 7 0 2 1;
#X restore 19 235 pd store-sample-names;
#X msg 29 106 \; pd dsp 1 \;;
#X obj 278 554 list prepend;
#X obj 366 554 t l;
#X obj 257 582 list;
#X obj 257 604 list prepend 0;
#X obj 257 626 s sample-lengths;
#X obj 58 442 s num-samples;
#N canvas 532 140 481 372 resize-samp-lengths 0;
#X obj 108 71 moses 2;
#X obj 59 185 t b;
#X text 63 260 Special case for num-samples==1;
#X obj 108 36 inlet;
#X msg 59 207 \; sample-lengths resize 2 \;;
#X msg 178 121 \; sample-lengths resize \$1 \;;
#X connect 0 0 1 0;
#X connect 0 1 5 0;
#X connect 1 0 4 0;
#X connect 3 0 0 0;
#X restore 222 373 pd resize-samp-lengths;
#N canvas 194 162 710 456 reset-stuff 0;
#X obj 62 37 inlet;
#X obj 201 257 t f b;
#X obj 201 280 until;
#X obj 201 333 f;
#X obj 241 333 + 1;
#X msg 226 308 0;
#X obj 201 227 f;
#X obj 216 201 r num-player-voices;
#X msg 208 158 \; pd dsp 0 \;;
#X msg 31 357 \; pd-sample-bank clear \;;
#X msg 201 355 \; play-\$1 0 -1 \;;
#X obj 63 60 t b b b b;
#X obj 302 136 s sample-load-reset;
#X text 301 263 Turn DSP off then back on later so we don't get complaints
from tabplay~ saying the array disappeared. We also have to set all
the tabplay~ arrays to the dummy (-1) array since that'll be the only
thing that will be guaranteed to exist after the clear.;
#X connect 0 0 11 0;
#X connect 1 0 2 0;
#X connect 1 1 5 0;
#X connect 2 0 3 0;
#X connect 3 0 4 0;
#X connect 3 0 10 0;
#X connect 4 0 3 1;
#X connect 5 0 3 1;
#X connect 6 0 1 0;
#X connect 7 0 6 1;
#X connect 11 0 9 0;
#X connect 11 1 6 0;
#X connect 11 2 8 0;
#X connect 11 3 12 0;
#X restore 327 106 pd reset-stuff;
#X obj 347 529 r sample-load-reset;
#X obj 179 62 t b b a b;
#X obj 296 148 r sample-load-reset;
#X obj 278 450 pack f s f;
#X msg 278 482 read -resize -maxsize \$3 \$2 tID-sample-\$1;
#X text 373 450 set maxsize in [pd init];
#X obj 334 421 r max-sample-length;
#X obj 278 250 t f f f f;
#N canvas 532 140 593 408 rebound-samp-lengths 0;
#X msg 141 148 max;
#X obj 215 142 - 1;
#X obj 108 71 moses 2;
#X msg -37 205 max;
#X obj -37 178 t b;
#X text -27 345 Special case for num-samples==1;
#X obj 108 36 inlet;
#X obj -37 258 max 1;
#X obj 141 201 max 1;
#X obj 189 232 pack f f;
#X msg 189 272 \; sample-lengths bounds 0 \$1 \$2 0 \;;
#X obj 169 101 t b f;
#X msg -37 291 \; sample-lengths bounds 0 \$1 1 0 \; sample-lengths
1 0 \;;
#X obj -37 227 tID/tabletool sample-lengths;
#X obj 141 170 tID/tabletool sample-lengths;
#X connect 0 0 14 0;
#X connect 1 0 9 1;
#X connect 2 0 4 0;
#X connect 2 1 11 0;
#X connect 3 0 13 0;
#X connect 4 0 3 0;
#X connect 6 0 2 0;
#X connect 7 0 12 0;
#X connect 8 0 9 0;
#X connect 9 0 10 0;
#X connect 11 0 0 0;
#X connect 11 1 1 0;
#X connect 13 0 7 0;
#X connect 14 0 8 0;
#X restore 124 410 pd rebound-samp-lengths;
#X obj 159 342 t f f b f;
#X connect 0 0 1 0;
#X connect 0 0 11 1;
#X connect 0 0 34 0;
#X connect 1 0 0 1;
#X connect 2 0 0 1;
#X connect 3 0 4 0;
#X connect 4 0 8 0;
#X connect 5 0 13 0;
#X connect 6 0 9 0;
#X connect 7 0 19 0;
#X connect 8 0 5 2;
#X connect 9 0 5 1;
#X connect 10 0 0 0;
#X connect 10 1 17 1;
#X connect 10 1 30 1;
#X connect 11 0 12 0;
#X connect 12 0 36 0;
#X connect 14 0 10 0;
#X connect 15 0 28 0;
#X connect 16 0 15 0;
#X connect 19 0 20 0;
#X connect 19 0 21 1;
#X connect 20 0 19 1;
#X connect 21 0 22 0;
#X connect 22 0 23 0;
#X connect 27 0 19 1;
#X connect 28 0 18 0;
#X connect 28 1 11 0;
#X connect 28 1 17 0;
#X connect 28 2 14 0;
#X connect 28 3 26 0;
#X connect 29 0 2 0;
#X connect 30 0 31 0;
#X connect 31 0 7 0;
#X connect 33 0 30 2;
#X connect 34 0 30 0;
#X connect 34 1 5 0;
#X connect 34 2 6 0;
#X connect 34 3 3 0;
#X connect 36 0 24 0;
#X connect 36 1 35 0;
#X connect 36 2 21 0;
#X connect 36 3 25 0;
#X restore 9 22 pd load-samples;
#N canvas 280 208 874 622 sample-bank 0;
#X obj 0 0 table tID-sample-0;
#X restore 9 82 pd sample-bank;
#X obj 9 172 table sample-frames;
#N canvas 433 106 854 716 get-num-frames 0;
#X msg 161 496 max;
#X obj 260 459 - 1;
#X msg 296 440 sum;
#X obj 169 27 r num-samples;
#N canvas 13 88 653 643 get-frame-locations 0;
#X obj 94 13 inlet;
#X obj 324 133 until;
#X obj 324 249 f;
#X obj 364 249 + 1;
#X msg 349 224 0;
#X obj 324 479 tabwrite frame-locations;
#X obj 324 332 until;
#X obj 368 372 f;
#X obj 408 372 + 1;
#X msg 393 347 0;
#X obj 324 302 tabread sample-frames;
#X obj 368 398 t b f;
#X obj 324 432 f;
#X obj 324 272 t f f;
#X msg 64 391 max;
#X obj 125 475 - 1;
#X obj 64 530 pack f f;
#X obj 94 59 t b f b;
#X obj 125 455 r num-frames-total;
#X msg 64 553 \; frame-locations bounds 0 \$1 \$2 0 \;;
#X obj 64 443 max 1;
#X obj 125 497 max 1;
#X obj 64 421 tID/tabletool frame-locations;
#X connect 0 0 17 0;
#X connect 1 0 2 0;
#X connect 2 0 3 0;
#X connect 2 0 13 0;
#X connect 3 0 2 1;
#X connect 4 0 2 1;
#X connect 6 0 7 0;
#X connect 7 0 8 0;
#X connect 7 0 11 0;
#X connect 8 0 7 1;
#X connect 9 0 7 1;
#X connect 10 0 6 0;
#X connect 11 0 12 0;
#X connect 11 1 5 1;
#X connect 12 0 5 0;
#X connect 13 0 10 0;
#X connect 13 1 12 1;
#X connect 14 0 22 0;
#X connect 15 0 21 0;
#X connect 16 0 19 0;
#X connect 17 0 14 0;
#X connect 17 1 1 0;
#X connect 17 2 4 0;
#X connect 17 2 9 0;
#X connect 18 0 15 0;
#X connect 20 0 16 0;
#X connect 21 0 16 1;
#X connect 22 0 20 0;
#X restore 25 184 pd get-frame-locations;
#X obj 496 178 moses 2;
#X obj 221 430 moses 2;
#X text 498 337 Special case for num-samples==1;
#N canvas 134 32 1093 751 get-number-of-frames 0;
#X obj 60 60 t f b;
#X obj 60 83 until;
#X obj 60 136 f;
#X obj 100 136 + 1;
#X msg 75 111 0;
#X obj 425 176 tabread sample-lengths;
#X obj 30 384 tabwrite sample-frames;
#X msg 319 451 list tID-sample-\$3 \$2 \$1 \$4 0;
#X obj 60 32 inlet;
#X obj 292 195 until;
#X obj 413 390 r samplerate;
#X obj 410 297 r window-size;
#X obj 319 421 pack f f f f;
#X obj 319 296 f;
#X msg 334 266 0;
#X obj 359 296 +;
#X obj 30 360 f;
#X obj 410 218 >;
#X obj 425 198 -;
#X obj 410 240 select 1;
#X obj 460 198 r window-size;
#X obj 59 331 f;
#X msg 74 301 1;
#X obj 319 552 >=;
#X obj 334 522 r db-thresh;
#X obj 99 331 + 1;
#X obj 319 574 select 1;
#X obj 359 318 t f f;
#X obj 396 73 s get-num-frames-reset;
#X obj 366 266 r get-num-frames-reset;
#X obj 59 256 r get-num-frames-reset;
#X obj 336 102 s get-num-frames-sample-idx;
#X obj 425 149 r get-num-frames-sample-idx;
#X obj 399 366 r get-num-frames-sample-idx;
#X obj 103 356 r get-num-frames-sample-idx;
#X obj 275 34 t b b f b;
#X text 426 326 Traverse the sample and check that each frame is above
our db-thresh \, keeping count of those that are.;
#X msg 30 298 0;
#X text 393 551 disabling db-thresh feature as of examples 0.6.4 \;
This select output used to increment the sample frames counter at left.
;
#X obj 319 494 sigmund~ -t env;
#X obj 301 330 t f f f;
#X obj 464 628 f;
#X text 594 673 not the "get-num-frames-reset" \, because that starts
over on every sample;
#X obj 464 670 list prepend;
#X obj 552 670 t l;
#X obj 533 643 r sample-load-reset;
#X obj 464 692 outlet;
#X connect 0 0 1 0;
#X connect 0 1 4 0;
#X connect 1 0 2 0;
#X connect 2 0 3 0;
#X connect 2 0 35 0;
#X connect 3 0 2 1;
#X connect 4 0 2 1;
#X connect 5 0 18 0;
#X connect 7 0 39 0;
#X connect 8 0 0 0;
#X connect 9 0 13 0;
#X connect 10 0 12 3;
#X connect 11 0 12 1;
#X connect 11 0 15 1;
#X connect 12 0 7 0;
#X connect 13 0 40 0;
#X connect 14 0 13 1;
#X connect 15 0 27 0;
#X connect 16 0 6 0;
#X connect 17 0 19 0;
#X connect 18 0 17 1;
#X connect 19 0 9 1;
#X connect 20 0 18 1;
#X connect 21 0 16 1;
#X connect 21 0 25 0;
#X connect 22 0 21 1;
#X connect 23 0 26 0;
#X connect 24 0 23 1;
#X connect 25 0 21 1;
#X connect 26 0 21 0;
#X connect 26 0 41 0;
#X connect 27 0 13 1;
#X connect 27 1 17 0;
#X connect 29 0 14 0;
#X connect 30 0 22 0;
#X connect 30 0 37 0;
#X connect 32 0 5 0;
#X connect 33 0 12 2;
#X connect 34 0 6 1;
#X connect 35 0 16 0;
#X connect 35 1 9 0;
#X connect 35 2 31 0;
#X connect 35 3 28 0;
#X connect 37 0 16 1;
#X connect 39 0 23 0;
#X connect 40 0 12 0;
#X connect 40 1 41 1;
#X connect 40 2 15 0;
#X connect 41 0 43 0;
#X connect 43 0 44 0;
#X connect 43 0 46 0;
#X connect 44 0 43 1;
#X connect 45 0 43 1;
#X restore 270 177 pd get-number-of-frames;
#X obj 161 240 list;
#X obj 161 262 list prepend 0;
#X obj 161 284 s frame-start-samp;
#X obj 169 70 t f b f f f;
#X obj 223 348 t b f b;
#X obj 209 555 pack f f f;
#X msg 209 595 \; sample-frames bounds 0 \$1 \$2 0 \; frame-locations
resize \$3 \; frame-start-samp resize \$3 \; num-frames-total \$3 \;
;
#X msg 544 202 \; sample-frames resize \$1 \;;
#X msg 496 272 \; sample-frames resize 2 \; sample-frames 1 0 \;;
#X obj 161 526 tID/tabletool sample-frames;
#X obj 296 470 tID/tabletool sample-frames;
#X connect 0 0 18 0;
#X connect 1 0 14 1;
#X connect 2 0 19 0;
#X connect 3 0 12 0;
#X connect 5 0 17 0;
#X connect 5 1 16 0;
#X connect 6 0 14 1;
#X connect 6 1 1 0;
#X connect 8 0 9 1;
#X connect 9 0 10 0;
#X connect 10 0 11 0;
#X connect 12 0 4 0;
#X connect 12 1 9 0;
#X connect 12 2 13 0;
#X connect 12 3 8 0;
#X connect 12 4 5 0;
#X connect 13 0 0 0;
#X connect 13 1 6 0;
#X connect 13 2 2 0;
#X connect 14 0 15 0;
#X connect 18 0 14 0;
#X connect 19 0 14 2;
#X restore 9 52 pd get-num-frames;
#X obj 9 202 table frame-locations;
#N canvas 412 79 560 268 notes 0;
#X text 52 50 For each sample \, find out how many frames are in it
based on window size \, hop \, and sample length.;
#X text 50 127 Get numFrames for all samples. Sum up all the numFrames
for all samples \, and make a table of that length. That'll be our
lookup table to see which sample houses frame number X when it comes
out of timbreID;
#X text 50 94 numFrames = floor((sampLength-window)/hop);
#X restore 274 253 pd notes;
#X obj 9 142 table sample-lengths;
#X obj 132 82 table tID-sample--1;
#X text 268 82 A dummy table;
#X obj 9 262 table max-values;
#X obj 9 292 table min-values;
#X obj 264 140 r feature-length;
#X msg 264 162 \; min-values resize \$1 \; max-values resize \$1 \;
;
#X obj 9 232 table frame-start-samp;
#X connect 11 0 12 0;
#X restore 549 462 pd tID-samples;
#X msg 71 350 ../sound/individual-samples/*.wav;
#X obj 31 384 s sample-directory;
#X msg 31 320 ../sound/voice.wav;
#X msg 111 77 4096;
#X msg 31 77 1024;
#X msg 71 77 2048;
#N canvas 188 158 727 377 grain-info 0;
#X obj 65 230 r samplerate;
#X obj 45 253 /;
#X obj 45 31 r current-playback-frame;
#X obj 377 51 r current-playback-sample;
#X obj 377 159 list;
#X obj 398 135 r sample-name-list;
#X obj 377 227 list split 1;
#X obj 377 196 list split;
#X obj 45 124 t f f;
#X obj 175 200 r samplerate;
#X obj 155 223 /;
#X obj 175 150 r window-size;
#X obj 155 173 +;
#X obj 45 274 s grain-info-seconds-start-set;
#X obj 377 257 s grain-info-file-name-set;
#X obj 155 244 s grain-info-seconds-end-set;
#X obj 377 73 t b f f;
#X obj 437 105 s grain-info-sample-number-set;
#X obj 80 57 s grain-info-frame-number-set;
#X obj 45 102 tabread frame-start-samp;
#X connect 0 0 1 1;
#X connect 1 0 13 0;
#X connect 2 0 18 0;
#X connect 2 0 19 0;
#X connect 3 0 16 0;
#X connect 4 0 7 0;
#X connect 5 0 4 1;
#X connect 6 0 14 0;
#X connect 7 1 6 0;
#X connect 8 0 1 0;
#X connect 8 1 12 0;
#X connect 9 0 10 1;
#X connect 10 0 15 0;
#X connect 11 0 12 1;
#X connect 12 0 10 0;
#X connect 16 0 4 0;
#X connect 16 1 7 1;
#X connect 16 2 17 0;
#X connect 19 0 8 0;
#X restore 549 482 pd grain-info;
#X obj 408 292 bng 15 250 50 0 empty empty empty 17 7 0 10 -262144
-1 -1;
#X obj 408 312 openpanel;
#X obj 408 334 split_path;
#X obj 508 398 s sample-directory;
#X msg 408 356 \$1/*.wav;
#X obj 545 331 bng 15 250 50 0 empty empty empty 17 7 0 10 -262144
-1 -1;
#X obj 545 351 openpanel;
#X text 83 534 Load a previously-stored analysis file;
#X msg 155 77 8192;
#X text 114 558 Store analysis results to a separate file for later
(add the .timid file extension when you name it).;
#X text 565 330 Single file;
#X obj 27 669 cnv 15 1 1 empty empty 5) 0 0 0 28 -233017 -66577 0;
#X obj 31 44 cnv 15 1 1 empty empty 1) 0 0 0 28 -233017 -66577 0;
#X obj 31 184 cnv 15 1 1 empty empty 3) 0 0 0 28 -233017 -66577 0;
#X text 71 458 Analyze. This will choke Pd for a few seconds;
#X obj 31 464 cnv 15 1 1 empty empty 4) 0 0 0 28 -233017 -66577 0;
#X text 72 29 Set a grain size in samples;
#X text 72 46 (should be a power of 2);
#X text 429 291 Entire folder of .wav files;
#X text 66 650 Go back to the parent patch \, turn on GEM rendering
\, click "Plot" \, and turn on "Mouseover". Pick different features
for the axes and click "Plot" again as needed.;
#N canvas 84 65 450 288 OPENPANEL-notes 0;
#X msg 83 164 \$1/*.wav;
#X msg 263 164 \$1/*.aiff;
#X text 187 164 or;
#X text 37 31 If you're using [openpanel] to navigate to a single audio
file via the OS's dialog box \, you can simply route its symbol output
to [s sample-directory] as shown here. Loading an entire directory
of audio files is a little different. You can't directly select a directory
using [openpanel]. Instead \, select one of the files in that directory
\, and use [split_path] as shown to grab the directory name. That can
be fed to a message like;
#X text 37 201 in order to load all the .wav or .aiff files in the
directory. There may be a better strategy in the future - tweak this
example as needed.;
#X restore 408 248 pd OPENPANEL-notes;
#X obj 408 178 cnv 15 400 60 empty empty empty 20 12 0 14 -261234 -66577
0;
#X text 422 190 NOTE: this patch now *requires* [folder_list] and [split_path]
from the hcs library in Pd-extended.;
#X obj 361 119 s db-thresh;
#X msg 441 77 70;
#X msg 361 77 0;
#X msg 401 77 40;
#X obj 361 44 cnv 15 1 1 empty empty 2) 0 0 0 28 -233017 -66577 0;
#X text 410 26 Choose a threshold in dB. Grains below this threshold
won't be included in the plot \, which is good when you don't want
to bother plotting gaps of silence.;
#X text 539 248 <<<<< More details on using [openpanel];
#X text 28 208 Provide a path to load a single soundfile or an entire
folder of soundfiles to analyze. The patch will make more sample arrays
for you as needed. Use a wildcard like *.wav to load only wav files
\, for instance. The default maximum length of samples is 1 minute
\, but you can change that in the [pd init] sub-patch at the parent
level. You can also use the [openpanel] buttons at right >>>>>>;
#X connect 1 0 3 2;
#X connect 2 0 3 0;
#X connect 3 0 4 0;
#X connect 5 0 3 1;
#X connect 8 0 9 0;
#X connect 10 0 9 0;
#X connect 11 0 0 0;
#X connect 12 0 0 0;
#X connect 13 0 0 0;
#X connect 15 0 16 0;
#X connect 16 0 17 0;
#X connect 17 0 19 0;
#X connect 19 0 18 0;
#X connect 20 0 21 0;
#X connect 21 0 18 0;
#X connect 23 0 0 0;
#X connect 39 0 38 0;
#X connect 40 0 38 0;
#X connect 41 0 38 0;
#X restore 194 43 pd analysis;
#X text 279 43 <<<<< START HERE;
#X obj 36 148 tgl 15 0 render-on render-on-set GEM-render 17 7 0 12
-262144 -1 -1 0 1;
#N canvas 48 23 545 565 grain-info-display 0;
#X symbolatom 14 35 30 0 0 2 file-name grain-info-file-name-set -;
#X floatatom 14 85 10 0 0 3 start grain-info-seconds-start-set -;
#X floatatom 114 85 10 0 0 3 end grain-info-seconds-end-set -;
#X text 11 66 Location (seconds);
#X floatatom 264 35 10 0 0 2 sample-number grain-info-sample-number-set
-;
#X floatatom 264 85 10 0 0 2 frame-number grain-info-frame-number-set
-;
#N canvas 313 127 916 542 display-bfccs 0;
#X obj 68 114 r feature-list;
#X obj 47 138 list;
#X msg 200 112 feature_list \$1;
#X obj 200 132 s \$0-tID;
#X obj 47 190 list split 46;
#X obj 392 110 list prepend 0;
#N canvas 0 22 450 278 (subpatch) 0;
#X array bfcc-display 46 float 0;
#X coords 0 1 45 -1 200 140 1;
#X restore 219 226 graph;
#X obj 47 170 list split 13;
#X obj 47 52 t b f f f;
#X msg 721 136 dump_range 13 58;
#X obj 658 337 table min-bfccs 46;
#X obj 658 357 table max-bfccs 46;
#X obj 721 188 list prepend 0;
#X obj 721 210 s min-bfccs;
#X msg 564 136 dump_range 13 58;
#X obj 564 188 list prepend 0;
#X obj 564 210 s max-bfccs;
#X obj 515 43 r update-bfcc-max-min;
#X obj 658 397 table bfcc-tmp 46;
#X obj 392 132 s bfcc-tmp;
#X obj 113 432 list prepend 0;
#X obj 113 454 s bfcc-display;
#X obj 47 212 t b l;
#X obj 47 234 t b b;
#X obj 658 377 table range-bfccs 46;
#X obj 515 319 list prepend 0;
#X obj 515 341 s range-bfccs;
#X msg 61 280 multiply range-bfccs;
#X obj 61 332 list prepend 0;
#X obj 61 354 s bfcc-tmp;
#X msg 27 386 add min-bfccs;
#X obj 47 30 r trig-sound;
#X msg 515 267 subtract min-bfccs;
#X obj 61 302 tID/tabletool bfcc-tmp;
#X obj 27 408 tID/tabletool bfcc-tmp;
#X obj 564 158 tID/tabletool max-values;
#X obj 515 289 tID/tabletool max-bfccs;
#X obj 721 158 tID/tabletool min-values;
#X obj 515 65 t b b b;
#X connect 0 0 1 1;
#X connect 1 0 7 0;
#X connect 2 0 3 0;
#X connect 4 0 22 0;
#X connect 5 0 19 0;
#X connect 7 1 4 0;
#X connect 8 0 1 0;
#X connect 8 3 2 0;
#X connect 9 0 37 0;
#X connect 12 0 13 0;
#X connect 14 0 35 0;
#X connect 15 0 16 0;
#X connect 17 0 38 0;
#X connect 20 0 21 0;
#X connect 22 0 23 0;
#X connect 22 1 5 0;
#X connect 23 0 30 0;
#X connect 23 1 27 0;
#X connect 25 0 26 0;
#X connect 27 0 33 0;
#X connect 28 0 29 0;
#X connect 30 0 34 0;
#X connect 31 0 8 0;
#X connect 32 0 36 0;
#X connect 33 1 28 0;
#X connect 34 1 20 0;
#X connect 35 1 15 0;
#X connect 36 1 25 0;
#X connect 37 1 12 0;
#X connect 38 0 32 0;
#X connect 38 1 14 0;
#X connect 38 2 9 0;
#X coords 0 -1 1 1 240 185 2 200 200;
#X restore 14 355 pd display-bfccs;
#X obj 384 145 grain-info flux 5;
#X obj 264 285 grain-info amplitude 12;
#X obj 144 145 grain-info centroid 3;
#X obj 264 145 grain-info flatness 4;
#X obj 14 145 grain-info brightness 2;
#X obj 14 215 grain-info irregularity 6;
#X obj 144 215 grain-info kurtosis 7;
#X obj 264 215 grain-info skewness 8;
#X obj 384 215 grain-info spread 9;
#X obj 14 285 grain-info zero-crossing 10;
#X obj 144 285 grain-info pitch 11;
#X restore 246 238 pd grain-info-display;
#X text 244 202 Open this sub-patch for;
#X text 244 217 grain info on mouseover;
#X obj 36 248 bng 15 250 50 0 save-plot empty Save-plot 17 7 0 12 -258113
-1 -1;
#X text 323 135 <<<<< More mapping options;
#X text 34 404 timbreID - William Brent 2012;
