#N canvas 52 213 484 530 10;
#N canvas 396 92 662 418 init 0;
#X obj 70 14 loadbang;
#X obj 20 20 bng 15 250 50 0 empty empty empty 17 7 0 10 -262144 -1
-1;
#X obj 299 98 s lb1;
#X obj 268 130 s lb2;
#X obj 444 33 r lb1;
#X obj 444 156 s window-radio-set;
#X obj 476 108 s overlap-radio-set;
#X msg 476 87 1;
#X msg 211 224 85;
#X obj 211 245 s master-volume-set;
#X msg 190 289 0;
#X obj 190 310 s frame-start;
#X msg 131 329 -4;
#X obj 131 350 s scrub-pos;
#X obj 70 35 t b b b b b b;
#X msg 444 135 3;
#X msg 33 371 \; pd dsp 1 \;;
#X msg 544 58 44100;
#X obj 544 79 s samplerate;
#X obj 444 53 t b b b;
#X msg 257 181 75;
#X obj 257 202 s colormap-warp-set;
#X connect 0 0 14 0;
#X connect 1 0 14 0;
#X connect 4 0 19 0;
#X connect 7 0 6 0;
#X connect 8 0 9 0;
#X connect 10 0 11 0;
#X connect 12 0 13 0;
#X connect 14 0 12 0;
#X connect 14 0 16 0;
#X connect 14 1 10 0;
#X connect 14 2 8 0;
#X connect 14 3 20 0;
#X connect 14 4 3 0;
#X connect 14 5 2 0;
#X connect 15 0 5 0;
#X connect 17 0 18 0;
#X connect 19 0 15 0;
#X connect 19 1 7 0;
#X connect 19 2 17 0;
#X connect 20 0 21 0;
#X restore 34 24 pd init;
#X obj 288 204 bng 15 250 50 0 open-sf empty open-soundfile 17 7 0
12 -4032 -1 -1;
#X obj 288 224 bng 15 250 50 0 play-sf empty play-soundfile 17 7 0
12 -4034 -1 -1;
#N canvas 59 67 567 377 gemwin 0;
#X obj 102 122 tgl 15 0 \$0-gemstart \$0-gemstart empty 17 7 0 10 -262144
-1 -1 0 1;
#X obj 102 161 r \$0-gemstart;
#X obj 102 182 select 1 0;
#X msg 102 214 create \, 1;
#X msg 177 215 destroy;
#X obj 102 239 t a;
#X obj 318 54 inlet;
#X obj 318 261 gemwin;
#X obj 318 100 t a a;
#X obj 318 287 outlet;
#X obj 350 128 route create destroy;
#X obj 350 150 t b;
#X msg 350 172 1;
#X obj 390 150 t b;
#X msg 390 172 0;
#X msg 382 216 set \$1;
#X text 118 122 rendering;
#X obj 350 195 t b f;
#X obj 350 236 s render-plot;
#X msg 136 269 0;
#X obj 136 290 s set-kbd-nav-on;
#X obj 136 310 s set-mouseover-on;
#X obj 136 330 s set-animate;
#X connect 1 0 2 0;
#X connect 2 0 3 0;
#X connect 2 1 4 0;
#X connect 2 1 19 0;
#X connect 3 0 5 0;
#X connect 4 0 5 0;
#X connect 5 0 8 0;
#X connect 6 0 8 0;
#X connect 7 0 9 0;
#X connect 8 0 7 0;
#X connect 8 1 10 0;
#X connect 10 0 11 0;
#X connect 10 1 13 0;
#X connect 11 0 12 0;
#X connect 12 0 17 0;
#X connect 13 0 14 0;
#X connect 14 0 17 0;
#X connect 15 0 0 0;
#X connect 17 1 15 0;
#X connect 19 0 20 0;
#X connect 19 0 21 0;
#X connect 19 0 22 0;
#X coords 0 -1 1 1 85 40 1 100 100;
#X restore 34 431 pd gemwin;
#N canvas 673 58 767 820 gem 0;
#X obj 194 527 gemlist;
#X obj 102 89 route gem_state;
#X obj 102 109 route float;
#X obj 194 590 translateXYZ;
#X obj 194 548 separator;
#N canvas 178 93 750 416 coords 0;
#X obj 98 304 outlet;
#X obj 341 304 outlet;
#X obj 540 255 outlet;
#X obj 98 39 inlet;
#X obj 540 102 inlet;
#X obj 341 39 inlet;
#X obj 341 168 * 8;
#X obj 341 189 - 4;
#X obj 98 160 * 8;
#X obj 98 181 - 4;
#X obj 341 136 /;
#X obj 98 129 /;
#X obj 116 92 r num-frames;
#X obj 540 142 tabread mag-table;
#X obj 133 256 * 4;
#X obj 133 186 r num-frames;
#X obj 98 238 +;
#X obj 376 249 * 4;
#X obj 341 231 +;
#X obj 359 109 r num-bins;
#X obj 376 179 r num-bins;
#X obj 376 200 swap 1;
#X obj 376 221 /;
#X obj 133 235 /;
#X obj 133 207 swap 1;
#X obj 540 183 /;
#X obj 604 167 r norm-scalar;
#N canvas 0 22 710 430 color-mapping 0;
#X obj 53 -32 inlet;
#X obj 53 232 outlet;
#X obj 409 95 r lb1;
#X obj 53 70 t f f f;
#X obj 53 203 pack f f f;
#X obj 53 141 tabread4 red;
#X obj 153 141 tabread4 green;
#X obj 263 141 tabread4 blue;
#X obj 409 -7 table red 100;
#X obj 409 13 table green 100;
#X obj 409 33 table blue 100;
#X obj 53 49 * 99;
#X obj 53 -11 * 99;
#X obj 53 14 tabread4 warp;
#X obj 409 54 table warp 100;
#X msg 409 272 series 0 1 \$1;
#X obj 409 293 tabletool warp;
#X floatatom 409 249 5 0 0 0 - - -;
#X obj 409 196 r colormap-warp;
#X obj 409 217 / 100;
#X msg 409 116 \; red read data/colors-R-100.txt \; green read data/colors-G-100.txt
\; blue read data/colors-B-100.txt \;;
#X connect 0 0 12 0;
#X connect 2 0 20 0;
#X connect 3 0 5 0;
#X connect 3 1 6 0;
#X connect 3 2 7 0;
#X connect 4 0 1 0;
#X connect 5 0 4 0;
#X connect 6 0 4 1;
#X connect 7 0 4 2;
#X connect 11 0 3 0;
#X connect 12 0 13 0;
#X connect 13 0 11 0;
#X connect 15 0 16 0;
#X connect 17 0 15 0;
#X connect 18 0 19 0;
#X connect 19 0 17 0;
#X restore 540 225 pd color-mapping;
#X obj 98 60 -;
#X obj 128 60 r frame-start;
#X text 169 234 <-- offset to get \; first rectangle \; flush w/left
edge;
#X connect 3 0 28 0;
#X connect 4 0 13 0;
#X connect 5 0 10 0;
#X connect 6 0 7 0;
#X connect 7 0 18 0;
#X connect 8 0 9 0;
#X connect 9 0 16 0;
#X connect 10 0 6 0;
#X connect 11 0 8 0;
#X connect 12 0 11 1;
#X connect 13 0 25 0;
#X connect 14 0 16 1;
#X connect 15 0 24 0;
#X connect 16 0 0 0;
#X connect 17 0 18 1;
#X connect 18 0 1 0;
#X connect 19 0 10 1;
#X connect 20 0 21 0;
#X connect 21 0 22 0;
#X connect 21 1 22 1;
#X connect 22 0 17 0;
#X connect 23 0 14 0;
#X connect 24 0 23 0;
#X connect 24 1 23 1;
#X connect 25 0 27 0;
#X connect 26 0 25 1;
#X connect 27 0 2 0;
#X connect 28 0 11 0;
#X connect 29 0 28 1;
#X restore 266 548 pd coords;
#X obj 176 182 t f b;
#X obj 176 209 until;
#X obj 194 611 color;
#N canvas 2111 146 228 186 reset-rendering 0;
#X msg 101 86 0;
#X msg 63 86 1;
#X obj 63 124 outlet;
#X obj 101 62 r lb1;
#X obj 19 6 r render-points;
#X obj 63 34 r render-plot;
#X connect 0 0 2 0;
#X connect 1 0 2 0;
#X connect 3 0 0 0;
#X connect 4 0 2 0;
#X connect 5 0 1 0;
#X restore 102 9 pd reset-rendering;
#X obj 102 41 gemhead 50;
#N canvas 288 126 619 439 snapshot 0;
#X obj 61 33 inlet;
#X obj 204 275 pix_texture;
#X msg 93 188 snap;
#X obj 61 159 t b b;
#X msg 61 97 clear;
#N canvas 1600 380 299 269 oneshot 0;
#X obj 30 25 inlet;
#X obj 193 89 bang;
#X msg 193 108 1;
#X obj 104 155 spigot;
#X msg 161 109 0;
#X obj 143 133 i 1;
#X obj 30 50 route clear;
#X obj 104 203 outlet;
#X obj 104 103 t b b;
#X obj 104 181 t b b;
#X connect 0 0 6 0;
#X connect 1 0 2 0;
#X connect 2 0 5 1;
#X connect 3 0 9 0;
#X connect 4 0 5 1;
#X connect 5 0 3 1;
#X connect 6 0 1 0;
#X connect 6 1 8 0;
#X connect 8 0 3 0;
#X connect 8 1 5 0;
#X connect 9 0 7 0;
#X connect 9 1 4 0;
#X restore 61 124 pd oneshot;
#X msg 61 290 0;
#X obj 204 204 pix_snap 0 0 800 800;
#X obj 61 311 s render-points;
#X obj 204 309 square 4;
#X obj 204 89 t a b;
#X obj 378 291 pix_write 0 0 800 800;
#X msg 402 197 file \$1 1;
#X obj 402 218 t b a;
#X obj 402 176 savepanel;
#X obj 402 137 r save-plot;
#X obj 204 53 gemhead 55;
#X connect 0 0 4 0;
#X connect 1 0 9 0;
#X connect 2 0 7 0;
#X connect 3 0 6 0;
#X connect 3 1 2 0;
#X connect 4 0 5 0;
#X connect 5 0 3 0;
#X connect 6 0 8 0;
#X connect 7 0 1 0;
#X connect 7 0 11 0;
#X connect 10 0 7 0;
#X connect 10 1 5 0;
#X connect 12 0 13 0;
#X connect 13 0 11 0;
#X connect 13 1 11 0;
#X connect 14 0 12 0;
#X connect 15 0 14 0;
#X connect 16 0 10 0;
#X restore 52 424 pd snapshot;
#X obj 176 134 bang;
#X obj 194 393 until;
#X obj 223 455 + 1;
#X obj 194 455 f;
#X obj 176 159 f;
#X obj 194 356 f;
#X msg 212 425 0;
#X obj 236 159 r num-frames;
#X obj 205 274 + 1;
#X obj 176 274 f;
#X obj 102 68 t a a;
#X obj 224 711 * 4;
#X obj 225 647 r num-frames;
#X obj 329 736 * 4;
#N canvas 895 23 545 571 analysis 0;
#X obj 58 308 magSpec spectrogram-sample;
#X obj 95 152 r hop-samp;
#X obj 111 188 r window-size;
#X msg 58 241 analyze \$1 \$2;
#X obj 58 213 pack f f;
#N canvas 0 22 450 300 (subpatch) 0;
#X array mag-table 1024 float 2;
#X coords 0 1 1024 0 200 140 1;
#X restore 286 59 graph;
#X obj 354 226 r window-size;
#X obj 354 247 / 2;
#X msg 354 268 \; mag-table resize \$1 \;;
#X obj 58 364 s mag-table;
#X obj 58 343 list prepend 0;
#X obj 201 256 r lb1;
#X msg 201 277 normalize 0;
#X obj 58 131 inlet;
#X obj 58 152 *;
#X connect 0 0 10 0;
#X connect 1 0 14 1;
#X connect 2 0 4 1;
#X connect 3 0 0 0;
#X connect 4 0 3 0;
#X connect 6 0 7 0;
#X connect 7 0 8 0;
#X connect 10 0 9 0;
#X connect 11 0 12 0;
#X connect 12 0 0 0;
#X connect 13 0 14 0;
#X connect 14 0 4 0;
#X restore 250 331 pd analysis;
#X obj 225 668 swap 1;
#X obj 225 690 /;
#X obj 329 690 swap 1;
#X obj 329 715 /;
#X obj 226 356 r num-bins;
#X obj 329 667 r num-bins;
#X obj 176 306 t b b b f f;
#X obj 194 752 rectangle;
#X obj 194 248 f;
#X obj 231 232 r frame-start;
#X obj 517 221 gemhead 60;
#X obj 517 264 color 0 1 0;
#X obj 517 412 rectangle 0.005 4;
#X obj 517 375 translateXYZ;
#X obj 544 323 r scrub-pos;
#X floatatom 544 344 5 0 0 0 - - -;
#X text 363 737 <--dimensions relative to gemwin (-4 to 4);
#X obj 194 486 t b f f;
#X connect 0 0 4 0;
#X connect 1 0 2 0;
#X connect 2 1 12 0;
#X connect 3 0 8 0;
#X connect 4 0 3 0;
#X connect 5 0 3 1;
#X connect 5 1 3 2;
#X connect 5 2 8 1;
#X connect 6 0 7 0;
#X connect 6 1 35 0;
#X connect 7 0 21 0;
#X connect 8 0 34 0;
#X connect 9 0 10 0;
#X connect 10 0 22 0;
#X connect 12 0 16 0;
#X connect 13 0 15 0;
#X connect 14 0 15 1;
#X connect 15 0 14 0;
#X connect 15 0 44 0;
#X connect 16 0 6 0;
#X connect 17 0 13 0;
#X connect 18 0 15 1;
#X connect 19 0 16 1;
#X connect 20 0 21 1;
#X connect 21 0 20 0;
#X connect 21 0 33 0;
#X connect 22 0 1 0;
#X connect 22 1 0 1;
#X connect 23 0 34 1;
#X connect 24 0 27 0;
#X connect 25 0 34 2;
#X connect 27 0 28 0;
#X connect 27 1 28 1;
#X connect 28 0 23 0;
#X connect 29 0 30 0;
#X connect 29 1 30 1;
#X connect 30 0 25 0;
#X connect 31 0 17 1;
#X connect 32 0 29 0;
#X connect 33 0 11 0;
#X connect 33 1 17 0;
#X connect 33 2 18 0;
#X connect 33 3 5 0;
#X connect 33 4 26 0;
#X connect 35 0 21 1;
#X connect 36 0 35 1;
#X connect 37 0 38 0;
#X connect 38 0 40 0;
#X connect 40 0 39 0;
#X connect 41 0 42 0;
#X connect 42 0 40 1;
#X connect 44 0 0 0;
#X connect 44 1 5 1;
#X connect 44 2 5 2;
#X restore 304 24 pd gem;
#N canvas 95 129 800 440 Gem.init 0;
#X msg 23 326 frame \$1;
#X floatatom 23 305 5 0 0 0 - - -;
#X obj 103 30 loadbang;
#X obj 451 354 r \$0-gemwin-settings;
#X obj 451 381 outlet;
#X obj 23 347 s \$0-gemwin-settings;
#X obj 172 372 s \$0-gemwin-settings;
#X obj 216 311 s \$0-gemwin-settings;
#X msg 172 341 color 0 0 0;
#X obj 599 179 s \$0-gemwin-settings;
#X obj 599 139 tgl 15 0 empty empty empty 17 7 0 10 -262144 -1 -1 0
1;
#X msg 599 158 fullscreen \$1;
#X obj 599 263 s \$0-gemwin-settings;
#X obj 599 223 tgl 15 0 empty empty empty 17 7 0 10 -262144 -1 -1 0
1;
#X msg 599 242 border \$1;
#X obj 351 206 s \$0-gemwin-settings;
#X msg 351 183 offset 600 0;
#X msg 475 67 reset;
#X obj 475 92 s \$0-gemwin-settings;
#X obj 341 146 s \$0-gemwin-settings;
#X obj 103 51 t b b b b b b b b;
#X obj 539 313 s \$0-gemwin-settings;
#X msg 539 292 print;
#X msg 216 290 dimen 800 800;
#X msg 23 277 30;
#X msg 341 123 title spectrogram;
#X obj 307 264 s \$0-gemwin-settings;
#X msg 307 243 lighting \$1;
#X obj 307 224 tgl 15 0 empty empty empty 17 7 0 10 -262144 -1 -1 0
1;
#X connect 0 0 5 0;
#X connect 1 0 0 0;
#X connect 2 0 20 0;
#X connect 3 0 4 0;
#X connect 8 0 6 0;
#X connect 10 0 11 0;
#X connect 11 0 9 0;
#X connect 13 0 14 0;
#X connect 14 0 12 0;
#X connect 16 0 15 0;
#X connect 17 0 18 0;
#X connect 20 0 24 0;
#X connect 20 1 8 0;
#X connect 20 2 23 0;
#X connect 20 4 16 0;
#X connect 20 5 25 0;
#X connect 20 7 17 0;
#X connect 22 0 21 0;
#X connect 23 0 7 0;
#X connect 24 0 1 0;
#X connect 25 0 19 0;
#X connect 27 0 26 0;
#X connect 28 0 27 0;
#X restore 34 412 pd Gem.init;
#X obj 288 433 bng 15 250 50 0 render-plot empty render-plot 17 7 0
12 -228856 -1 -1;
#X floatatom 34 302 10 0 0 1 norm-scalar norm-scalar-set norm-scalar
;
#X floatatom 164 154 10 0 0 1 - window-size -;
#X floatatom 104 194 5 0 0 1 - overlap -;
#N canvas 537 42 903 761 param-settings 0;
#X obj 93 22 r sf-length;
#X obj 274 68 r window-size;
#X obj 306 216 /;
#X obj 306 237 s hop-samp;
#X obj 324 142 r overlap;
#X floatatom 114 193 10 0 0 0 - - -;
#X obj 114 211 s num-frames;
#X obj 114 163 i;
#X obj 68 362 s norm-scalar-set;
#X obj 68 333 r max-mag;
#X obj 39 239 s check-max;
#X obj 68 54 f;
#X obj 324 163 t b b f;
#X obj 324 184 s reset;
#X obj 274 89 t b f;
#X obj 274 110 s reset;
#X obj 68 -4 r reset;
#X obj 452 195 list split 1;
#X obj 533 164 t f f;
#X obj 452 236 list split 1;
#X obj 565 207 - 1;
#X obj 533 144 + 1;
#X obj 452 74 t b f;
#X obj 623 199 list split 1;
#X obj 704 168 t f f;
#X obj 623 240 list split 1;
#X obj 736 211 - 1;
#X obj 704 148 + 1;
#X obj 623 78 t b f;
#X msg 623 115 256 512 1024 2048 4096 8192 16384 32768;
#X msg 452 101 1 2 4 8;
#X obj 492 268 s overlap;
#X obj 663 272 s window-size;
#X obj 452 53 r overlap-radio;
#X obj 623 57 r window-radio;
#X obj 242 428 *;
#X obj 260 405 r samplerate;
#X obj 273 291 r time-start;
#X obj 242 480 /;
#X obj 282 464 r hop-samp;
#X obj 242 501 i;
#X obj 242 357 -;
#X obj 242 522 s num-frames;
#X obj 362 343 *;
#X obj 380 320 r samplerate;
#X obj 362 385 /;
#X obj 402 369 r hop-samp;
#X obj 362 406 i;
#X obj 362 427 s frame-start;
#X obj 39 428 r sf-length;
#X obj 57 465 r samplerate;
#X obj 39 509 s sf-time;
#X obj 39 488 /;
#X obj 39 529 s time-end-set;
#X obj 129 583 r reset;
#X obj 129 634 f;
#X obj 129 655 s time-end-set;
#X obj 147 609 r sf-time;
#X msg 86 660 0;
#X obj 86 681 s time-start-set;
#X obj 242 268 r time-end;
#X obj 273 312 t b f;
#X obj 635 460 r samplerate;
#X obj 610 492 swap;
#X obj 610 513 /;
#X obj 487 437 r window-size;
#X obj 487 458 t f f;
#X obj 487 479 / 4;
#X obj 487 611 *;
#X obj 487 632 s freq-upper-limit-set;
#X obj 656 547 r freq-upper-limit;
#X obj 656 568 /;
#X obj 592 602 s num-bins;
#X obj 146 142 r hop-samp;
#X obj 129 85 r window-size;
#X obj 114 120 -;
#X obj 114 142 /;
#X obj 68 81 t b f;
#X connect 0 0 11 0;
#X connect 1 0 14 0;
#X connect 2 0 3 0;
#X connect 4 0 12 0;
#X connect 5 0 6 0;
#X connect 7 0 5 0;
#X connect 9 0 8 0;
#X connect 11 0 77 0;
#X connect 12 0 13 0;
#X connect 12 1 2 0;
#X connect 12 2 2 1;
#X connect 14 0 15 0;
#X connect 14 1 2 0;
#X connect 16 0 11 0;
#X connect 17 0 19 0;
#X connect 18 0 17 1;
#X connect 18 1 20 0;
#X connect 19 1 31 0;
#X connect 20 0 19 1;
#X connect 21 0 18 0;
#X connect 22 0 30 0;
#X connect 22 1 21 0;
#X connect 23 0 25 0;
#X connect 24 0 23 1;
#X connect 24 1 26 0;
#X connect 25 1 32 0;
#X connect 26 0 25 1;
#X connect 27 0 24 0;
#X connect 28 0 29 0;
#X connect 28 1 27 0;
#X connect 29 0 23 0;
#X connect 30 0 17 0;
#X connect 33 0 22 0;
#X connect 34 0 28 0;
#X connect 35 0 38 0;
#X connect 36 0 35 1;
#X connect 37 0 61 0;
#X connect 38 0 40 0;
#X connect 39 0 38 1;
#X connect 40 0 42 0;
#X connect 41 0 35 0;
#X connect 43 0 45 0;
#X connect 44 0 43 1;
#X connect 45 0 47 0;
#X connect 46 0 45 1;
#X connect 47 0 48 0;
#X connect 49 0 52 0;
#X connect 50 0 52 1;
#X connect 52 0 51 0;
#X connect 52 0 53 0;
#X connect 54 0 55 0;
#X connect 54 0 58 0;
#X connect 55 0 56 0;
#X connect 57 0 55 1;
#X connect 58 0 59 0;
#X connect 60 0 41 0;
#X connect 61 0 41 0;
#X connect 61 1 41 1;
#X connect 61 1 43 0;
#X connect 62 0 63 1;
#X connect 63 0 64 0;
#X connect 63 1 64 1;
#X connect 64 0 68 1;
#X connect 64 0 71 1;
#X connect 65 0 66 0;
#X connect 66 0 67 0;
#X connect 66 1 63 0;
#X connect 67 0 68 0;
#X connect 67 0 72 0;
#X connect 68 0 69 0;
#X connect 70 0 71 0;
#X connect 71 0 72 0;
#X connect 73 0 76 1;
#X connect 74 0 75 1;
#X connect 75 0 76 0;
#X connect 76 0 7 0;
#X connect 77 0 10 0;
#X connect 77 1 75 0;
#X restore 304 45 pd param-settings;
#X floatatom 34 269 10 0 0 1 freq-upper-limit freq-upper-limit-set
freq-upper-limit;
#N canvas 570 217 780 631 analysis 0;
#X msg -10 327 max;
#X obj -10 369 t f f;
#X obj 22 406 >;
#X obj -10 450 spigot;
#X msg 41 383 0;
#X obj -10 476 s max-mag;
#X obj 171 462 magSpec spectrogram-sample;
#X obj 208 306 r hop-samp;
#X obj 224 342 r window-size;
#X msg 171 395 analyze \$1 \$2;
#X obj 171 367 pack f f;
#N canvas 0 22 450 300 (subpatch) 0;
#X array max-mag-table 1024 float 2;
#X coords 0 1 1024 0 200 140 1;
#X restore 463 192 graph;
#X obj 463 373 r window-size;
#X obj 463 394 / 2;
#X obj 171 497 list prepend 0;
#X obj 285 398 r lb1;
#X msg 285 419 normalize 0;
#X obj 171 306 *;
#X obj -10 348 tabletool max-mag-table;
#X msg 463 415 \; max-mag-table resize \$1 \;;
#X obj 171 518 s max-mag-table;
#X obj 139 172 until;
#X obj 139 233 f;
#X obj 173 233 + 1;
#X obj 139 70 r check-max;
#X obj 139 121 f;
#X obj 139 142 t f b;
#X obj 139 254 t b f;
#X obj 157 95 r num-frames;
#X obj 157 209 f;
#X obj 194 193 r frame-start;
#X connect 0 0 18 0;
#X connect 1 0 3 0;
#X connect 1 1 2 0;
#X connect 2 0 3 1;
#X connect 3 0 2 1;
#X connect 3 0 5 0;
#X connect 4 0 2 1;
#X connect 6 0 14 0;
#X connect 7 0 17 1;
#X connect 8 0 10 1;
#X connect 9 0 6 0;
#X connect 10 0 9 0;
#X connect 12 0 13 0;
#X connect 13 0 19 0;
#X connect 14 0 20 0;
#X connect 15 0 16 0;
#X connect 16 0 6 0;
#X connect 17 0 10 0;
#X connect 18 0 1 0;
#X connect 21 0 22 0;
#X connect 22 0 23 0;
#X connect 22 0 27 0;
#X connect 23 0 22 1;
#X connect 24 0 25 0;
#X connect 25 0 26 0;
#X connect 26 0 21 0;
#X connect 26 1 4 0;
#X connect 26 1 29 0;
#X connect 27 0 0 0;
#X connect 27 1 17 0;
#X connect 28 0 25 1;
#X connect 29 0 22 1;
#X connect 30 0 29 1;
#X restore 176 45 pd analysis;
#X obj 34 154 hradio 15 1 0 8 window-radio window-radio-set window-size
0 -8 0 12 -262144 -1 -1 3;
#X obj 34 194 hradio 15 1 0 4 overlap-radio overlap-radio-set overlap
0 -8 0 12 -262144 -1 -1 1;
#X floatatom 288 377 10 0 0 1 time-start time-start-set time-start
;
#X floatatom 288 400 10 0 0 1 time-end time-end-set time-end;
#X obj 291 270 hsl 128 15 40 100 0 0 master-volume master-volume-set
master-volume 8 8 0 12 -262144 -1 -1 9525 1;
#X floatatom 288 340 10 0 0 1 total-time sf-time -;
#X obj 288 244 bng 15 250 50 0 stop-sf empty stop 17 7 0 12 -258113
-1 -1;
#N canvas 441 86 827 545 soundfile 0;
#X obj 42 494 dac~;
#X obj 42 372 tabplay~ spectrogram-sample;
#X obj 42 453 *~;
#X obj 42 31 r play-sf;
#X obj 86 311 r stop-sf;
#X msg 86 332 stop;
#X obj 421 462 soundfiler;
#X obj 578 382 table spectrogram-sample;
#X obj 421 403 openpanel;
#X obj 421 486 s sf-length;
#X msg 421 430 read -resize -maxsize 2.7e+08 \$1 spectrogram-sample
;
#X obj 421 382 r open-sf;
#X obj 42 282 list;
#X obj 371 155 r play-sf;
#X obj 371 307 line;
#X obj 371 328 s scrub-pos;
#X obj 371 206 f;
#X msg 371 227 -4 \, 4 \$1;
#X obj 389 180 * 1000;
#X obj 389 252 r stop-sf;
#X msg 389 273 stop;
#X obj 264 72 r time-start;
#X obj 199 42 r time-end;
#X obj 231 131 -;
#X obj 231 208 *;
#X obj 249 185 r samplerate;
#X obj 100 236 pack f f;
#X obj 100 171 *;
#X obj 118 148 r samplerate;
#X obj 199 63 t b f;
#X obj 264 93 t f b f;
#X obj 223 442 dbtorms;
#X obj 223 463 pack f 40;
#X obj 223 484 line~;
#X obj 223 351 r master-volume;
#X obj 223 373 moses 41;
#X obj 223 395 t b;
#X msg 223 417 0;
#X connect 1 0 2 0;
#X connect 2 0 0 0;
#X connect 2 0 0 1;
#X connect 3 0 12 0;
#X connect 4 0 5 0;
#X connect 5 0 1 0;
#X connect 6 0 9 0;
#X connect 8 0 10 0;
#X connect 10 0 6 0;
#X connect 11 0 8 0;
#X connect 12 0 1 0;
#X connect 13 0 16 0;
#X connect 14 0 15 0;
#X connect 16 0 17 0;
#X connect 17 0 14 0;
#X connect 18 0 16 1;
#X connect 19 0 20 0;
#X connect 20 0 14 0;
#X connect 21 0 30 0;
#X connect 22 0 29 0;
#X connect 23 0 24 0;
#X connect 23 0 18 0;
#X connect 24 0 26 1;
#X connect 25 0 24 1;
#X connect 26 0 12 1;
#X connect 27 0 26 0;
#X connect 28 0 27 1;
#X connect 29 0 27 0;
#X connect 29 1 23 0;
#X connect 30 0 27 0;
#X connect 30 1 23 0;
#X connect 30 2 23 1;
#X connect 31 0 32 0;
#X connect 32 0 33 0;
#X connect 33 0 2 1;
#X connect 34 0 35 0;
#X connect 35 0 36 0;
#X connect 35 1 31 0;
#X connect 36 0 37 0;
#X connect 37 0 31 0;
#X restore 176 24 pd soundfile;
#X obj 288 453 bng 15 250 50 0 save-plot empty save-plot 17 7 0 12
-204786 -1 -1;
#N canvas 277 251 518 379 INSTRUCTIONS 1;
#X text 38 13 This patch plots spectrograms using timbreID's [magSpec]
object. It requires GEM.;
#X text 38 113 The patch automatically scales the colors relative to
the maximum magnitude found across all frames in the soundfile. By
adjusting the "norm-scalar" number box and then rendering the plot
again \, you can adjust the color scale to make weaker components more
visible at the cost of saturating colors for strong components.;
#X text 38 203 Some other useful settings to play with are start and
end time points in the file \, and number of bins to display (defaults
to half the window size).;
#X text 38 253 You can save your plot to a .JPG file by clicking the
"save-plot" button and typing in a file name. You can also play the
currently selected time segment of the file. A scrub bar will move
across the plot during playback.;
#X text 38 53 To plot something \, first open a soundfile by clicking
the "open-soundfile" button. Then turn GEM rendering on using the checkbox
in the lower left corner. Next \, click the "render-plot" button in
the lower right corner.;
#X restore 34 45 pd INSTRUCTIONS;
#X obj 34 325 bng 15 250 50 0 check-max empty check-max 17 7 0 12 -262130
-1 -1;
#X floatatom 34 370 5 0 0 1 colormap-warp colormap-warp-set colormap-warp
;
#X obj 1 -13 cnv 10 400 10 empty empty empty 20 12 0 14 -233017 -66577
0;
#X obj 1 -13 cnv 10 10 400 empty empty empty 20 12 0 14 -233017 -66577
0;
#X connect 5 0 3 0;
