#N canvas 869 609 508 222 10;
#X declare -lib zexy;
#X declare -lib zexy;
#X declare -lib zexy;
#X obj 18 17 inlet;
#X obj 18 59 separator;
#X obj 171 60 separator;
#X obj 171 107 rotateXYZ 0 90 0;
#X obj 323 60 separator;
#X obj 323 107 rotateXYZ 90 0 0;
#X obj 171 132 colorRGB 0 1 0;
#X obj 18 132 colorRGB 1 0 0;
#X obj 171 156 linegrid 13;
#X obj 18 154 linegrid 13;
#X obj 323 156 linegrid 13;
#X obj 323 132 colorRGB 0 0 1;
#X text 20 181 x;
#X text 172 184 y;
#X text 325 182 z;
#X obj 323 83 translateXYZ -2 -1.5 -2;
#X obj 171 83 translateXYZ 1 1.5 -2;
#X obj 18 83 translateXYZ -2 1.5 -5;
#X connect 0 0 1 0;
#X connect 0 0 2 0;
#X connect 0 0 4 0;
#X connect 1 0 17 0;
#X connect 2 0 16 0;
#X connect 3 0 6 0;
#X connect 4 0 15 0;
#X connect 5 0 11 0;
#X connect 6 0 8 0;
#X connect 7 0 9 0;
#X connect 11 0 10 0;
#X connect 15 0 5 0;
#X connect 16 0 3 0;
#X connect 17 0 7 0;
