#N canvas 385 709 458 222 10;
#X declare -lib zexy;
#X declare -lib zexy;
#X declare -lib zexy;
#X obj 18 17 inlet;
#X obj 18 59 separator;
#X obj 154 60 separator;
#X obj 154 107 rotateXYZ 0 90 0;
#X obj 292 61 separator;
#X obj 292 108 rotateXYZ 90 0 0;
#X obj 154 132 colorRGB 0 1 0;
#X obj 18 132 colorRGB 1 0 0;
#X obj 154 83 translateXYZ 3 1.5 0;
#X obj 18 83 translateXYZ 0 1.5 3;
#X obj 292 84 translateXYZ 0 -1.5 0;
#X obj 154 156 linegrid 13;
#X obj 18 154 linegrid 13;
#X obj 292 157 linegrid 13;
#X obj 292 133 colorRGB 0 0 1;
#X connect 0 0 1 0;
#X connect 0 0 2 0;
#X connect 0 0 4 0;
#X connect 1 0 9 0;
#X connect 2 0 8 0;
#X connect 3 0 6 0;
#X connect 4 0 10 0;
#X connect 5 0 14 0;
#X connect 6 0 11 0;
#X connect 7 0 12 0;
#X connect 8 0 3 0;
#X connect 9 0 7 0;
#X connect 10 0 5 0;
#X connect 14 0 13 0;
