#N canvas 441 137 546 373 10;
#X declare -lib Gem;
#X declare -lib zexy;
#X declare -lib zexy;
#X declare -lib zexy;
#X obj 328 110 gemwin;
#X msg 336 52 0 \, destroy;
#X obj 194 22 declare -lib Gem;
#X obj 95 97 gemhead;
#N canvas 20 100 438 440 mousemove 0;
#X obj 28 7 gemmouse;
#X obj 35 87 pack;
#X obj 35 109 spigot;
#X obj 35 130 unpack;
#X obj 35 195 t f f;
#X msg 35 364 view \$2 \$3 \$1 0 0 0 0 1 0;
#X obj 35 172 +;
#X obj 35 220 * -1;
#X obj 100 236 t f f;
#X obj 100 173 +;
#X obj 100 261 * -1;
#X obj 35 387 s view_mess;
#N canvas 292 198 304 356 coordinates 0;
#X obj 89 52 inlet;
#X obj 94 331 outlet;
#X obj 193 62 atan;
#X msg 193 41 1;
#X obj 193 84 / 45;
#X obj 193 20 loadbang;
#X text 94 29 r phi theta;
#X obj 89 78 unpack 0 0 0;
#X obj 128 123 *;
#X obj 168 123 *;
#X obj 120 197 cos;
#X obj 150 198 sin;
#X obj 120 166 t f f;
#X obj 183 198 cos;
#X obj 213 199 sin;
#X obj 183 167 t f f;
#X obj 120 230 *;
#X obj 150 231 *;
#X obj 85 275 *;
#X obj 125 275 *;
#X obj 174 277 *;
#X obj 66 242 t f f f;
#X obj 91 308 pack 0 0 0;
#X connect 0 0 7 0;
#X connect 2 0 4 0;
#X connect 3 0 2 0;
#X connect 4 0 9 1;
#X connect 4 0 8 1;
#X connect 5 0 3 0;
#X connect 7 0 21 0;
#X connect 7 1 8 0;
#X connect 7 2 9 0;
#X connect 8 0 12 0;
#X connect 9 0 15 0;
#X connect 10 0 16 0;
#X connect 11 0 17 0;
#X connect 12 0 10 0;
#X connect 12 1 11 0;
#X connect 13 0 16 1;
#X connect 13 0 17 1;
#X connect 14 0 20 1;
#X connect 15 0 13 0;
#X connect 15 1 14 0;
#X connect 16 0 18 1;
#X connect 17 0 19 1;
#X connect 18 0 22 0;
#X connect 19 0 22 1;
#X connect 20 0 22 2;
#X connect 21 0 18 0;
#X connect 21 1 19 0;
#X connect 21 2 20 0;
#X connect 22 0 1 0;
#X restore 35 309 pd coordinates;
#X obj 35 248 t b f;
#X obj 35 288 pack 4 0 0;
#X obj 76 45 t f f;
#X obj 76 66 -;
#X obj 35 44 t f f;
#X obj 35 65 -;
#X obj 100 150 * 0.5;
#X obj 35 152 * 0.5;
#X obj 100 208 clip -90 90;
#X connect 0 0 17 0;
#X connect 0 1 15 0;
#X connect 0 2 2 1;
#X connect 1 0 2 0;
#X connect 2 0 3 0;
#X connect 3 0 20 0;
#X connect 3 1 19 0;
#X connect 4 0 7 0;
#X connect 4 1 6 1;
#X connect 5 0 11 0;
#X connect 6 0 4 0;
#X connect 7 0 13 0;
#X connect 8 0 10 0;
#X connect 8 1 9 1;
#X connect 9 0 21 0;
#X connect 10 0 14 2;
#X connect 12 0 5 0;
#X connect 13 0 14 0;
#X connect 13 1 14 1;
#X connect 14 0 12 0;
#X connect 15 0 16 1;
#X connect 15 1 16 0;
#X connect 16 0 1 1;
#X connect 17 0 18 1;
#X connect 17 1 18 0;
#X connect 18 0 1 0;
#X connect 19 0 9 0;
#X connect 20 0 6 0;
#X connect 21 0 8 0;
#X restore 194 48 pd mousemove;
#X msg 328 27 reset \, FSAA 8 \, create \, 1;
#X obj 345 80 r view_mess;
#X obj 95 201 cartesianspace;
#X text 86 243 click and drag in the Gem window to change the view
;
#X connect 1 0 0 0;
#X connect 3 0 7 0;
#X connect 5 0 0 0;
#X connect 6 0 0 0;
