#N canvas 139 213 482 452 10;
#X obj 71 369 *~;
#X obj 44 109 t b f;
#X obj 71 172 pack f f;
#X obj 166 20 r window-size;
#X obj 288 333 cos~;
#X obj 288 306 vline~;
#X msg 288 201 -0.25 \, 0.25 \$1;
#X obj 306 149 / 44.1;
#X obj 288 174 f;
#X msg 355 262 -0.25;
#X obj 44 22 r play-\$1;
#X obj 71 399 throw~ grain-bus;
#X obj 355 234 loadbang;
#X obj 339 104 r samplerate;
#X obj 339 126 / 1000;
#X obj 44 44 unpack f f;
#X obj 71 268 tabplay~;
#X msg 153 210 set tID-sample-\$1;
#X obj 166 41 t f f;
#X connect 0 0 11 0;
#X connect 1 0 8 0;
#X connect 1 1 2 0;
#X connect 2 0 16 0;
#X connect 3 0 18 0;
#X connect 4 0 0 1;
#X connect 5 0 4 0;
#X connect 6 0 5 0;
#X connect 7 0 8 1;
#X connect 8 0 6 0;
#X connect 9 0 5 0;
#X connect 10 0 15 0;
#X connect 12 0 9 0;
#X connect 13 0 14 0;
#X connect 14 0 7 1;
#X connect 15 0 1 0;
#X connect 15 1 17 0;
#X connect 16 0 0 0;
#X connect 17 0 16 0;
#X connect 18 0 2 1;
#X connect 18 1 7 0;
