#N canvas 938 80 472 423 10;
#X obj 47 197 list split 1;
#X obj 47 177 list split \$2;
#X obj 139 17 r trig-sound;
#X msg 221 91 feature_list \$1;
#X obj 221 111 s \$0-tID;
#X floatatom 108 323 10 0 0 2 #1 - -;
#X obj 156 195 tabread min-values;
#X obj 221 159 tabread max-values;
#X obj 221 238 -;
#X obj 47 274 *;
#X obj 47 298 +;
#X obj 221 139 f \$2;
#X obj 156 175 f \$2;
#X obj 47 125 spigot;
#X msg 98 125 0;
#X msg 128 125 1;
#X obj 47 147 t l b;
#X obj 47 16 r feature-list;
#X msg 139 37 \$1;
#X obj 139 56 t b b f b;
#X connect 0 0 9 0;
#X connect 1 1 0 0;
#X connect 2 0 18 0;
#X connect 3 0 4 0;
#X connect 6 0 8 1;
#X connect 6 0 10 1;
#X connect 7 0 8 0;
#X connect 8 0 9 1;
#X connect 9 0 10 0;
#X connect 10 0 5 0;
#X connect 11 0 7 0;
#X connect 12 0 6 0;
#X connect 13 0 16 0;
#X connect 14 0 13 1;
#X connect 15 0 13 1;
#X connect 16 0 1 0;
#X connect 16 1 14 0;
#X connect 17 0 13 0;
#X connect 18 0 19 0;
#X connect 19 0 11 0;
#X connect 19 1 12 0;
#X connect 19 2 3 0;
#X connect 19 3 15 0;
#X coords 0 -1 1 1 100 50 2 100 300;
