#N canvas 730 126 672 452 10;
#X obj 71 369 *~;
#X obj 44 109 t b f;
#X obj 71 172 pack f f;
#X obj 166 20 r window-size;
#X obj 288 333 cos~;
#X obj 288 306 vline~;
#X msg 288 201 -0.25 \, 0.25 \$1;
#X obj 306 149 / 44.1;
#X obj 288 174 f;
#X msg 355 262 -0.25;
#X obj 44 22 r play-\$1;
#X obj 71 399 throw~ grain-bus;
#X obj 355 234 loadbang;
#X obj 339 104 r samplerate;
#X obj 339 126 / 1000;
#X obj 71 268 tabplay~;
#X msg 138 209 set tID-sample-\$1;
#X obj 166 41 t f f;
#X msg 204 128 bang;
#X msg 551 265 -0.25;
#X obj 551 237 loadbang;
#X obj 484 336 cos;
#X obj 484 309 line;
#X obj 484 366 print;
#X msg 484 204 -0.25 \, 0.25 21.33;
#X obj 44 44 unpack f f f;
#X floatatom 116 80 5 0 0 0 - - -;
#X obj 280 389 env~;
#X floatatom 274 417 5 0 0 0 - - -;
#X obj 321 392 env~;
#X floatatom 315 420 5 0 0 0 - - -;
#X obj 338 305 vline~;
#X msg 404 275 0 \, 511 \$1;
#X floatatom 339 183 5 0 0 0 - - -;
#X obj 324 333 tabread4~ hann;
#X connect 0 0 11 0;
#X connect 1 0 8 0;
#X connect 1 1 2 0;
#X connect 2 0 15 0;
#X connect 3 0 17 0;
#X connect 4 0 0 1;
#X connect 4 0 27 0;
#X connect 5 0 4 0;
#X connect 6 0 5 0;
#X connect 7 0 8 1;
#X connect 8 0 6 0;
#X connect 8 0 32 0;
#X connect 8 0 33 0;
#X connect 9 0 5 0;
#X connect 10 0 25 0;
#X connect 12 0 9 0;
#X connect 13 0 14 0;
#X connect 14 0 7 1;
#X connect 15 0 0 0;
#X connect 16 0 15 0;
#X connect 17 0 2 1;
#X connect 17 1 7 0;
#X connect 18 0 8 0;
#X connect 19 0 22 0;
#X connect 20 0 19 0;
#X connect 21 0 23 0;
#X connect 22 0 21 0;
#X connect 24 0 22 0;
#X connect 25 0 1 0;
#X connect 25 1 16 0;
#X connect 25 2 26 0;
#X connect 27 0 28 0;
#X connect 29 0 30 0;
#X connect 31 0 34 0;
#X connect 32 0 31 0;
#X connect 34 0 29 0;
