#N canvas 895 181 592 395 10;
#X declare -lib zexy;
#X obj 23 25 inlet;
#X obj 23 303 translateXYZ 0 0.5 0;
#X obj 23 98 separator;
#X obj 164 99 separator;
#X obj 165 302 translateXYZ 0.5 0 0;
#X obj 23 335 rectangle 3 0.008;
#X obj 165 334 rectangle 0.008 3;
#X obj 312 21 declare -lib zexy;
#X obj 23 135 translateXYZ 0 -3.5 0;
#X obj 164 134 translateXYZ -3.5 0 0;
#X obj 312 179 / 3;
#X obj 312 247 * -1;
#X obj 312 131 t b f;
#X msg 312 156 3;
#X obj 312 203 * 2;
#X obj 312 106 - 1;
#X obj 312 227 + 3;
#X obj 165 221 repeat \$1;
#X obj 23 223 repeat \$1;
#X obj 312 81 \$1;
#X obj 312 55 loadbang;
#X obj 241 27 inlet;
#X connect 0 0 2 0;
#X connect 0 0 3 0;
#X connect 1 0 5 0;
#X connect 2 0 8 0;
#X connect 3 0 9 0;
#X connect 4 0 6 0;
#X connect 8 0 18 0;
#X connect 9 0 17 0;
#X connect 10 0 14 0;
#X connect 11 0 8 2;
#X connect 11 0 9 1;
#X connect 12 0 13 0;
#X connect 12 1 10 1;
#X connect 13 0 10 0;
#X connect 14 0 4 1;
#X connect 14 0 1 2;
#X connect 14 0 16 0;
#X connect 15 0 12 0;
#X connect 16 0 11 0;
#X connect 17 0 4 0;
#X connect 18 0 1 0;
#X connect 19 0 15 0;
#X connect 20 0 19 0;
#X connect 21 0 18 1;
#X connect 21 0 17 1;
#X connect 21 0 15 0;
