#N canvas 709 175 450 300 10;
#X declare -lib zexy;
#X declare -lib Gem;
#X obj 71 197 linegrid 4;
#X obj 71 36 gemhead;
#X floatatom 128 176 5 0 0 0 - - -;
#X obj 71 119 scaleXYZ;
#X floatatom 101 96 5 0 0 0 - - -;
#X floatatom 86 77 5 0 0 0 - - -;
#X obj 265 73 gemwin;
#X msg 273 43 0 \, destroy;
#X msg 265 18 reset \, FSAA 8 \, create \, 1;
#X text 60 240 linegrid is a grid of lines;
#X obj 264 103 declare -lib Gem;
#X text 61 261 needs zexy and Gem;
#X connect 1 0 3 0;
#X connect 2 0 0 1;
#X connect 3 0 0 0;
#X connect 4 0 3 2;
#X connect 5 0 3 1;
#X connect 7 0 6 0;
#X connect 8 0 6 0;
